<?xml version="1.0" standalone="no"?>
<!DOCTYPE svg PUBLIC "-//W3C//DTD SVG 1.1//EN" "http://www.w3.org/Graphics/SVG/1.1/DTD/svg11.dtd" >
<svg xmlns="http://www.w3.org/2000/svg" xmlns:xlink="http://www.w3.org/1999/xlink" version="1.1">
<metadata>
Created by FontForge 20170731 at Tue Mar 12 18:34:48 2019
 By Aleksey,,,
Copyright (c) - ARABIC - Boutros International, 2019. Copyright (c) - LATIN - URW Type Foundry, 2019. All rights reserved.
</metadata>
<defs>
<font id="URWDINArabicSemiCond-Medium" horiz-adv-x="480" >
  <font-face 
    font-family="URW DIN Arabic SemiCond Medium"
    font-weight="500"
    font-stretch="normal"
    units-per-em="1000"
    panose-1="0 0 0 0 0 0 0 0 0 0"
    ascent="750"
    descent="-250"
    x-height="508"
    cap-height="714"
    bbox="-157 -610 1283 1056"
    underline-thickness="67"
    underline-position="-243"
    unicode-range="U+0020-FEFC"
  />
<missing-glyph horiz-adv-x="180" 
d="M18 0v714h144v-714h-144zM144 18v678h-108v-678h108z" />
    <glyph glyph-name="uni067E0649" unicode="&#xfb58;&#xfef0;" horiz-adv-x="1047" 
d="M978 491v-279q0 -118 -50 -168q-43 -44 -130 -44h-149q-5 -40 -24 -83q-32 -86 -108 -133q-71 -44 -169 -44q-146 0 -231 102q-72 86 -72 211q0 101 46 192l76 -39q-32 -72 -32 -156q0 -109 62 -174q57 -58 149 -58q91 0 147 51q45 41 60 107q2 10 2 15q0 9 -11 9h-132
v78h385q45 0 66 32t21 101v280h94zM835 -212h-80v109h80v-109zM978 -212h-80v109h80v-109zM906 -356h-78v100h78v-100z" />
    <glyph glyph-name="uni067E0649.fina" unicode="&#xfb59;&#xfef0;" horiz-adv-x="1068" 
d="M797 0h-148q-5 -40 -24 -83q-32 -86 -108 -133q-71 -44 -169 -44q-146 0 -231 102q-72 86 -72 211q0 101 46 192l76 -39q-32 -72 -32 -156q0 -109 62 -174q57 -58 149 -58q91 0 147 51q45 41 60 107q2 10 2 15q0 9 -11 9h-132v78h384q45 0 66 32t21 101v280h94v-279
q0 -80 -20 -121q6 -13 27 -13h104v-78h-110q-53 0 -67 30q-42 -30 -114 -30zM835 -103v-109h-80v109h80zM977 -103v-109h-80v109h80zM906 -256v-100h-78v100h78z" />
    <glyph glyph-name="uni067E064A" unicode="&#xfb58;&#xfef2;" horiz-adv-x="1047" 
d="M978 491v-279q0 -118 -50 -168q-43 -44 -130 -44h-149q-5 -40 -24 -83q-32 -86 -108 -133q-71 -44 -169 -44q-146 0 -231 102q-72 86 -72 211q0 101 46 192l76 -39q-32 -72 -32 -156q0 -109 62 -174q57 -58 149 -58q91 0 147 51q45 41 60 107q2 10 2 15q0 9 -11 9h-132
v78h385q45 0 66 32t21 101v280h94zM835 -212h-80v109h80v-109zM978 -212h-80v109h80v-109zM906 -356h-78v100h78v-100zM317 -466h-80v109h80v-109zM459 -466h-80v109h80v-109z" />
    <glyph glyph-name="uni067E064A.fina" unicode="&#xfb59;&#xfef2;" horiz-adv-x="1068" 
d="M797 0h-148q-5 -40 -24 -83q-32 -86 -108 -133q-71 -44 -169 -44q-146 0 -231 102q-72 86 -72 211q0 101 46 192l76 -39q-32 -72 -32 -156q0 -109 62 -174q57 -58 149 -58q91 0 147 51q45 41 60 107q2 10 2 15q0 9 -11 9h-132v78h384q45 0 66 32t21 101v280h94v-279
q0 -80 -20 -121q6 -13 27 -13h104v-78h-110q-53 0 -67 30q-42 -30 -114 -30zM835 -103v-109h-80v109h80zM977 -103v-109h-80v109h80zM905 -356h-78v100h78v-100zM317 -466h-80v109h80v-109zM459 -466h-80v109h80v-109z" />
    <glyph glyph-name="uni067E0626" unicode="&#xfb58;&#xfe8a;" horiz-adv-x="1047" 
d="M154 508q22 0 40.5 -13t25.5 -32l-39 -17q-9 19 -27 19q-12 0 -19.5 -9.5t-7.5 -24.5q0 -45 42 -45h59v-45h-168v45h31q-13 21 -13 46q0 33 21.5 54.5t54.5 21.5zM978 491v-279q0 -118 -50 -168q-43 -44 -130 -44h-149q-5 -40 -24 -83q-32 -86 -108 -133
q-71 -44 -169 -44q-146 0 -231 102q-72 86 -72 211q0 101 46 192l76 -39q-32 -72 -32 -156q0 -109 62 -174q57 -58 149 -58q91 0 147 51q45 41 60 107q2 10 2 15q0 9 -11 9h-132v78h385q45 0 66 32t21 101v280h94zM835 -212h-80v109h80v-109zM978 -212h-80v109h80v-109z
M906 -356h-78v100h78v-100z" />
    <glyph glyph-name="uni067E0626.fina" unicode="&#xfb59;&#xfe8a;" horiz-adv-x="1068" 
d="M154 508q22 0 40.5 -13t25.5 -32l-39 -17q-9 19 -27 19q-12 0 -19.5 -9.5t-7.5 -24.5q0 -45 42 -45h59v-45h-168v45h31q-13 21 -13 46q0 33 21.5 54.5t54.5 21.5zM797 0h-148q-5 -40 -24 -83q-32 -86 -108 -133q-71 -44 -169 -44q-146 0 -231 102q-72 86 -72 211
q0 101 46 192l76 -39q-32 -72 -32 -156q0 -109 62 -174q57 -58 149 -58q91 0 147 51q45 41 60 107q2 10 2 15q0 9 -11 9h-132v78h384q45 0 66 32t21 101v280h94v-279q0 -80 -20 -121q6 -13 27 -13h104v-78h-110q-53 0 -67 30q-42 -30 -114 -30zM835 -103v-109h-80v109h80z
M977 -103v-109h-80v109h80zM906 -256v-100h-78v100h78z" />
    <glyph glyph-name="uni06440671.fina" unicode="&#xfee0;&#xfb51;" horiz-adv-x="633" 
d="M264 823q40 0 65 -26q20 -22 20 -53q0 -39 -26 -61q-22 -18 -51 -18q-26 0 -78 25q-28 13 -40 13q-19 0 -30 -27l-38 17q24 54 63 54q8 0 18 -3q26 79 97 79zM266 778q-15 0 -29.5 -14t-21.5 -34q36 -20 57 -20q28 0 28 32q0 36 -34 36zM550 714v-502q0 -117 -51 -168
q-43 -44 -130 -44h-325v78h127v487h95v-487h103q44 0 65 32.5t21 100.5v503h95z" />
    <glyph glyph-name="uni064A0626" unicode="&#xfef3;&#xfe8a;" horiz-adv-x="1047" 
d="M154 508q22 0 40.5 -13t25.5 -32l-39 -17q-9 19 -27 19q-12 0 -19.5 -9.5t-7.5 -24.5q0 -45 42 -45h59v-45h-168v45h31q-13 21 -13 46q0 33 21.5 54.5t54.5 21.5zM978 491v-279q0 -118 -50 -168q-43 -44 -130 -44h-149q-5 -40 -24 -83q-32 -86 -108 -133
q-71 -44 -169 -44q-146 0 -231 102q-72 86 -72 211q0 101 46 192l76 -39q-32 -72 -32 -156q0 -109 62 -174q57 -58 149 -58q91 0 147 50q44 41 59 107q0 1 1 5q2 8 2 11q0 9 -11 9h-132v78h385q45 0 66 32t21 101v280h94zM835 -212h-80v109h80v-109zM978 -212h-80v109h80
v-109z" />
    <glyph glyph-name="uni064A0626.fina" unicode="&#xfef4;&#xfe8a;" horiz-adv-x="1068" 
d="M154 508q22 0 40.5 -13t25.5 -32l-39 -17q-9 19 -27 19q-12 0 -19.5 -9.5t-7.5 -24.5q0 -45 42 -45h59v-45h-168v45h31q-13 21 -13 46q0 33 21.5 54.5t54.5 21.5zM797 0h-148q-5 -40 -24 -83q-32 -86 -108 -133q-71 -44 -169 -44q-146 0 -231 102q-72 86 -72 211
q0 101 46 192l76 -39q-32 -72 -32 -156q0 -109 62 -174q57 -58 149 -58q91 0 147 51q45 41 60 107q2 10 2 15q0 9 -11 9h-132v78h384q45 0 66 32t21 101v280h94v-279q0 -80 -20 -121q6 -13 27 -13h104v-78h-110q-53 0 -67 30q-42 -30 -114 -30zM835 -103v-109h-80v109h80z
M977 -103v-109h-80v109h80z" />
    <glyph glyph-name="ff" unicode="ff" horiz-adv-x="561" 
d="M86 431h-53v77h53v67q0 45 7.5 71t24.5 43q15 14 38 19.5t68 5.5h42v-73h-21q-44 0 -55 -15q-9 -14 -9 -59v-59h74v-77h-74v-431h-95v431zM354 431h-50v77h50v67q0 83 32 114q15 14 38 19.5t68 5.5h46v-73h-25q-44 0 -55 -15q-9 -14 -9 -59v-59h93v-77h-93v-431h-95v431z
" />
    <glyph glyph-name="fi" unicode="fi" horiz-adv-x="524" 
d="M86 431h-53v77h53v67q0 45 7.5 71t24.5 43q15 14 38 19.5t68 5.5h46v-73h-25q-44 0 -55 -15q-9 -14 -9 -59v-59h93v-77h-93v-431h-95v431zM360 604v114h95v-114h-95zM360 0v508h95v-508h-95z" />
    <glyph glyph-name="fl" unicode="fl" horiz-adv-x="554" 
d="M86 431h-53v77h53v67q0 45 7.5 71t24.5 43q15 14 38 19.5t68 5.5h46v-73h-25q-44 0 -55 -15q-9 -14 -9 -59v-59h93v-77h-93v-431h-95v431zM359 714h94v-540q0 -56 15.5 -76t59.5 -20h17v-78h-21q-69 0 -102 15q-35 15 -49 52.5t-14 115.5v531z" />
    <glyph glyph-name="ffi" unicode="ffi" horiz-adv-x="792" 
d="M86 431h-53v77h53v67q0 45 7.5 71t24.5 43q15 14 38 19.5t68 5.5h42v-73h-21q-44 0 -55 -15q-9 -14 -9 -59v-59h74v-77h-74v-431h-95v431zM354 431h-50v77h50v67q0 83 32 114q15 14 38 19.5t68 5.5h46v-73h-25q-44 0 -55 -15q-9 -14 -9 -59v-59h93v-77h-93v-431h-95v431z
M628 604v114h95v-114h-95zM628 0v508h95v-508h-95z" />
    <glyph glyph-name="ffl" unicode="ffl" horiz-adv-x="822" 
d="M86 431h-53v77h53v67q0 45 7.5 71t24.5 43q15 14 38 19.5t68 5.5h42v-73h-21q-44 0 -55 -15q-9 -14 -9 -59v-59h74v-77h-74v-431h-95v431zM354 431h-50v77h50v67q0 83 32 114q15 14 38 19.5t68 5.5h46v-73h-25q-44 0 -55 -15q-9 -14 -9 -59v-59h93v-77h-93v-431h-95v431z
M627 714h94v-540q0 -56 15.5 -76t59.5 -20h17v-78h-21q-68 0 -102 15q-35 15 -49 52.5t-14 115.5v531z" />
    <glyph glyph-name="uniFC59" unicode="&#xfef3;&#xfef0;" horiz-adv-x="1047" arabic-form="isolated" 
d="M978 491v-279q0 -118 -50 -168q-43 -44 -130 -44h-149q-5 -40 -24 -83q-32 -86 -108 -133q-71 -44 -169 -44q-146 0 -231 102q-72 86 -72 211q0 101 46 192l76 -39q-32 -72 -32 -156q0 -109 62 -174q57 -58 149 -58q91 0 147 50q44 41 59 107q0 1 1 5q2 8 2 11q0 9 -11 9
h-132v78h385q45 0 66 32t21 101v280h94zM835 -212h-80v109h80v-109zM978 -212h-80v109h80v-109z" />
    <glyph glyph-name="uniFC5A" unicode="&#xfef3;&#xfef2;" horiz-adv-x="1047" arabic-form="isolated" 
d="M978 491v-279q0 -118 -50 -168q-43 -44 -130 -44h-149q-5 -40 -24 -83q-32 -86 -108 -133q-71 -44 -169 -44q-146 0 -231 102q-72 86 -72 211q0 101 46 192l76 -39q-32 -72 -32 -156q0 -109 62 -174q57 -58 149 -58q91 0 147 50q44 41 59 107q0 1 1 5q2 8 2 11q0 9 -11 9
h-132v78h385q45 0 66 32t21 101v280h94zM835 -212h-80v109h80v-109zM978 -212h-80v109h80v-109zM317 -466h-80v109h80v-109zM459 -466h-80v109h80v-109z" />
    <glyph glyph-name="uniFC95" unicode="&#xfef4;&#xfef0;" horiz-adv-x="1068" arabic-form="final" 
d="M797 0h-148q-5 -40 -24 -83q-32 -86 -108 -133q-71 -44 -169 -44q-146 0 -231 102q-72 86 -72 211q0 101 46 192l76 -39q-32 -72 -32 -156q0 -109 62 -174q57 -58 149 -58q91 0 147 51q45 41 60 107q2 10 2 15q0 9 -11 9h-132v78h384q45 0 66 32t21 101v280h94v-279
q0 -80 -20 -121q6 -13 27 -13h104v-78h-110q-53 0 -67 30q-42 -30 -114 -30zM835 -103v-109h-80v109h80zM977 -103v-109h-80v109h80z" />
    <glyph glyph-name="uniFC96" unicode="&#xfef4;&#xfef2;" horiz-adv-x="1068" arabic-form="final" 
d="M797 0h-148q-5 -40 -24 -83q-32 -86 -108 -133q-71 -44 -169 -44q-146 0 -231 102q-72 86 -72 211q0 101 46 192l76 -39q-32 -72 -32 -156q0 -109 62 -174q57 -58 149 -58q91 0 147 51q45 41 60 107q2 10 2 15q0 9 -11 9h-132v78h384q45 0 66 32t21 101v280h94v-279
q0 -80 -20 -121q6 -13 27 -13h104v-78h-110q-53 0 -67 30q-42 -30 -114 -30zM835 -103v-109h-80v109h80zM977 -103v-109h-80v109h80zM317 -466h-80v109h80v-109zM459 -466h-80v109h80v-109z" />
    <glyph glyph-name="uniFDF2" unicode="&#x627;&#xfedf;&#xfee0;&#xfeea;" horiz-adv-x="1166" arabic-form="isolated" 
d="M745 889h-50v167h50v-167zM850 829v-83q0 -85 -83 -85q-28 0 -48 17q-18 -17 -47 -17q-84 0 -84 85v83h50v-91q0 -32 28 -32t28 32v76h50v-76q0 -14 7.5 -23t20.5 -9q28 0 28 32v91h50zM1097 557v-345q0 -117 -51 -168q-43 -44 -130 -44h-149q-53 0 -67 30
q-42 -30 -114 -30h-73q-100 2 -142 64q-64 -40 -131 -40q-100 0 -143 58q-38 52 -38 154v54q0 212 178 212q53 0 98 -19v39h94v-311q0 -74 25 -106q21 -27 62 -27h70q44 0 65 32.5t21 100.5v346h95v-345q0 -74 -26 -121q5 -13 27 -13h148q44 0 65 32.5t21 100.5v346h95z
M248 102q51 0 93 33q-7 29 -7 69v197q-37 23 -88 23q-49 0 -71 -31.5t-22 -101.5v-56q0 -75 26 -106q23 -27 69 -27z" />
    <glyph glyph-name="uniFEF5" unicode="&#xfedf;&#xfe82;" horiz-adv-x="633" arabic-form="isolated" 
d="M178 739q17 0 55 -21q20 -11 29 -11q15 0 27 27l39 -18q-26 -51 -66 -51q-18 0 -45 16q-22 14 -35 14q-20 0 -32 -27l-37 18q25 53 65 53zM541 714v-502q0 -117 -50 -168q-44 -44 -130 -44h-317v78h127v487h94v-487h95q45 0 66 32t21 101v503h94z" />
    <glyph glyph-name="uniFEF6" unicode="&#xfee0;&#xfe82;" horiz-adv-x="632" arabic-form="final" 
d="M178 739q17 0 55 -21q20 -11 29 -11q15 0 27 27l39 -18q-26 -51 -66 -51q-18 0 -45 16q-22 14 -35 14q-20 0 -32 -27l-37 18q25 53 65 53zM651 0h-110q-52 0 -66 30q-40 -30 -114 -30h-317v78h127v487h94v-487h95q45 0 66 32t21 101v503h94v-502q0 -81 -21 -122
q6 -12 27 -12h104v-78z" />
    <glyph glyph-name="uniFEF7" unicode="&#xfedf;&#xfe84;" horiz-adv-x="633" arabic-form="isolated" 
d="M230 836q22 0 40.5 -13t25.5 -32l-39 -17q-9 19 -27 19q-12 0 -19.5 -9.5t-7.5 -24.5q0 -45 42 -45h59v-45h-168v45h31q-13 21 -13 46q0 33 21.5 54.5t54.5 21.5zM541 714v-502q0 -117 -50 -168q-44 -44 -130 -44h-317v78h127v487h94v-487h95q45 0 66 32t21 101v503h94z
" />
    <glyph glyph-name="uniFEF8" unicode="&#xfee0;&#xfe84;" horiz-adv-x="632" arabic-form="final" 
d="M230 836q22 0 40.5 -13t25.5 -32l-39 -17q-9 19 -27 19q-12 0 -19.5 -9.5t-7.5 -24.5q0 -45 42 -45h59v-45h-168v45h31q-13 21 -13 46q0 33 21.5 54.5t54.5 21.5zM651 0h-110q-52 0 -66 30q-40 -30 -114 -30h-317v78h127v487h94v-487h95q45 0 66 32t21 101v503h94v-502
q0 -81 -21 -122q6 -12 27 -12h104v-78z" />
    <glyph glyph-name="uniFEF9" unicode="&#xfedf;&#xfe88;" horiz-adv-x="633" arabic-form="isolated" 
d="M541 714v-502q0 -117 -50 -168q-44 -44 -130 -44h-317v78h127v487h94v-487h95q45 0 66 32t21 101v503h94zM225 -97q22 0 40.5 -13t25.5 -33l-39 -16q-9 19 -27 19q-11 0 -19 -10t-8 -24q0 -44 42 -46h59v-44h-168v44h31q-13 21 -13 47q0 33 21.5 54.5t54.5 21.5z" />
    <glyph glyph-name="uniFEFA" unicode="&#xfee0;&#xfe88;" horiz-adv-x="632" arabic-form="final" 
d="M651 0h-110q-52 0 -66 30q-40 -30 -114 -30h-317v78h127v487h94v-487h95q45 0 66 32t21 101v503h94v-502q0 -81 -21 -122q6 -12 27 -12h104v-78zM225 -97q22 0 40.5 -13t25.5 -33l-39 -16q-9 19 -27 19q-11 0 -19 -10t-8 -24q0 -44 42 -46h59v-44h-168v44h31
q-13 21 -13 47q0 33 21.5 54.5t54.5 21.5z" />
    <glyph glyph-name="uniFEFB" unicode="&#xfedf;&#xfe8e;" horiz-adv-x="633" arabic-form="isolated" 
d="M541 714v-502q0 -117 -50 -168q-44 -44 -130 -44h-317v78h127v487h94v-487h95q45 0 66 32t21 101v503h94z" />
    <glyph glyph-name="uniFEFC" unicode="&#xfee0;&#xfe8e;" horiz-adv-x="632" arabic-form="final" 
d="M651 0h-110q-52 0 -66 30q-40 -30 -114 -30h-317v78h127v487h94v-487h95q45 0 66 32t21 101v503h94v-502q0 -81 -21 -122q6 -12 27 -12h104v-78z" />
    <glyph glyph-name="uniFB51" unicode="&#x671;" horiz-adv-x="261" arabic-form="final" 
d="M169 909q40 0 65 -26q20 -22 20 -53q0 -39 -26 -61q-22 -18 -51 -18q-26 0 -78 25q-28 13 -40 13q-19 0 -30 -27l-38 17q24 54 63 54q8 0 18 -3q26 79 97 79zM171 864q-15 0 -29.5 -14t-21.5 -34q36 -20 57 -20q28 0 28 32q0 36 -34 36zM163 654v-443q0 -74 25 -106
q21 -27 62 -27h29v-78h-30q-98 0 -141 58q-39 51 -39 154v442h94z" />
    <glyph glyph-name="uniFB57" unicode="&#x67e;" horiz-adv-x="840" arabic-form="final" 
d="M860 0h-110q-53 0 -67 30q-42 -30 -114 -30h-297q-115 0 -178 78q-50 62 -50 145q0 124 70 214l77 -35q-26 -33 -41 -78t-15 -89q0 -74 46 -116q45 -41 122 -41h265q45 0 66 32t21 101v280h94v-279q0 -80 -20 -121q6 -13 27 -13h104v-78zM383 -212h-80v109h80v-109z
M525 -212h-80v109h80v-109zM453 -356h-78v100h78v-100z" />
    <glyph glyph-name="uniFB58" unicode="&#x67e;" horiz-adv-x="312" arabic-form="initial" 
d="M242 491v-279q0 -118 -50 -168q-43 -44 -130 -44h-62v78h61q45 0 66 32t21 101v280h94zM100 -212h-80v109h80v-109zM242 -212h-80v109h80v-109zM170 -356h-78v100h78v-100z" />
    <glyph glyph-name="uniFB59" unicode="&#x67e;" horiz-adv-x="333" arabic-form="medial" 
d="M353 0h-110q-53 0 -67 30q-42 -30 -114 -30h-62v78h61q45 0 66 32t21 101v280h94v-279q0 -80 -20 -121q6 -13 27 -13h104v-78zM101 -212h-80v109h80v-109zM243 -212h-80v109h80v-109zM171 -356h-78v100h78v-100z" />
    <glyph glyph-name="uniFB67" unicode="&#x679;" horiz-adv-x="840" arabic-form="final" 
d="M389 778v-72q29 31 67 31q49 0 71 -36q14 -23 14 -52q0 -78 -83 -78h-149v44h31l-1 163h50zM455 694q-23 0 -42 -22.5t-24 -56.5h77q11 0 18 8.5t7 21.5q0 49 -36 49zM860 0h-110q-53 0 -67 30q-42 -30 -114 -30h-297q-115 0 -178 78q-50 62 -50 145q0 124 70 214l77 -35
q-26 -33 -41 -78t-15 -89q0 -74 46 -116q45 -41 122 -41h265q45 0 66 32t21 101v280h94v-279q0 -80 -20 -121q6 -13 27 -13h104v-78z" />
    <glyph glyph-name="uniFB68" unicode="&#x679;" horiz-adv-x="312" arabic-form="initial" 
d="M155 802v-72q29 31 67 31q49 0 71 -36q14 -23 14 -52q0 -78 -83 -78h-149v44h31l-1 163h50zM221 718q-23 0 -42 -22.5t-24 -56.5h77q11 0 18 8.5t7 21.5q0 49 -36 49zM242 491v-279q0 -118 -50 -168q-43 -44 -130 -44h-62v78h61q45 0 66 32t21 101v280h94z" />
    <glyph glyph-name="uniFB69" unicode="&#x679;" horiz-adv-x="333" arabic-form="medial" 
d="M155 802v-72q29 31 67 31q49 0 71 -36q14 -23 14 -52q0 -78 -83 -78h-149v44h31l-1 163h50zM221 718q-23 0 -42 -22.5t-24 -56.5h77q11 0 18 8.5t7 21.5q0 49 -36 49zM353 0h-110q-53 0 -67 30q-42 -30 -114 -30h-62v78h61q45 0 66 32t21 101v280h94v-279q0 -80 -20 -121
q6 -13 27 -13h104v-78z" />
    <glyph glyph-name="uniFB6B" unicode="&#x6a4;" horiz-adv-x="927" arabic-form="final" 
d="M702 748h-78v99h78v-99zM631 595h-80v109h80v-109zM774 595h-80v109h80v-109zM947 0h-207q-47 0 -78 16q-31 -16 -77 -16h-313q-115 0 -178 78q-50 62 -50 145q0 124 70 214l77 -35q-26 -33 -41 -78t-15 -88q0 -75 46 -117q44 -41 122 -41h260q-94 90 -94 221
q0 94 54 150q51 53 138 53q100 0 151 -68q41 -54 41 -135q0 -130 -94 -221h188v-78zM661 424q-50 0 -77 -44q-21 -35 -21 -89q0 -113 98 -198q98 84 98 198q0 62 -28 99q-26 34 -70 34z" />
    <glyph glyph-name="uniFB6C" unicode="&#x6a4;" horiz-adv-x="576" arabic-form="initial" 
d="M372 748h-78v99h78v-99zM301 595h-80v109h80v-109zM444 595h-80v109h80v-109zM333 502q103 0 146 -58q38 -50 38 -154v-78q0 -118 -50 -168q-44 -44 -134 -44h-333v78h184q-37 43 -37 134v78q0 118 51 168q44 44 135 44zM423 211v80q0 76 -24 106q-21 27 -67 27
q-51 0 -72 -35q-18 -31 -18 -98v-80q0 -75 24 -106q21 -27 66 -27q52 0 73 36q18 31 18 97z" />
    <glyph glyph-name="uniFB6D" unicode="&#x6a4;" horiz-adv-x="583" arabic-form="medial" 
d="M358 748h-78v99h78v-99zM287 595h-80v109h80v-109zM430 595h-80v109h80v-109zM317 502q100 0 151 -68q41 -54 41 -135q0 -130 -94 -221h188v-78h-207q-47 0 -78 16q-31 -16 -77 -16h-241v78h219q-94 90 -94 221q0 94 54 150q51 53 138 53zM317 424q-50 0 -77 -44
q-21 -35 -21 -89q0 -113 98 -198q98 84 98 198q0 62 -28 99q-26 34 -70 34z" />
    <glyph glyph-name="uniFB7B" unicode="&#x686;" horiz-adv-x="577" arabic-form="final" 
d="M266 502q140 0 185 -114q15 -40 28 -145q7 -62 15.5 -91t22.5 -46q24 -28 73 -28h7v-78h-284q-83 0 -131 -46q-44 -42 -44 -116q0 -71 41 -115q33 -33 85 -46q1 0 4 -1q27 -6 39 -6l30 -78q-5 -1 -18 -1q-111 0 -186 55q-89 65 -89 191q0 123 86 187q72 54 185 54h119
q-22 24 -32 58.5t-21 128.5q-5 45 -11 67q-12 44 -38 68q-27 24 -66 24q-30 0 -54.5 -17.5t-37.5 -47.5l-85 24q20 61 74 93q45 26 103 26zM377 -188h-62v88h62v-88zM496 -188h-62v88h62v-88zM434 -307h-58v80h58v-80z" />
    <glyph glyph-name="uniFB7C" unicode="&#x686;" horiz-adv-x="652" arabic-form="initial" 
d="M0 78h451q-22 24 -32 58.5t-21 128.5q-5 45 -11 67q-12 44 -38 68q-27 24 -66 24q-31 0 -55.5 -17.5t-36.5 -47.5l-86 24q21 62 75 93q45 26 103 26q139 0 184 -114q16 -40 28 -145q8 -62 16 -91t23 -46q24 -28 73 -28h2v-78h-609v78zM258 -212h-80v109h80v-109z
M400 -212h-80v109h80v-109zM328 -356h-78v100h78v-100z" />
    <glyph glyph-name="uniFB7D" unicode="&#x686;" horiz-adv-x="595" arabic-form="medial" 
d="M0 78h451q-22 24 -32 58.5t-21 128.5q-5 45 -11 67q-12 44 -38 68q-27 24 -66 24q-31 0 -55.5 -17.5t-36.5 -47.5l-86 24q21 62 75 93q45 26 103 26q139 0 184 -114q16 -40 28 -145q8 -62 16 -91t23 -46q24 -28 73 -28h8v-78h-615v78zM258 -212h-80v109h80v-109z
M400 -212h-80v109h80v-109zM328 -356h-78v100h78v-100z" />
    <glyph glyph-name="uniFB89" unicode="&#x688;" horiz-adv-x="477" arabic-form="final" 
d="M220 802v-72q29 31 67 31q49 0 71 -36q14 -23 14 -52q0 -78 -83 -78h-149v44h31l-1 163h50zM286 718q-23 0 -42 -22.5t-24 -56.5h77q11 0 18 8.5t7 21.5q0 49 -36 49zM496 0h-95q-52 0 -66 30q-40 -30 -114 -30h-177v78h176q87 0 87 129q0 107 -45 161q-40 48 -121 56
l25 78q235 -30 235 -290q0 -77 -20 -122q6 -12 27 -12h88v-78z" />
    <glyph glyph-name="uniFB8B" unicode="&#x698;" horiz-adv-x="324" arabic-form="final" 
d="M227 748h-78v99h78v-99zM156 595h-80v109h80v-109zM299 595h-80v109h80v-109zM343 0h-78q-17 0 -29 3v-12q0 -96 -21 -149q-37 -102 -154 -102q-48 0 -96 20l20 74q30 -15 69 -15q48 0 67.5 37t19.5 128v507h95v-408q8 -5 23 -5h84v-78z" />
    <glyph glyph-name="uniFB8D" unicode="&#x691;" horiz-adv-x="324" arabic-form="final" 
d="M149 802v-72q29 31 67 31q49 0 71 -36q14 -23 14 -52q0 -78 -83 -78h-149v44h31l-1 163h50zM215 718q-23 0 -42 -22.5t-24 -56.5h77q11 0 18 8.5t7 21.5q0 49 -36 49zM343 0h-78q-17 0 -29 3v-12q0 -96 -21 -149q-37 -102 -154 -102q-48 0 -96 20l20 74q30 -15 69 -15
q48 0 67.5 37t19.5 128v507h95v-408q8 -5 23 -5h84v-78z" />
    <glyph glyph-name="uniFB8F" unicode="&#x6a9;" horiz-adv-x="838" arabic-form="final" 
d="M858 0h-110q-52 0 -66 30q-43 -30 -118 -30h-292q-115 0 -178 78q-50 62 -50 145q0 124 70 214l77 -35q-26 -33 -41 -78t-15 -89q0 -74 46 -116q45 -41 122 -41h260q48 0 69.5 31.5t21.5 101.5v70q0 75 -25 105q-21 27 -66 27h-212v36q0 24 6 38.5t27 39.5l147 187h106
l-177 -223h104q103 0 146 -57q38 -51 38 -154v-68q0 -81 -20 -122q6 -12 27 -12h103v-78z" />
    <glyph glyph-name="uniFB90" unicode="&#x6a9;" horiz-adv-x="561" arabic-form="initial" 
d="M214 491h103q103 0 147 -57q38 -51 38 -154v-68q0 -118 -50 -168q-45 -44 -135 -44h-317v78h317q48 0 69.5 31.5t21.5 101.5v70q0 75 -25 105q-21 27 -66 27h-212v36q0 24 6 38.5t27 39.5l147 187h105z" />
    <glyph glyph-name="uniFB91" unicode="&#x6a9;" horiz-adv-x="593" arabic-form="medial" 
d="M612 0h-110q-52 0 -67 30q-42 -30 -118 -30h-317v78h317q48 0 69.5 31.5t21.5 101.5v70q0 75 -25 105q-21 27 -66 27h-212v36q0 24 6 38.5t27 39.5l147 187h105l-176 -223h103q103 0 147 -57q38 -51 38 -154v-68q0 -81 -21 -122q6 -12 27 -12h104v-78z" />
    <glyph glyph-name="uniFB93" unicode="&#x6af;" horiz-adv-x="943" arabic-form="final" 
d="M962 0h-110q-53 0 -66 30q-41 -30 -117 -30h-397q-115 0 -178 78q-50 62 -50 145q0 124 70 214l77 -35q-26 -33 -41 -78t-15 -89q0 -74 46 -116q45 -41 122 -41h365q48 0 69.5 31.5t21.5 101.5v70q0 75 -25 105q-21 27 -66 27h-212v36q0 24 6 38.5t27 39.5l147 187h106
l-177 -223h104q103 0 146 -57q38 -51 38 -154v-68q0 -81 -22 -128q5 -6 22 -6h109v-78zM289 490l177 224h58l-178 -224h-57z" />
    <glyph glyph-name="uniFB94" unicode="&#x6af;" horiz-adv-x="738" arabic-form="initial" 
d="M391 491l104 1q103 0 146 -58q38 -50 38 -154v-68q0 -118 -50 -168q-44 -44 -134 -44h-495v78l494 1q52 0 73 35q18 31 18 98v69q0 76 -24 106q-21 27 -67 27l-212 -1v36q0 24 6 38.5t27 40.5l147 186h106zM173 491h-57l177 223h58z" />
    <glyph glyph-name="uniFB95" unicode="&#x6af;" horiz-adv-x="770" arabic-form="medial" 
d="M789 79v-79h-110q-53 0 -66 30q-43 -30 -118 -30h-495v78l494 1q52 0 73 35q18 31 18 98v69q0 76 -24 106q-21 27 -67 27l-212 -1v36q0 24 6 38.5t27 40.5l147 186h106l-177 -223l104 1q103 0 146 -58q38 -50 38 -154v-68q0 -80 -22 -127q6 -6 23 -6h109zM173 491h-57
l177 223h58z" />
    <glyph glyph-name="uniFB9F" unicode="&#x6ba;" horiz-adv-x="688" arabic-form="final" 
d="M708 0h-78q-17 0 -31 3q-12 -133 -89 -201q-72 -62 -190 -62q-127 0 -205 86q-71 79 -71 204q0 148 69 256l77 -36q-56 -99 -56 -209q0 -115 63 -175q50 -48 124 -48q90 0 140 62q46 57 46 156v455h94v-408q9 -5 23 -5h84v-78z" />
    <glyph glyph-name="uniFBA7" unicode="&#x6c1;" horiz-adv-x="779" arabic-form="final" 
d="M499 502q103 0 147 -58q38 -50 38 -154v-79q0 -133 85 -133h30v-79h-31q-97 0 -140 58q-39 51 -39 154v80q0 76 -24 106q-21 27 -67 27q-48 0 -69 -31t-21 -102v-80q0 -75 24 -106q22 -27 66 -27v-78h-226q-115 0 -178 78q-50 62 -50 145q0 124 70 214l77 -35
q-26 -33 -41 -78t-15 -89q0 -69 41 -111q39 -41 108 -45h64q-34 43 -34 133v78q0 118 50 168q44 44 135 44z" />
    <glyph glyph-name="uniFBA8" unicode="&#x6c1;" horiz-adv-x="348" arabic-form="initial" 
d="M279 491v-279q0 -150 -85 -193l-95 -122h20v-113h-94v113l62 103h-87v78h98q44 0 65 32.5t21 100.5v280h95z" />
    <glyph glyph-name="uniFBA9" unicode="&#x6c1;" horiz-adv-x="477" arabic-form="medial" 
d="M133 103q5 0 5 -5q0 -2 -1 -4q-18 -55 -18 -138q0 -71 29 -108q23 -30 61 -30q46 0 67 44t23 144v4q3 68 80 68h117v-78h-89q-11 0 -14.5 -3.5t-3.5 -14.5q0 -117 -46 -179q-46 -63 -135 -63q-92 0 -138 70q-36 54 -36 134q0 16 4 56h-38v78h11q47 0 69 4.5t47 18.5
q4 2 6 2z" />
    <glyph glyph-name="uniFBAB" unicode="&#x6be;" horiz-adv-x="800" arabic-form="final" 
d="M820 0h-96q-53 0 -66 30q-42 -30 -114 -30h-158q-53 0 -80 16q-27 -16 -80 -16h-182v78h166q-57 56 -57 147q0 70 39 115q35 39 90 47l29 81q68 34 151 34q134 0 204 -92q58 -76 58 -197q0 -81 -22 -129q5 -6 23 -6h95v-78zM404 78h139q87 0 87 128q0 106 -50 164
q-47 54 -129 54q-77 0 -156 -35h11q75 0 118 -53q37 -44 37 -111q0 -90 -57 -147zM307 88q36 11 59 55q19 37 19 75q0 47 -21 78q-21 30 -57 30t-57 -29t-21 -79q0 -45 24 -84q22 -37 54 -46z" />
    <glyph glyph-name="uniFBAC" unicode="&#x6be;" horiz-adv-x="740" arabic-form="initial" 
d="M434 502q134 0 204 -92q58 -76 58 -197q0 -118 -49 -168q-43 -45 -131 -45h-158q-53 0 -80 16q-27 -16 -80 -16h-198v78h182q-57 56 -57 147q0 70 39 115q35 39 90 47l29 81q68 34 151 34zM376 78h139q87 0 87 128q0 106 -50 164q-47 54 -129 54q-77 0 -156 -35h11
q75 0 118 -53q37 -44 37 -111q0 -90 -57 -147zM279 88q36 11 59 55q19 37 19 75q0 47 -21 78q-21 30 -57 30t-57 -29t-21 -79q0 -45 24 -84q22 -37 54 -46z" />
    <glyph glyph-name="uniFBAD" unicode="&#x6be;" horiz-adv-x="772" arabic-form="medial" 
d="M792 0h-96q-53 0 -66 30q-42 -30 -114 -30h-158q-53 0 -80 16q-27 -16 -80 -16h-198v78h182q-57 56 -57 147q0 70 39 115q35 39 90 47l29 81q68 34 151 34q134 0 204 -92q58 -76 58 -197q0 -81 -22 -129q6 -6 23 -6h95v-78zM376 78h139q87 0 87 128q0 106 -50 164
q-47 54 -129 54q-77 0 -156 -35h11q75 0 118 -53q37 -44 37 -111q0 -90 -57 -147zM279 88q36 11 59 55q19 37 19 75q0 47 -21 78q-21 30 -57 30t-57 -29t-21 -79q0 -45 24 -84q22 -37 54 -46z" />
    <glyph glyph-name="uniFBAF" unicode="&#x6d2;" horiz-adv-x="531" arabic-form="final" 
d="M44 -163q0 123 86 187q72 54 185 54h236v-78h-238q-83 0 -131 -46q-44 -42 -44 -116q0 -95 72 -139q50 -30 121 -30q69 0 136 35l21 -74q-69 -40 -171 -40q-112 0 -187 58q-85 65 -86 189z" />
    <glyph glyph-name="uniFBB1" unicode="&#x6d3;" horiz-adv-x="531" arabic-form="final" 
d="M260 349q22 0 40.5 -13t25.5 -32l-39 -17q-9 19 -27 19q-12 0 -19.5 -9.5t-7.5 -24.5q0 -45 42 -45h59v-45h-168v45h31q-13 21 -13 46q0 33 21.5 54.5t54.5 21.5zM44 -163q0 123 86 187q72 54 185 54h236v-78h-238q-83 0 -131 -46q-44 -42 -44 -116q0 -95 72 -139
q50 -30 121 -30q69 0 136 35l21 -74q-69 -40 -171 -40q-112 0 -187 58q-85 65 -86 189z" />
    <glyph glyph-name="uniFBFD" unicode="&#x6cc;" horiz-adv-x="661" arabic-form="final" 
d="M91 245l76 -39q-32 -72 -32 -156q0 -109 62 -174q57 -58 149 -58q91 0 147 51q45 41 60 107q2 10 2 15q0 9 -11 9h-132v78h269v-78h-33q-3 -38 -23 -83q-32 -86 -108 -133q-71 -44 -169 -44q-146 0 -231 102q-72 86 -72 211q0 101 46 192zM317 -466h-80v109h80v-109z
M459 -466h-80v109h80v-109zM387 -610h-78v100h78v-100z" />
    <glyph glyph-name="uniFBFE" unicode="&#x6cc;" horiz-adv-x="312" arabic-form="initial" 
d="M242 491v-279q0 -118 -50 -168q-43 -44 -130 -44h-62v78h61q45 0 66 32t21 101v280h94zM100 -212h-80v109h80v-109zM242 -212h-80v109h80v-109zM170 -356h-78v100h78v-100z" />
    <glyph glyph-name="uniFBFF" unicode="&#x6cc;" horiz-adv-x="333" arabic-form="medial" 
d="M353 0h-110q-53 0 -67 30q-42 -30 -114 -30h-62v78h61q45 0 66 32t21 101v280h94v-279q0 -80 -20 -121q6 -13 27 -13h104v-78zM101 -212h-80v109h80v-109zM243 -212h-80v109h80v-109zM171 -356h-78v100h78v-100z" />
    <glyph glyph-name="uniFC5E" unicode="&#xfc5e;" horiz-adv-x="0" arabic-form="isolated" 
d="M50 988q40 0 62 -28q18 -23 18 -53q-1 -49 -37 -78q-29 -24 -69 -24q-37 0 -80 18q-15 6 -20 6q-10 0 -21 -17l-37 23q14 23 26 31.5t28 8.5q11 0 35 -11q23 -11 38 -14q-20 23 -20 56q0 36 22 60q22 22 55 22zM51 946q-13 0 -21 -11t-8 -29q0 -36 29 -51q13 5 21.5 19.5
t8.5 33.5q0 17 -8.5 27.5t-21.5 10.5zM130 736v-83q0 -85 -83 -85q-28 0 -48 17q-18 -17 -47 -17q-84 0 -84 85v83h50v-91q0 -32 28 -32t28 32v76h50v-76q0 -14 7.5 -23t20.5 -9q28 0 28 32v91h50z" />
    <glyph glyph-name="uniFC5F" unicode="&#xfc5f;" horiz-adv-x="0" arabic-form="isolated" 
d="M134 947v-83q0 -85 -83 -85q-28 0 -48 17q-18 -17 -47 -17q-84 0 -84 85v83h50v-91q0 -32 28 -32t28 32v76h50v-76q0 -14 7.5 -23t20.5 -9q28 0 28 32v91h50zM88 663h-168v45h168v-45zM88 560h-168v45h168v-45z" />
    <glyph glyph-name="uniFC60" unicode="&#xfc60;" horiz-adv-x="0" arabic-form="isolated" 
d="M85 807h-168v45h168v-45zM130 736v-83q0 -85 -83 -85q-28 0 -48 17q-18 -17 -47 -17q-84 0 -84 85v83h50v-91q0 -32 28 -32t28 32v76h50v-76q0 -14 7.5 -23t20.5 -9q28 0 28 32v91h50z" />
    <glyph glyph-name="uniFC61" unicode="&#xfc61;" horiz-adv-x="0" arabic-form="isolated" 
d="M40 1016q40 0 62 -30q18 -23 18 -55q-2 -41 -23 -64q-19 -19 -66 -38q-71 -27 -128 -39l-15 40q68 18 105 34q-31 24 -31 69q0 37 23 61q22 22 55 22zM40 974q-12 0 -20 -12t-8 -30q0 -35 29 -49q13 4 21 18.5t8 32.5t-8 29t-22 11zM133 731v-83q0 -85 -83 -85
q-28 0 -48 17q-18 -17 -47 -17q-84 0 -84 85v83h50v-91q0 -32 28 -32t28 32v76h50v-76q0 -14 7.5 -23t20.5 -9q28 0 28 32v91h50z" />
    <glyph glyph-name="uniFC62" unicode="&#xfc62;" horiz-adv-x="0" arabic-form="isolated" 
d="M129 847v-83q0 -85 -83 -85q-28 0 -48 17q-18 -17 -47 -17q-84 0 -84 85v83h50v-91q0 -32 28 -32t28 32v76h50v-76q0 -14 7.5 -23t20.5 -9q28 0 28 32v91h50zM83 564h-168v45h168v-45z" />
    <glyph glyph-name="uniFC63" unicode="&#xfc63;" horiz-adv-x="0" arabic-form="isolated" 
d="M23 800h-50v167h50v-167zM128 740v-83q0 -85 -83 -85q-28 0 -48 17q-18 -17 -47 -17q-84 0 -84 85v83h50v-91q0 -32 28 -32t28 32v76h50v-76q0 -15 7.5 -23.5t20.5 -8.5q28 0 28 32v91h50z" />
    <glyph glyph-name="uniFE82" unicode="&#x622;" horiz-adv-x="259" arabic-form="final" 
d="M74 826q17 0 55 -21q20 -11 29 -11q15 0 27 27l39 -18q-26 -51 -66 -51q-18 0 -45 16q-22 14 -35 14q-20 0 -32 -27l-37 18q25 53 65 53zM163 654v-443q0 -74 25 -106q21 -27 62 -27h29v-78h-30q-98 0 -141 58q-39 51 -39 154v442h94z" />
    <glyph glyph-name="uniFE84" unicode="&#x623;" horiz-adv-x="259" arabic-form="final" 
d="M128 923q22 0 40.5 -13t25.5 -32l-39 -17q-9 19 -27 19q-12 0 -19.5 -9.5t-7.5 -24.5q0 -45 42 -45h59v-45h-168v45h31q-13 21 -13 46q0 33 21.5 54.5t54.5 21.5zM163 654v-443q0 -74 25 -106q21 -27 62 -27h29v-78h-30q-98 0 -141 58q-39 51 -39 154v442h94z" />
    <glyph glyph-name="uniFE86" unicode="&#x624;" horiz-adv-x="514" arabic-form="final" 
d="M250 762q22 0 40.5 -13t25.5 -32l-39 -17q-9 19 -27 19q-12 0 -19.5 -9.5t-7.5 -24.5q0 -45 42 -45h59v-45h-168v45h31q-13 21 -13 46q0 33 21.5 54.5t54.5 21.5zM241 502q103 0 147 -58q38 -50 38 -154v-212h107v-78h-107q-1 -78 -12.5 -123.5t-40.5 -79.5
q-47 -57 -139 -57q-83 0 -146 30l20 74q53 -25 109 -25q67 0 93 46q21 36 22 110v25h-101q-175 0 -175 211v79q0 118 50 168q44 44 135 44zM241 424q-51 0 -72 -35q-18 -31 -18 -98v-80q0 -75 24 -106q21 -27 66 -27h91v213q0 76 -24 106q-21 27 -67 27z" />
    <glyph glyph-name="uniFE88" unicode="&#x625;" horiz-adv-x="259" arabic-form="final" 
d="M163 715v-504q0 -74 25 -106q21 -27 62 -27h29v-78h-30q-98 0 -141 58q-39 51 -39 154v503h94zM105 -65q22 0 40.5 -13t25.5 -33l-39 -16q-9 19 -27 19q-11 0 -19 -10t-8 -24q0 -44 42 -46h59v-44h-168v44h31q-13 21 -13 47q0 33 21.5 54.5t54.5 21.5z" />
    <glyph glyph-name="uniFE8A" unicode="&#x626;" horiz-adv-x="661" arabic-form="final" 
d="M154 508q22 0 40.5 -13t25.5 -32l-39 -17q-9 19 -27 19q-12 0 -19.5 -9.5t-7.5 -24.5q0 -45 42 -45h59v-45h-168v45h31q-13 21 -13 46q0 33 21.5 54.5t54.5 21.5zM91 245l76 -39q-32 -72 -32 -156q0 -109 62 -174q57 -58 149 -58q91 0 147 51q45 41 60 107q2 10 2 15
q0 9 -11 9h-132v78h269v-78h-33q-3 -38 -23 -83q-32 -86 -108 -133q-71 -44 -169 -44q-146 0 -231 102q-72 86 -72 211q0 101 46 192z" />
    <glyph glyph-name="uniFE8B" unicode="&#x626;" horiz-adv-x="312" arabic-form="initial" 
d="M205 762q22 0 40.5 -13t25.5 -32l-39 -17q-9 19 -27 19q-12 0 -19.5 -9.5t-7.5 -24.5q0 -45 42 -45h59v-45h-168v45h31q-13 21 -13 46q0 33 21.5 54.5t54.5 21.5zM242 491v-279q0 -118 -50 -168q-43 -44 -130 -44h-62v78h61q45 0 66 32t21 101v280h94z" />
    <glyph glyph-name="uniFE8C" unicode="&#x626;" horiz-adv-x="333" arabic-form="medial" 
d="M205 762q22 0 40.5 -13t25.5 -32l-39 -17q-9 19 -27 19q-12 0 -19.5 -9.5t-7.5 -24.5q0 -45 42 -45h59v-45h-168v45h31q-13 21 -13 46q0 33 21.5 54.5t54.5 21.5zM353 0h-110q-53 0 -67 30q-42 -30 -114 -30h-62v78h61q45 0 66 32t21 101v280h94v-279q0 -80 -20 -121
q6 -13 27 -13h104v-78z" />
    <glyph glyph-name="uniFE8E" unicode="&#x627;" horiz-adv-x="259" arabic-form="final" 
d="M163 715v-504q0 -74 25 -106q21 -27 62 -27h29v-78h-30q-98 0 -141 58q-39 51 -39 154v503h94z" />
    <glyph glyph-name="uniFE90" unicode="&#x628;" horiz-adv-x="840" arabic-form="final" 
d="M860 0h-110q-53 0 -67 30q-42 -30 -114 -30h-297q-115 0 -178 78q-50 62 -50 145q0 124 70 214l77 -35q-26 -33 -41 -78t-15 -89q0 -74 46 -116q45 -41 122 -41h265q45 0 66 32t21 101v280h94v-279q0 -80 -20 -121q6 -13 27 -13h104v-78zM460 -216h-94v113h94v-113z" />
    <glyph glyph-name="uniFE91" unicode="&#x628;" horiz-adv-x="312" arabic-form="initial" 
d="M242 491v-279q0 -118 -50 -168q-43 -44 -130 -44h-62v78h61q45 0 66 32t21 101v280h94zM185 -216h-94v113h94v-113z" />
    <glyph glyph-name="uniFE92" unicode="&#x628;" horiz-adv-x="333" arabic-form="medial" 
d="M353 0h-110q-53 0 -67 30q-42 -30 -114 -30h-62v78h61q45 0 66 32t21 101v280h94v-279q0 -80 -20 -121q6 -13 27 -13h104v-78zM209 -216h-94v113h94v-113z" />
    <glyph glyph-name="uniFE94" unicode="&#x629;" horiz-adv-x="522" arabic-form="final" 
d="M232 604h-80v109h80v-109zM375 604h-80v109h80v-109zM429 522v-311q0 -74 25 -106q21 -27 62 -27h28v-78h-29q-102 0 -144 64q-64 -40 -131 -40q-100 0 -143 58q-38 52 -38 154v54q0 212 178 212q53 0 98 -19v39h94zM246 424q-49 0 -71 -31.5t-22 -101.5v-56
q0 -75 26 -106q23 -27 69 -27q51 0 93 33q-7 29 -7 69v196q-37 24 -88 24z" />
    <glyph glyph-name="uniFE96" unicode="&#x62a;" horiz-adv-x="840" arabic-form="final" 
d="M385 571h-80v109h80v-109zM528 571h-80v109h80v-109zM860 0h-110q-53 0 -67 30q-42 -30 -114 -30h-297q-115 0 -178 78q-50 62 -50 145q0 124 70 214l77 -35q-26 -33 -41 -78t-15 -89q0 -74 46 -116q45 -41 122 -41h265q45 0 66 32t21 101v280h94v-279q0 -80 -20 -121
q6 -13 27 -13h104v-78z" />
    <glyph glyph-name="uniFE97" unicode="&#x62a;" horiz-adv-x="312" arabic-form="initial" 
d="M162 595h-80v109h80v-109zM305 595h-80v109h80v-109zM242 491v-279q0 -118 -50 -168q-43 -44 -130 -44h-62v78h61q45 0 66 32t21 101v280h94z" />
    <glyph glyph-name="uniFE98" unicode="&#x62a;" horiz-adv-x="333" arabic-form="medial" 
d="M162 595h-80v109h80v-109zM305 595h-80v109h80v-109zM353 0h-110q-53 0 -67 30q-42 -30 -114 -30h-62v78h61q45 0 66 32t21 101v280h94v-279q0 -80 -20 -121q6 -13 27 -13h104v-78z" />
    <glyph glyph-name="uniFE9A" unicode="&#x62b;" horiz-adv-x="840" arabic-form="final" 
d="M456 724h-78v99h78v-99zM385 571h-80v109h80v-109zM528 571h-80v109h80v-109zM860 0h-110q-53 0 -67 30q-42 -30 -114 -30h-297q-115 0 -178 78q-50 62 -50 145q0 124 70 214l77 -35q-26 -33 -41 -78t-15 -89q0 -74 46 -116q45 -41 122 -41h265q45 0 66 32t21 101v280h94
v-279q0 -80 -20 -121q6 -13 27 -13h104v-78z" />
    <glyph glyph-name="uniFE9B" unicode="&#x62b;" horiz-adv-x="312" arabic-form="initial" 
d="M233 748h-78v99h78v-99zM162 595h-80v109h80v-109zM305 595h-80v109h80v-109zM242 491v-279q0 -118 -50 -168q-43 -44 -130 -44h-62v78h61q45 0 66 32t21 101v280h94z" />
    <glyph glyph-name="uniFE9C" unicode="&#x62b;" horiz-adv-x="333" arabic-form="medial" 
d="M233 748h-78v99h78v-99zM162 595h-80v109h80v-109zM305 595h-80v109h80v-109zM353 0h-110q-53 0 -67 30q-42 -30 -114 -30h-62v78h61q45 0 66 32t21 101v280h94v-279q0 -80 -20 -121q6 -13 27 -13h104v-78z" />
    <glyph glyph-name="uniFE9E" unicode="&#x62c;" horiz-adv-x="573" arabic-form="final" 
d="M138 -162q0 -95 72 -139q50 -30 121 -30q69 0 136 35l21 -74q-69 -40 -171 -40q-112 0 -187 58q-85 65 -86 189q0 123 86 187q72 54 185 54h119q-22 24 -32 58.5t-21 128.5q-5 45 -11 67q-12 44 -38 68q-27 24 -66 24q-30 0 -54.5 -17.5t-37.5 -47.5l-85 24q20 61 74 93
q45 26 103 26q140 0 185 -114q15 -40 28 -145q7 -62 15.5 -91t22.5 -46q24 -28 73 -28h9v-78h-286q-83 0 -131 -46q-44 -42 -44 -116zM399 -215h-94v113h94v-113z" />
    <glyph glyph-name="uniFE9F" unicode="&#x62c;" horiz-adv-x="652" arabic-form="initial" 
d="M0 78h451q-22 24 -32 58.5t-21 128.5q-5 45 -11 67q-12 44 -38 68q-27 24 -66 24q-31 0 -55.5 -17.5t-36.5 -47.5l-86 24q21 62 75 93q45 26 103 26q139 0 184 -114q16 -40 28 -145q8 -62 16 -91t23 -46q24 -28 73 -28h2v-78h-609v78zM328 -216h-94v113h94v-113z" />
    <glyph glyph-name="uniFEA0" unicode="&#x62c;" horiz-adv-x="595" arabic-form="medial" 
d="M0 78h451q-22 24 -32 58.5t-21 128.5q-5 45 -11 67q-12 44 -38 68q-27 24 -66 24q-31 0 -55.5 -17.5t-36.5 -47.5l-86 24q21 62 75 93q45 26 103 26q139 0 184 -114q16 -40 28 -145q8 -62 16 -91t23 -46q24 -28 73 -28h8v-78h-615v78zM328 -216h-94v113h94v-113z" />
    <glyph glyph-name="uniFEA2" unicode="&#x62d;" horiz-adv-x="580" arabic-form="final" 
d="M138 -162q0 -95 72 -139q50 -30 121 -30q69 0 136 35l21 -74q-69 -40 -171 -40q-112 0 -187 58q-85 65 -86 189q0 123 86 187q72 54 185 54h119q-22 24 -32 58.5t-21 128.5q-5 45 -11 67q-12 44 -38 68q-27 24 -66 24q-30 0 -54.5 -17.5t-37.5 -47.5l-85 24q20 61 74 93
q45 26 103 26q140 0 185 -114q15 -40 28 -145q7 -62 15.5 -91t22.5 -46q24 -28 73 -28h9v-78h-286q-83 0 -131 -46q-44 -42 -44 -116z" />
    <glyph glyph-name="uniFEA3" unicode="&#x62d;" horiz-adv-x="652" arabic-form="initial" 
d="M0 78h451q-22 24 -32 58.5t-21 128.5q-5 45 -11 67q-12 44 -38 68q-27 24 -66 24q-31 0 -55.5 -17.5t-36.5 -47.5l-86 24q21 62 75 93q45 26 103 26q139 0 184 -114q16 -40 28 -145q8 -62 16 -91t23 -46q24 -28 73 -28h2v-78h-609v78z" />
    <glyph glyph-name="uniFEA4" unicode="&#x62d;" horiz-adv-x="595" arabic-form="medial" 
d="M0 78h451q-22 24 -32 58.5t-21 128.5q-5 45 -11 67q-12 44 -38 68q-27 24 -66 24q-31 0 -55.5 -17.5t-36.5 -47.5l-86 24q21 62 75 93q45 26 103 26q139 0 184 -114q16 -40 28 -145q8 -62 16 -91t23 -46q24 -28 73 -28h8v-78h-615v78z" />
    <glyph glyph-name="uniFEA6" unicode="&#x62e;" horiz-adv-x="580" arabic-form="final" 
d="M313 595h-94v112h94v-112zM138 -162q0 -95 72 -139q50 -30 121 -30q69 0 136 35l21 -74q-69 -40 -171 -40q-112 0 -187 58q-85 65 -86 189q0 123 86 187q72 54 185 54h119q-22 24 -32 58.5t-21 128.5q-5 45 -11 67q-12 44 -38 68q-27 24 -66 24q-30 0 -54.5 -17.5
t-37.5 -47.5l-85 24q20 61 74 93q45 26 103 26q140 0 185 -114q15 -40 28 -145q7 -62 15.5 -91t22.5 -46q24 -28 73 -28h9v-78h-286q-83 0 -131 -46q-44 -42 -44 -116z" />
    <glyph glyph-name="uniFEA7" unicode="&#x62e;" horiz-adv-x="652" arabic-form="initial" 
d="M330 595h-94v112h94v-112zM0 78h451q-22 24 -32 58.5t-21 128.5q-5 45 -11 67q-12 44 -38 68q-27 24 -66 24q-31 0 -55.5 -17.5t-36.5 -47.5l-86 24q21 62 75 93q45 26 103 26q139 0 184 -114q16 -40 28 -145q8 -62 16 -91t23 -46q24 -28 73 -28h2v-78h-609v78z" />
    <glyph glyph-name="uniFEA8" unicode="&#x62e;" horiz-adv-x="595" arabic-form="medial" 
d="M330 595h-94v112h94v-112zM0 78h451q-22 24 -32 58.5t-21 128.5q-5 45 -11 67q-12 44 -38 68q-27 24 -66 24q-31 0 -55.5 -17.5t-36.5 -47.5l-86 24q21 62 75 93q45 26 103 26q139 0 184 -114q16 -40 28 -145q8 -62 16 -91t23 -46q24 -28 73 -28h8v-78h-615v78z" />
    <glyph glyph-name="uniFEAA" unicode="&#x62f;" horiz-adv-x="477" arabic-form="final" 
d="M496 0h-95q-52 0 -66 30q-40 -30 -114 -30h-177v78h176q87 0 87 129q0 107 -45 161q-40 48 -121 56l25 78q235 -30 235 -290q0 -77 -20 -122q6 -12 27 -12h88v-78z" />
    <glyph glyph-name="uniFEAC" unicode="&#x630;" horiz-adv-x="477" arabic-form="final" 
d="M236 595h-94v112h94v-112zM496 0h-95q-52 0 -66 30q-40 -30 -114 -30h-177v78h176q87 0 87 129q0 107 -45 161q-40 48 -121 56l25 78q235 -30 235 -290q0 -77 -20 -122q6 -12 27 -12h88v-78z" />
    <glyph glyph-name="uniFEAE" unicode="&#x631;" horiz-adv-x="324" arabic-form="final" 
d="M343 0h-78q-17 0 -29 3v-12q0 -96 -21 -149q-37 -102 -154 -102q-48 0 -96 20l20 74q30 -15 69 -15q48 0 67.5 37t19.5 128v507h95v-408q8 -5 23 -5h84v-78z" />
    <glyph glyph-name="uniFEB0" unicode="&#x632;" horiz-adv-x="324" arabic-form="final" 
d="M236 595h-94v112h94v-112zM343 0h-78q-17 0 -29 3v-12q0 -96 -21 -149q-37 -102 -154 -102q-48 0 -96 20l20 74q30 -15 69 -15q48 0 67.5 37t19.5 128v507h95v-408q8 -5 23 -5h84v-78z" />
    <glyph glyph-name="uniFEB2" unicode="&#x633;" horiz-adv-x="1263" arabic-form="final" 
d="M1283 0h-125q-49 0 -64 26q-43 -36 -127 -36q-97 0 -138 59q-40 -59 -130 -59q-66 0 -99 35v-6q-7 -141 -87 -214q-72 -65 -193 -65q-127 0 -205 86q-71 79 -71 204q0 148 69 256l77 -36q-56 -99 -56 -209q0 -115 63 -175q50 -48 124 -48q90 0 140 62q46 57 46 156v455
h94v-290q0 -75 24 -106q22 -27 66 -27q52 0 73 35q18 31 18 98v290h95v-290q0 -75 24 -106q22 -27 66 -27q48 0 69.5 31t21.5 102v290h94v-290q0 -70 -16 -111q5 -12 27 -12h120v-78z" />
    <glyph glyph-name="uniFEB3" unicode="&#x633;" horiz-adv-x="886" arabic-form="initial" 
d="M817 491v-290q0 -118 -50 -168q-44 -44 -134 -44q-98 0 -139 59q-40 -59 -137 -59q-103 0 -144 65q-40 -54 -127 -54h-86v78h85q45 0 66 32t21 101v280h94v-291q0 -75 24 -106q22 -27 66 -27q52 0 73 36q18 31 18 97v291h95v-291q0 -75 24 -106q22 -27 66 -27
q48 0 69.5 31.5t21.5 101.5v291h94z" />
    <glyph glyph-name="uniFEB4" unicode="&#x633;" horiz-adv-x="928" arabic-form="medial" 
d="M948 0h-125q-49 0 -64 26q-43 -37 -126 -37q-98 0 -139 60q-40 -60 -137 -60q-103 0 -143 65q-42 -54 -128 -54h-86v78h85q45 0 66 32t21 101v280h94v-291q0 -75 24 -106q22 -27 66 -27q52 0 73 36q18 31 18 97v291h95v-291q0 -75 24 -106q22 -27 66 -27q48 0 69.5 31.5
t21.5 101.5v291h94v-290q0 -74 -16 -111q5 -12 27 -12h120v-78z" />
    <glyph glyph-name="uniFEB6" unicode="&#x634;" horiz-adv-x="1263" arabic-form="final" 
d="M868 748h-78v99h78v-99zM797 595h-80v109h80v-109zM940 595h-80v109h80v-109zM1283 0h-125q-49 0 -64 26q-43 -36 -127 -36q-97 0 -138 59q-40 -59 -130 -59q-66 0 -99 35v-6q-7 -141 -87 -214q-72 -65 -193 -65q-127 0 -205 86q-71 79 -71 204q0 148 69 256l77 -36
q-56 -99 -56 -209q0 -115 63 -175q50 -48 124 -48q90 0 140 62q46 57 46 156v455h94v-290q0 -75 24 -106q22 -27 66 -27q52 0 73 35q18 31 18 98v290h95v-290q0 -75 24 -106q22 -27 66 -27q48 0 69.5 31t21.5 102v290h94v-290q0 -70 -16 -111q5 -12 27 -12h120v-78z" />
    <glyph glyph-name="uniFEB7" unicode="&#x634;" horiz-adv-x="886" arabic-form="initial" 
d="M533 748h-78v99h78v-99zM462 595h-80v109h80v-109zM605 595h-80v109h80v-109zM817 491v-290q0 -118 -50 -168q-44 -44 -134 -44q-98 0 -139 59q-40 -59 -137 -59q-103 0 -144 65q-40 -54 -127 -54h-86v78h85q45 0 66 32t21 101v280h94v-291q0 -75 24 -106q22 -27 66 -27
q52 0 73 36q18 31 18 97v291h95v-291q0 -75 24 -106q22 -27 66 -27q48 0 69.5 31.5t21.5 101.5v291h94z" />
    <glyph glyph-name="uniFEB8" unicode="&#x634;" horiz-adv-x="928" arabic-form="medial" 
d="M533 748h-78v99h78v-99zM462 595h-80v109h80v-109zM605 595h-80v109h80v-109zM948 0h-125q-49 0 -64 26q-43 -37 -126 -37q-98 0 -139 60q-40 -60 -137 -60q-103 0 -143 65q-42 -54 -128 -54h-86v78h85q45 0 66 32t21 101v280h94v-291q0 -75 24 -106q22 -27 66 -27
q52 0 73 36q18 31 18 97v291h95v-291q0 -75 24 -106q22 -27 66 -27q48 0 69.5 31.5t21.5 101.5v291h94v-290q0 -74 -16 -111q5 -12 27 -12h120v-78z" />
    <glyph glyph-name="uniFEBA" unicode="&#x635;" horiz-adv-x="1190" arabic-form="final" 
d="M1210 0h-96q-53 0 -66 30q-42 -30 -114 -30h-335q-12 -132 -90 -199q-71 -61 -189 -61q-127 0 -205 86q-71 79 -71 204q0 148 69 256l77 -36q-56 -99 -56 -209q0 -115 63 -175q50 -48 124 -48q90 0 140 62q46 57 46 156v455h94v-136q47 78 124 116q63 31 136 31
q131 0 198 -92q55 -76 55 -197q0 -81 -22 -129q6 -6 23 -6h95v-78zM601 78h332q87 0 87 130q0 102 -44 159t-124 57q-69 0 -129 -55q-47 -44 -76 -111q-35 -71 -46 -180z" />
    <glyph glyph-name="uniFEBB" unicode="&#x635;" horiz-adv-x="799" arabic-form="initial" 
d="M502 502q133 0 200 -95q54 -75 54 -194q0 -118 -49 -168q-44 -45 -132 -45h-333v-73h-94v73h-148v78h148v413h94l1 -136q47 78 123 116q63 31 136 31zM242 78h332q87 0 87 130q0 102 -44 159t-124 57q-69 0 -129 -55q-47 -44 -76 -111q-35 -71 -46 -180z" />
    <glyph glyph-name="uniFEBC" unicode="&#x635;" horiz-adv-x="831" arabic-form="medial" 
d="M851 0h-96q-53 0 -66 30q-42 -30 -114 -30h-333v-73h-94v73h-148v78h148v413h94l1 -136q47 78 123 116q63 31 136 31q133 0 200 -95q54 -75 54 -194q0 -82 -23 -129q6 -6 23 -6h95v-78zM242 78h332q87 0 87 130q0 102 -44 159t-124 57q-69 0 -129 -55q-47 -44 -76 -111
q-35 -71 -46 -180z" />
    <glyph glyph-name="uniFEBE" unicode="&#x636;" horiz-adv-x="1190" arabic-form="final" 
d="M901 595h-94v112h94v-112zM1210 0h-96q-53 0 -66 30q-42 -30 -114 -30h-335q-12 -132 -90 -199q-71 -61 -189 -61q-127 0 -205 86q-71 79 -71 204q0 148 69 256l77 -36q-56 -99 -56 -209q0 -115 63 -175q50 -48 124 -48q90 0 140 62q46 57 46 156v455h94v-136
q47 78 124 116q63 31 136 31q131 0 198 -92q55 -76 55 -197q0 -81 -22 -129q6 -6 23 -6h95v-78zM601 78h332q87 0 87 130q0 102 -44 159t-124 57q-69 0 -129 -55q-47 -44 -76 -111q-35 -71 -46 -180z" />
    <glyph glyph-name="uniFEBF" unicode="&#x636;" horiz-adv-x="799" arabic-form="initial" 
d="M542 595h-94v112h94v-112zM502 502q133 0 200 -95q54 -75 54 -194q0 -118 -49 -168q-44 -45 -132 -45h-333v-73h-94v73h-148v78h148v413h94l1 -136q47 78 123 116q63 31 136 31zM242 78h332q87 0 87 130q0 102 -44 159t-124 57q-69 0 -129 -55q-47 -44 -76 -111
q-35 -71 -46 -180z" />
    <glyph glyph-name="uniFEC0" unicode="&#x636;" horiz-adv-x="831" arabic-form="medial" 
d="M542 595h-94v112h94v-112zM851 0h-96q-53 0 -66 30q-42 -30 -114 -30h-333v-73h-94v73h-148v78h148v413h94l1 -136q47 78 123 116q63 31 136 31q133 0 200 -95q54 -75 54 -194q0 -82 -23 -129q6 -6 23 -6h95v-78zM242 78h332q87 0 87 130q0 102 -44 159t-124 57
q-69 0 -129 -55q-47 -44 -76 -111q-35 -71 -46 -180z" />
    <glyph glyph-name="uniFEC2" unicode="&#x637;" horiz-adv-x="871" arabic-form="final" 
d="M891 0h-96q-53 0 -66 30q-42 -30 -114 -30h-571v78h144v636h94v-359q47 77 124 116q64 31 136 31q133 0 200 -95q53 -75 53 -194q0 -81 -22 -129q6 -6 23 -6h95v-78zM282 78h332q87 0 87 130q0 102 -44 159t-124 57q-69 0 -129 -55q-47 -44 -76 -111q-35 -71 -46 -180z
" />
    <glyph glyph-name="uniFEC3" unicode="&#x637;" horiz-adv-x="799" arabic-form="initial" 
d="M502 502q133 0 200 -95q54 -75 54 -194q0 -118 -49 -168q-44 -45 -132 -45h-575v78h148v636h94l1 -359q47 77 124 116q63 31 135 31zM242 78h332q87 0 87 130q0 102 -44 159t-124 57q-69 0 -129 -55q-47 -44 -76 -111q-35 -71 -46 -180z" />
    <glyph glyph-name="uniFEC4" unicode="&#x637;" horiz-adv-x="832" arabic-form="medial" 
d="M851 0h-96q-53 0 -66 30q-42 -30 -114 -30h-575v78h148v636h94l1 -359q47 77 124 116q63 31 135 31q133 0 200 -95q54 -75 54 -194q0 -82 -23 -129q6 -6 23 -6h95v-78zM242 78h332q87 0 87 130q0 102 -44 159t-124 57q-69 0 -129 -55q-47 -44 -76 -111q-35 -71 -46 -180z
" />
    <glyph glyph-name="uniFEC6" unicode="&#x638;" horiz-adv-x="871" arabic-form="final" 
d="M891 0h-96q-53 0 -66 30q-42 -30 -114 -30h-571v78h144v636h94v-359q47 77 124 116q64 31 136 31q133 0 200 -95q53 -75 53 -194q0 -81 -22 -129q6 -6 23 -6h95v-78zM582 595h-94v112h94v-112zM282 78h332q87 0 87 130q0 102 -44 159t-124 57q-69 0 -129 -55
q-47 -44 -76 -111q-35 -71 -46 -180z" />
    <glyph glyph-name="uniFEC7" unicode="&#x638;" horiz-adv-x="799" arabic-form="initial" 
d="M502 502q133 0 200 -95q54 -75 54 -194q0 -118 -49 -168q-44 -45 -132 -45h-575v78h148v636h94l1 -359q47 77 124 116q63 31 135 31zM543 595h-94v112h94v-112zM242 78h332q87 0 87 130q0 102 -44 159t-124 57q-69 0 -129 -55q-47 -44 -76 -111q-35 -71 -46 -180z" />
    <glyph glyph-name="uniFEC8" unicode="&#x638;" horiz-adv-x="832" arabic-form="medial" 
d="M851 0h-96q-53 0 -66 30q-42 -30 -114 -30h-575v78h148v636h94l1 -359q47 77 124 116q63 31 135 31q133 0 200 -95q54 -75 54 -194q0 -82 -23 -129q6 -6 23 -6h95v-78zM543 595h-94v112h94v-112zM242 78h332q87 0 87 130q0 102 -44 159t-124 57q-69 0 -129 -55
q-47 -44 -76 -111q-35 -71 -46 -180z" />
    <glyph glyph-name="uniFECA" unicode="&#x639;" horiz-adv-x="581" arabic-form="final" 
d="M44 -163q0 103 61 165q43 45 111 63q-50 132 -123 203q2 123 66 184q53 50 142 50q102 0 157 -66q50 -60 51 -168q-67 -67 -117 -190h208v-78h-224q-45 0 -75 16q-12 -12 -54 -27q-14 -5 -22 -9q-40 -17 -63.5 -55t-23.5 -87q0 -95 72 -139q50 -30 121 -30q69 0 136 35
l21 -74q-69 -40 -171 -40q-112 0 -187 58q-85 65 -86 189zM301 424q-52 0 -83 -40q-28 -37 -31 -102q57 -60 108 -183q3 -6 6 -6q5 0 6 6q54 127 108 183q-4 74 -39 111q-30 31 -75 31z" />
    <glyph glyph-name="uniFECB" unicode="&#x639;" horiz-adv-x="581" arabic-form="initial" 
d="M334 502q68 0 116 -34q45 -32 63 -86l-86 -24q-12 31 -37 48.5t-57 17.5q-56 0 -86 -54q-25 -43 -25 -107q0 -91 52 -142q44 -43 111 -43h152v-78h-537v78h198q-71 71 -71 180q0 114 55 179t152 65z" />
    <glyph glyph-name="uniFECC" unicode="&#x639;" horiz-adv-x="616" arabic-form="medial" 
d="M336 502q102 0 157 -66q50 -60 51 -168q-68 -68 -116 -190h208v-78h-225q-45 0 -75 16q-29 -16 -75 -16h-261v78h245q-44 119 -117 190q2 123 66 184q53 50 142 50zM336 424q-52 0 -83 -40q-28 -37 -31 -102q57 -60 108 -183q3 -6 6 -6q5 0 6 6q54 127 108 183
q-4 74 -39 111q-30 31 -75 31z" />
    <glyph glyph-name="uniFECE" unicode="&#x63a;" horiz-adv-x="581" arabic-form="final" 
d="M348 595h-94v112h94v-112zM44 -163q0 103 61 165q43 45 111 63q-50 132 -123 203q2 123 66 184q53 50 142 50q102 0 157 -66q50 -60 51 -168q-67 -67 -117 -190h208v-78h-224q-45 0 -75 16q-12 -12 -54 -27q-14 -5 -22 -9q-40 -17 -63.5 -55t-23.5 -87q0 -95 72 -139
q50 -30 121 -30q69 0 136 35l21 -74q-69 -40 -171 -40q-112 0 -187 58q-85 65 -86 189zM301 424q-52 0 -83 -40q-28 -37 -31 -102q57 -60 108 -183q3 -6 6 -6q5 0 6 6q54 127 108 183q-4 74 -39 111q-30 31 -75 31z" />
    <glyph glyph-name="uniFECF" unicode="&#x63a;" horiz-adv-x="581" arabic-form="initial" 
d="M379 595h-94v112h94v-112zM334 502q68 0 116 -34q45 -32 63 -86l-86 -24q-12 31 -37 48.5t-57 17.5q-56 0 -86 -54q-25 -43 -25 -107q0 -91 52 -142q44 -43 111 -43h152v-78h-537v78h198q-71 71 -71 180q0 114 55 179t152 65z" />
    <glyph glyph-name="uniFED0" unicode="&#x63a;" horiz-adv-x="616" arabic-form="medial" 
d="M384 595h-94v112h94v-112zM336 502q102 0 157 -66q50 -60 51 -168q-68 -68 -116 -190h208v-78h-225q-45 0 -75 16q-29 -16 -75 -16h-261v78h245q-44 119 -117 190q2 123 66 184q53 50 142 50zM336 424q-52 0 -83 -40q-28 -37 -31 -102q57 -60 108 -183q3 -6 6 -6q5 0 6 6
q54 127 108 183q-4 74 -39 111q-30 31 -75 31z" />
    <glyph glyph-name="uniFED2" unicode="&#x641;" horiz-adv-x="927" arabic-form="final" 
d="M709 595h-94v112h94v-112zM947 0h-207q-47 0 -78 16q-31 -16 -77 -16h-313q-115 0 -178 78q-50 62 -50 145q0 124 70 214l77 -35q-26 -33 -41 -78t-15 -88q0 -75 46 -117q44 -41 122 -41h260q-94 90 -94 221q0 94 54 150q51 53 138 53q100 0 151 -68q41 -54 41 -135
q0 -130 -94 -221h188v-78zM661 424q-50 0 -77 -44q-21 -35 -21 -89q0 -113 98 -198q98 84 98 198q0 62 -28 99q-26 34 -70 34z" />
    <glyph glyph-name="uniFED3" unicode="&#x641;" horiz-adv-x="576" arabic-form="initial" 
d="M379 595h-94v112h94v-112zM333 502q103 0 146 -58q38 -50 38 -154v-78q0 -118 -50 -168q-44 -44 -134 -44h-333v78h184q-37 43 -37 134v78q0 118 51 168q44 44 135 44zM423 211v80q0 76 -24 106q-21 27 -67 27q-51 0 -72 -35q-18 -31 -18 -98v-80q0 -75 24 -106
q21 -27 66 -27q52 0 73 36q18 31 18 97z" />
    <glyph glyph-name="uniFED4" unicode="&#x641;" horiz-adv-x="583" arabic-form="medial" 
d="M364 595h-94v112h94v-112zM317 502q100 0 151 -68q41 -54 41 -135q0 -130 -94 -221h188v-78h-207q-47 0 -78 16q-31 -16 -77 -16h-241v78h219q-94 90 -94 221q0 94 54 150q51 53 138 53zM317 424q-50 0 -77 -44q-21 -35 -21 -89q0 -113 98 -198q98 84 98 198q0 62 -28 99
q-26 34 -70 34z" />
    <glyph glyph-name="uniFED6" unicode="&#x642;" horiz-adv-x="741" arabic-form="final" 
d="M438 595h-80v109h80v-109zM581 595h-80v109h80v-109zM468 502q103 0 147 -58q38 -50 38 -154v-212h107v-78h-112q-19 -131 -104 -199q-77 -61 -197 -61q-146 0 -231 102q-72 86 -72 211q0 101 46 192l76 -39q-32 -72 -32 -156q0 -109 62 -174q57 -58 149 -58q93 0 149 52
q50 47 62 130h-101q-95 2 -136 61q-36 51 -36 150v79q0 118 50 168q44 44 135 44zM468 424q-51 0 -72 -35q-18 -31 -18 -98v-80q0 -75 24 -106q21 -27 66 -27h91v213q0 76 -24 106q-21 27 -67 27z" />
    <glyph glyph-name="uniFED7" unicode="&#x642;" horiz-adv-x="576" arabic-form="initial" 
d="M302 595h-80v109h80v-109zM445 595h-80v109h80v-109zM333 502q103 0 146 -58q38 -50 38 -154v-78q0 -118 -50 -168q-44 -44 -134 -44h-333v78h184q-37 43 -37 134v78q0 118 51 168q44 44 135 44zM423 211v80q0 76 -24 106q-21 27 -67 27q-51 0 -72 -35q-18 -31 -18 -98
v-80q0 -75 24 -106q21 -27 66 -27q52 0 73 36q18 31 18 97z" />
    <glyph glyph-name="uniFED8" unicode="&#x642;" horiz-adv-x="583" arabic-form="medial" 
d="M287 595h-80v109h80v-109zM430 595h-80v109h80v-109zM317 502q100 0 151 -68q41 -54 41 -135q0 -130 -94 -221h188v-78h-207q-47 0 -78 16q-31 -16 -77 -16h-241v78h219q-94 90 -94 221q0 94 54 150q51 53 138 53zM317 424q-50 0 -77 -44q-21 -35 -21 -89q0 -113 98 -198
q98 84 98 198q0 62 -28 99q-26 34 -70 34z" />
    <glyph glyph-name="uniFEDA" unicode="&#x643;" horiz-adv-x="840" arabic-form="final" 
d="M860 0h-110q-53 0 -67 30q-42 -30 -114 -30h-297q-115 0 -178 78q-50 62 -50 145q0 124 70 214l77 -35q-26 -33 -41 -78t-15 -89q0 -74 46 -116q45 -41 122 -41h265q45 0 66 32t21 101v503h94v-502q0 -80 -20 -121q6 -13 27 -13h104v-78zM507 415q0 -38 -23 -60t-62 -22
h-91v45h94q14 0 23.5 10t9.5 26q0 17 -9 27.5t-24 10.5h-71v15q0 27 20 50l29 37h54l-46 -57h11q40 0 63 -23q22 -22 22 -59z" />
    <glyph glyph-name="uniFEDB" unicode="&#x643;" horiz-adv-x="561" arabic-form="initial" 
d="M214 491h103q103 0 147 -57q38 -51 38 -154v-68q0 -118 -50 -168q-45 -44 -135 -44h-317v78h317q48 0 69.5 31.5t21.5 101.5v70q0 75 -25 105q-21 27 -66 27h-212v36q0 24 6 38.5t27 39.5l147 187h105z" />
    <glyph glyph-name="uniFEDC" unicode="&#x643;" horiz-adv-x="593" arabic-form="medial" 
d="M612 0h-110q-52 0 -67 30q-42 -30 -118 -30h-317v78h317q48 0 69.5 31.5t21.5 101.5v70q0 75 -25 105q-21 27 -66 27h-212v36q0 24 6 38.5t27 39.5l147 187h105l-176 -223h103q103 0 147 -57q38 -51 38 -154v-68q0 -81 -21 -122q6 -12 27 -12h104v-78z" />
    <glyph glyph-name="uniFEDE" unicode="&#x644;" horiz-adv-x="688" arabic-form="final" 
d="M708 0h-78q-17 0 -31 3q-12 -133 -89 -201q-72 -62 -190 -62q-127 0 -205 86q-71 79 -71 204q0 148 69 256l77 -36q-56 -99 -56 -209q0 -115 63 -175q50 -48 124 -48q90 0 140 62q46 57 46 156v678h94v-631q9 -5 23 -5h84v-78z" />
    <glyph glyph-name="uniFEDF" unicode="&#x644;" horiz-adv-x="312" arabic-form="initial" 
d="M242 714v-502q0 -117 -50 -168q-44 -44 -130 -44h-62v78h61q45 0 66 32t21 101v503h94z" />
    <glyph glyph-name="uniFEE0" unicode="&#x644;" horiz-adv-x="330" arabic-form="medial" 
d="M350 0h-107q-53 0 -67 30q-42 -30 -114 -30h-62v78h61q45 0 66 32t21 101v503h94v-502q0 -80 -20 -121q6 -13 27 -13h101v-78z" />
    <glyph glyph-name="uniFEE2" unicode="&#x645;" horiz-adv-x="629" arabic-form="final" 
d="M649 0h-30q-71 0 -109 44q-38 -84 -155 -84q-119 0 -158 83q-35 -5 -49.5 -27t-14.5 -70v-302h-94v298q0 91 38 136q31 38 93 47q-2 28 -2 47v118q0 118 50 168q44 44 135 44q103 0 147 -58q38 -50 38 -154v-79q0 -131 81 -133h30v-78zM443 172v119q0 76 -24 106
q-21 27 -67 27q-51 0 -72 -35q-18 -31 -18 -98v-119q0 -76 24 -106q21 -27 66 -27q52 0 73 35q18 31 18 98z" />
    <glyph glyph-name="uniFEE3" unicode="&#x645;" horiz-adv-x="577" arabic-form="initial" 
d="M333 502q103 0 147 -58q38 -50 38 -154v-118q0 -118 -50 -168q-45 -44 -135 -44q-119 0 -157 84q-40 -44 -114 -44h-62v78h61q45 0 66 32t21 101v79q0 118 50 168q44 44 135 44zM423 172v119q0 76 -24 106q-21 27 -67 27q-51 0 -72 -35q-18 -31 -18 -98v-119
q0 -76 24 -106q21 -27 66 -27q52 0 73 35q18 31 18 98z" />
    <glyph glyph-name="uniFEE4" unicode="&#x645;" horiz-adv-x="610" arabic-form="medial" 
d="M629 0h-30q-71 0 -109 44q-38 -84 -157 -84t-157 84q-39 -44 -114 -44h-62v78h61q45 0 66 32t21 101v79q0 118 50 168q44 44 135 44q103 0 147 -58q38 -50 38 -154v-79q0 -131 81 -133h30v-78zM423 172v119q0 76 -24 106q-21 27 -67 27q-51 0 -72 -35q-18 -31 -18 -98
v-119q0 -76 24 -106q21 -27 66 -27q52 0 73 35q18 31 18 98z" />
    <glyph glyph-name="uniFEE6" unicode="&#x646;" horiz-adv-x="688" arabic-form="final" 
d="M378 531h-94v112h94v-112zM708 0h-78q-17 0 -31 3q-12 -133 -89 -201q-72 -62 -190 -62q-127 0 -205 86q-71 79 -71 204q0 148 69 256l77 -36q-56 -99 -56 -209q0 -115 63 -175q50 -48 124 -48q90 0 140 62q46 57 46 156v455h94v-408q9 -5 23 -5h84v-78z" />
    <glyph glyph-name="uniFEE7" unicode="&#x646;" horiz-adv-x="312" arabic-form="initial" 
d="M242 595h-94v112h94v-112zM242 491v-279q0 -118 -50 -168q-43 -44 -130 -44h-62v78h61q45 0 66 32t21 101v280h94z" />
    <glyph glyph-name="uniFEE8" unicode="&#x646;" horiz-adv-x="333" arabic-form="medial" 
d="M242 595h-94v112h94v-112zM353 0h-110q-53 0 -67 30q-42 -30 -114 -30h-62v78h61q45 0 66 32t21 101v280h94v-279q0 -80 -20 -121q6 -13 27 -13h104v-78z" />
    <glyph glyph-name="uniFEEA" unicode="&#x647;" horiz-adv-x="524" arabic-form="final" 
d="M429 522v-311q0 -74 25 -106q21 -27 62 -27h28v-78h-29q-102 0 -144 64q-64 -40 -131 -40q-100 0 -143 58q-38 52 -38 154v54q0 212 178 212q53 0 98 -19v39h94zM246 424q-49 0 -71 -31.5t-22 -101.5v-56q0 -75 26 -106q23 -27 69 -27q51 0 93 33q-7 29 -7 69v196
q-37 24 -88 24z" />
    <glyph glyph-name="uniFEEB" unicode="&#x647;" horiz-adv-x="740" arabic-form="initial" 
d="M434 502q134 0 204 -92q58 -76 58 -197q0 -118 -49 -168q-43 -45 -131 -45h-158q-53 0 -80 16q-27 -16 -80 -16h-198v78h182q-57 56 -57 147q0 70 39 115q35 39 90 47l29 81q68 34 151 34zM376 78h139q87 0 87 128q0 106 -50 164q-47 54 -129 54q-77 0 -156 -35h11
q75 0 118 -53q37 -44 37 -111q0 -90 -57 -147zM279 88q36 11 59 55q19 37 19 75q0 47 -21 78q-21 30 -57 30t-57 -29t-21 -79q0 -45 24 -84q22 -37 54 -46z" />
    <glyph glyph-name="uniFEEC" unicode="&#x647;" horiz-adv-x="772" arabic-form="medial" 
d="M792 0h-96q-53 0 -66 30q-42 -30 -114 -30h-158q-53 0 -80 16q-27 -16 -80 -16h-198v78h182q-57 56 -57 147q0 70 39 115q35 39 90 47l29 81q68 34 151 34q134 0 204 -92q58 -76 58 -197q0 -81 -22 -129q6 -6 23 -6h95v-78zM376 78h139q87 0 87 128q0 106 -50 164
q-47 54 -129 54q-77 0 -156 -35h11q75 0 118 -53q37 -44 37 -111q0 -90 -57 -147zM279 88q36 11 59 55q19 37 19 75q0 47 -21 78q-21 30 -57 30t-57 -29t-21 -79q0 -45 24 -84q22 -37 54 -46z" />
    <glyph glyph-name="uniFEEE" unicode="&#x648;" horiz-adv-x="514" arabic-form="final" 
d="M241 502q103 0 147 -58q38 -50 38 -154v-212h107v-78h-107q-1 -78 -12.5 -123.5t-40.5 -79.5q-47 -57 -139 -57q-83 0 -146 30l20 74q53 -25 109 -25q67 0 93 46q21 36 22 110v25h-101q-175 0 -175 211v79q0 118 50 168q44 44 135 44zM241 424q-51 0 -72 -35
q-18 -31 -18 -98v-80q0 -75 24 -106q21 -27 66 -27h91v213q0 76 -24 106q-21 27 -67 27z" />
    <glyph glyph-name="uniFEF0" unicode="&#x649;" horiz-adv-x="661" arabic-form="final" 
d="M91 245l76 -39q-32 -72 -32 -156q0 -109 62 -174q57 -58 149 -58q91 0 147 51q45 41 60 107q2 10 2 15q0 9 -11 9h-132v78h269v-78h-33q-3 -38 -23 -83q-32 -86 -108 -133q-71 -44 -169 -44q-146 0 -231 102q-72 86 -72 211q0 101 46 192z" />
    <glyph glyph-name="uniFEF2" unicode="&#x64a;" horiz-adv-x="661" arabic-form="final" 
d="M91 245l76 -39q-32 -72 -32 -156q0 -109 62 -174q57 -58 149 -58q91 0 147 51q45 41 60 107q2 10 2 15q0 9 -11 9h-132v78h269v-78h-33q-3 -38 -23 -83q-32 -86 -108 -133q-71 -44 -169 -44q-146 0 -231 102q-72 86 -72 211q0 101 46 192zM317 -466h-80v109h80v-109z
M459 -466h-80v109h80v-109z" />
    <glyph glyph-name="uniFEF3" unicode="&#x64a;" horiz-adv-x="312" arabic-form="initial" 
d="M242 491v-279q0 -118 -50 -168q-43 -44 -130 -44h-62v78h61q45 0 66 32t21 101v280h94zM99 -212h-80v109h80v-109zM241 -212h-80v109h80v-109z" />
    <glyph glyph-name="uniFEF4" unicode="&#x64a;" horiz-adv-x="333" arabic-form="medial" 
d="M353 0h-110q-53 0 -67 30q-42 -30 -114 -30h-62v78h61q45 0 66 32t21 101v280h94v-279q0 -80 -20 -121q6 -13 27 -13h104v-78zM101 -212h-80v109h80v-109zM243 -212h-80v109h80v-109z" />
    <glyph glyph-name=".notdef" horiz-adv-x="180" 
d="M18 0v714h144v-714h-144zM144 18v678h-108v-678h108z" />
    <glyph glyph-name="glyph1" horiz-adv-x="0" 
 />
    <glyph glyph-name="glyph2" horiz-adv-x="180" 
 />
    <glyph glyph-name="space" unicode=" " horiz-adv-x="180" 
 />
    <glyph glyph-name="exclam" unicode="!" horiz-adv-x="278" 
d="M100 195l-14 519h107l-15 -519h-78zM92 0v109h95v-109h-95z" />
    <glyph glyph-name="quotedbl" unicode="&#x22;" horiz-adv-x="370" 
d="M61 442l-7 272h98l-7 -272h-84zM224 442l-7 272h98l-7 -272h-84z" />
    <glyph glyph-name="numbersign" unicode="#" 
d="M111 288l13 112h-88l9 62h88l22 177h79l-22 -177h86l22 177h79l-22 -177h89l-10 -62h-87l-13 -112h87l-9 -62h-87l-22 -179h-79l22 179h-86l-22 -179h-79l22 179h-89l9 62h88zM191 288h85l13 112h-85z" />
    <glyph glyph-name="dollar" unicode="$" 
d="M26 164l84 25q14 -55 44 -79t83 -24q115 0 115 113q0 57 -31 84q-16 13 -29 18.5t-77 23.5q-97 29 -136 80q-35 45 -35 120q0 108 73 154q28 18 78 25v108h96v-111q55 -11 86 -42t46 -90l-83 -24q-17 46 -40.5 64.5t-64.5 18.5q-50 0 -75 -29q-22 -25 -22 -68
q0 -49 28 -76.5t98 -47.5q60 -18 81.5 -27.5t43.5 -26.5q57 -45 57 -145q0 -171 -155 -196v-145h-96v143q-63 9 -102 39q-27 20 -41 44.5t-26 70.5z" />
    <glyph glyph-name="percent" unicode="%" horiz-adv-x="794" 
d="M32 487v83q0 87 38 122q33 31 104 31q80 0 113 -41q28 -36 28 -112v-83q0 -87 -38 -123q-33 -31 -103 -31q-81 0 -113 41q-29 37 -29 113zM115 488q0 -50 13.5 -72t45.5 -22q31 0 45 22t14 72v81q0 49 -14 71.5t-45 22.5q-32 0 -45.5 -22.5t-13.5 -71.5v-81zM478 146v83
q0 87 38 122q33 31 103 31q80 0 113 -41q29 -36 29 -112v-83q0 -87 -38 -122q-33 -32 -104 -32q-80 0 -112 42q-29 36 -29 112zM560 147q1 -51 14.5 -72.5t44.5 -21.5q32 0 45.5 22t13.5 72v81q0 50 -13.5 72t-45.5 22q-31 0 -45 -22.5t-14 -71.5v-81zM257 0l191 714h88
l-191 -714h-88z" />
    <glyph glyph-name="ampersand" unicode="&#x26;" horiz-adv-x="682" 
d="M226 389q-74 109 -74 180q0 80 50 124q44 38 115 38q85 0 132 -50q41 -44 41 -115q0 -115 -133 -202l109 -166q20 35 29 60.5t21 73.5h92q-28 -114 -85 -208l89 -124h-112l-39 58q-95 -89 -213 -89q-93 0 -141 55q-41 48 -41 131q0 87 60 155q18 20 32 31.5t56 39.5z
M304 433q51 33 71.5 63t20.5 69q0 45 -23 69q-19 21 -53 21q-35 0 -55 -22.5t-20 -61.5q0 -22 6 -39.5t24 -50.5q20 -34 29 -48zM280 317q-43 -28 -63 -46q-52 -47 -52 -116q0 -54 29 -81q25 -23 69 -23q45 0 86 23q15 9 22 15t33 32q1 0 2 2q2 1 3 2z" />
    <glyph glyph-name="quotesingle" unicode="'" horiz-adv-x="206" 
d="M61 442l-7 272h98l-7 -272h-84z" />
    <glyph glyph-name="parenleft" unicode="(" horiz-adv-x="371" 
d="M319 -80l-67 -43q-144 203 -144 468q0 264 144 468l67 -44q-112 -200 -112 -425q0 -224 112 -424z" />
    <glyph glyph-name="parenright" unicode=")" horiz-adv-x="371" 
d="M53 769l67 44q144 -205 144 -468q0 -264 -144 -468l-67 43q58 104 85 206.5t27 218.5q0 224 -112 424z" />
    <glyph glyph-name="asterisk" unicode="*" 
d="M240 511l-76 -136l-76 49l92 130l-140 33l24 81l136 -49l-6 153h92l-6 -153l136 49l24 -81l-139 -33l92 -130l-77 -49z" />
    <glyph glyph-name="plus" unicode="+" 
d="M39 323v76h160v176h82v-176h159v-76h-159v-175h-82v175h-160z" />
    <glyph glyph-name="comma" unicode="," horiz-adv-x="245" 
d="M39 -188l41 295h104l-61 -295h-84z" />
    <glyph glyph-name="hyphen" unicode="-" horiz-adv-x="397" 
d="M72 320v82h254v-82h-254z" />
    <glyph glyph-name="period" unicode="." horiz-adv-x="246" 
d="M73 0v109h99v-109h-99z" />
    <glyph glyph-name="slash" unicode="/" horiz-adv-x="344" 
d="M24 -21l203 756h94l-203 -756h-94z" />
    <glyph glyph-name="zero" unicode="0" 
d="M52 237v240q0 125 41 181q48 66 147 66q107 0 154 -77q34 -55 34 -170v-240q0 -125 -41 -181q-48 -66 -147 -66q-107 0 -154 77q-34 55 -34 170zM149 247q0 -100 24 -140q22 -36 67 -36q52 0 72 47q19 41 19 129v220q0 100 -24 140q-22 36 -67 36q-52 0 -73 -47
q-18 -40 -18 -129v-220z" />
    <glyph glyph-name="one" unicode="1" 
d="M203 0v609l-102 -51l-34 77l169 79h66v-714h-99z" />
    <glyph glyph-name="two" unicode="2" 
d="M40 0v67l175 248q93 133 93 226q0 102 -79 102q-81 0 -91 -116l-91 4q7 105 58 152q44 41 125 41q93 0 138 -54q39 -46 39 -130q0 -77 -36 -149q-16 -29 -27 -47t-65 -95l-116 -167h245v-82h-368z" />
    <glyph glyph-name="three" unicode="3" 
d="M153 337v78h49q55 0 83 33q24 30 24 82q0 113 -87 113q-76 0 -87 -101l-90 4q9 178 181 178q182 0 182 -190q0 -59 -19 -96t-62 -61q52 -27 74.5 -69.5t22.5 -112.5q0 -205 -195 -205q-187 0 -197 187l93 6q6 -112 99 -112q52 0 78 37q23 32 23 90q0 70 -35 107
q-31 32 -83 32h-54z" />
    <glyph glyph-name="four" unicode="4" 
d="M291 0v130h-252v60l197 524h103l-189 -504h141v196h90v-196h59v-80h-59v-130h-90z" />
    <glyph glyph-name="five" unicode="5" 
d="M73 340l26 374h305v-82h-221l-16 -207q31 15 45.5 18.5t39.5 3.5q95 0 138 -63q33 -49 33 -159q0 -121 -41 -173q-48 -61 -151 -61q-179 0 -189 186l93 6q5 -111 94 -111q95 0 95 146q0 87 -23 121q-21 30 -67 30q-52 0 -89 -44z" />
    <glyph glyph-name="six" unicode="6" 
d="M217 435q5 1 28 8q9 3 26 3q40 0 73 -17.5t52 -49.5q29 -47 29 -159q0 -70 -10.5 -111t-34.5 -66q-49 -53 -139 -53q-101 0 -149 62q-36 47 -36 163q0 64 9.5 102.5t40.5 104.5l138 292h110zM241 370q-50 0 -70 -40q-18 -36 -18 -114q0 -83 24 -117q20 -29 64 -29
q50 0 69 39q18 35 18 111q0 86 -23 120q-20 30 -64 30z" />
    <glyph glyph-name="seven" unicode="7" 
d="M109 0l197 632h-244v82h345v-59l-193 -655h-105z" />
    <glyph glyph-name="eight" unicode="8" 
d="M129 378q-35 25 -49 59t-14 94q0 106 48 152q42 41 126 41q96 0 138 -53q37 -47 37 -140q0 -59 -15 -94.5t-49 -58.5q44 -22 62.5 -63t18.5 -114q0 -118 -52 -167q-45 -44 -140 -44q-108 0 -153 57q-39 50 -39 154q0 74 18.5 114.5t62.5 62.5zM240 649q-45 0 -63.5 -27
t-18.5 -92q0 -70 21 -97q19 -24 60 -24q46 0 65 27.5t19 92.5q0 69 -22 96q-19 24 -61 24zM240 336q-55 0 -76 -35q-19 -31 -19 -99q0 -76 25 -106q22 -26 70 -26q55 0 76 34q19 31 19 98q0 77 -25 107q-22 27 -70 27z" />
    <glyph glyph-name="nine" unicode="9" 
d="M267 308q-34 -11 -62 -11q-60 0 -98 34q-28 24 -40 65t-12 112q0 65 10.5 103.5t34.5 63.5q49 49 139 49q100 0 148 -58q37 -45 37 -153q0 -60 -8 -95t-35 -93l-151 -325h-109zM239 644q-49 0 -69 -36q-18 -32 -18 -100q0 -78 23 -109q20 -28 64 -28q49 0 70 38
q18 33 18 102q0 75 -24 106q-20 27 -64 27z" />
    <glyph glyph-name="colon" unicode=":" horiz-adv-x="246" 
d="M73 0v109h99v-109h-99zM73 398v109h99v-109h-99z" />
    <glyph glyph-name="semicolon" unicode=";" horiz-adv-x="245" 
d="M39 -188l41 295h104l-61 -295h-84zM83 398v109h99v-109h-99z" />
    <glyph glyph-name="less" unicode="&#x3c;" 
d="M151 364l250 -132v-88l-351 193v55l351 193v-88z" />
    <glyph glyph-name="equal" unicode="=" 
d="M53 246v73h374v-73h-374zM53 403v73h374v-73h-374z" />
    <glyph glyph-name="greater" unicode="&#x3e;" 
d="M329 364l-250 133v88l351 -193v-55l-351 -193v88z" />
    <glyph glyph-name="question" unicode="?" horiz-adv-x="494" 
d="M204 193v36q0 61 14 93t64 86q38 40 51 67t13 63q0 52 -27 80q-24 24 -63 24q-46 0 -70 -30t-33 -98l-92 7q18 203 197 203q96 0 145 -55q42 -47 42 -130q0 -77 -43 -134q-16 -22 -67 -74q-30 -30 -42 -55t-12 -57v-26h-77zM196 0v109h94v-109h-94z" />
    <glyph glyph-name="at" unicode="@" horiz-adv-x="796" 
d="M518 512h59l-42 -238q-6 -37 -6 -55q0 -41 35 -41q53 0 86 66q28 56 28 139q0 140 -80 214q-70 65 -187 65q-145 0 -222 -112q-68 -98 -68 -260q0 -173 83 -251q72 -69 212 -69q58 0 104.5 11t103.5 38l25 -57q-61 -31 -114 -44t-120 -13q-92 0 -166 26q-64 23 -107 63
q-100 95 -100 293q0 220 111 338q97 102 258 102q168 0 262 -105q82 -92 82 -238q0 -127 -63 -204q-55 -67 -136 -67q-41 0 -61.5 18.5t-25.5 59.5q-29 -44 -54.5 -61.5t-63.5 -17.5q-57 0 -87 42q-25 36 -25 98q0 116 54 199q48 73 123 73q36 0 55.5 -14t35.5 -51zM423 459
q-45 0 -76 -69q-27 -59 -27 -135q0 -74 45 -74q46 0 80 69q32 67 32 133q0 35 -14.5 55.5t-39.5 20.5z" />
    <glyph glyph-name="A" unicode="A" horiz-adv-x="520" 
d="M381 151h-239l-42 -151h-107l223 714h90l223 -714h-107zM359 231l-98 353l-98 -353h196z" />
    <glyph glyph-name="B" unicode="B" horiz-adv-x="553" 
d="M81 0v714h215q57 0 90.5 -10t57.5 -33q50 -51 50 -145q0 -110 -71 -153q35 -23 49 -45q33 -50 33 -134q0 -106 -56 -156q-23 -21 -53 -29.5t-81 -8.5h-234zM180 406h115q100 0 100 114q0 62 -28 90q-25 23 -75 23h-112v-227zM180 81h121q54 0 78 25q27 31 27 95
q0 71 -31 102q-23 23 -69 23h-126v-245z" />
    <glyph glyph-name="C" unicode="C" horiz-adv-x="538" 
d="M394 196l92 -5q-8 -201 -209 -201q-119 0 -173 80q-37 56 -37 182v209q0 74 10.5 118.5t35.5 75.5q55 67 165 67q195 0 201 -196l-92 -3q-8 119 -109 119q-65 0 -90 -49q-22 -43 -22 -138v-197q0 -108 30 -150q26 -37 83 -37q108 0 115 125z" />
    <glyph glyph-name="D" unicode="D" horiz-adv-x="577" 
d="M81 0v714h197q60 0 98 -10.5t66 -35.5q37 -32 52 -76.5t15 -118.5v-232q0 -74 -15 -118.5t-52 -76.5q-28 -24 -66.5 -35t-97.5 -11h-197zM180 81h90q82 0 113 44q27 39 27 128v208q0 101 -36 139q-31 33 -104 33h-90v-552z" />
    <glyph glyph-name="E" unicode="E" horiz-adv-x="495" 
d="M82 0v714h367v-82h-269v-230h229v-82h-229v-238h272v-82h-370z" />
    <glyph glyph-name="F" unicode="F" horiz-adv-x="468" 
d="M82 0v714h363v-82h-264v-236h223v-82h-223v-314h-99z" />
    <glyph glyph-name="G" unicode="G" horiz-adv-x="565" 
d="M300 303v77h208v-127q0 -71 -10 -113t-34 -74q-56 -76 -176 -76q-127 0 -182 80q-39 56 -39 182v209q0 74 11 118.5t37 75.5q56 67 167 67q200 0 207 -196l-92 -3q-9 119 -113 119q-68 0 -95 -49q-23 -43 -23 -138v-197q0 -108 32 -150q28 -37 89 -37q67 0 97 45
q26 39 26 117v70h-110z" />
    <glyph glyph-name="H" unicode="H" horiz-adv-x="582" 
d="M81 0v714h99v-312h221v312h99v-714h-99v320h-221v-320h-99z" />
    <glyph glyph-name="I" unicode="I" horiz-adv-x="261" 
d="M81 0v714h99v-714h-99z" />
    <glyph glyph-name="J" unicode="J" horiz-adv-x="399" 
d="M224 714h99v-460q0 -83 -4.5 -120t-17.5 -63q-41 -80 -153 -80q-50 0 -88.5 16t-76.5 53l56 65q49 -53 101 -53q58 0 76 62q8 29 8 117v463z" />
    <glyph glyph-name="K" unicode="K" horiz-adv-x="527" 
d="M82 0v714h98v-344l226 344h112l-202 -293l217 -421h-111l-167 346l-75 -111v-235h-98z" />
    <glyph glyph-name="L" unicode="L" horiz-adv-x="464" 
d="M81 0v714h99v-632h273v-82h-372z" />
    <glyph glyph-name="M" unicode="M" horiz-adv-x="698" 
d="M81 0v714h94l174 -436l173 436h94v-714h-95v508l-141 -360h-63l-141 360v-508h-95z" />
    <glyph glyph-name="N" unicode="N" horiz-adv-x="613" 
d="M81 0v714h97l259 -529v529h95v-714h-95l-261 531v-531h-95z" />
    <glyph glyph-name="O" unicode="O" horiz-adv-x="576" 
d="M67 241v232q0 67 11 109.5t37 73.5q56 68 173 68q126 0 181 -79q40 -57 40 -172v-232q0 -67 -11.5 -109.5t-36.5 -73.5q-56 -68 -173 -68q-126 0 -182 79q-39 57 -39 172zM166 250q1 -102 33 -143q28 -36 89 -36q69 0 97 48q25 42 25 131v214q0 101 -33 142
q-28 37 -89 37q-69 0 -97 -48q-25 -42 -25 -131v-214z" />
    <glyph glyph-name="P" unicode="P" horiz-adv-x="519" 
d="M181 271v-271h-99v714h190q65 0 103.5 -13t64.5 -45q47 -55 47 -163q0 -118 -55 -173q-26 -26 -63 -37.5t-96 -11.5h-92zM179 352h93q63 0 89 34q27 36 27 107q0 77 -32 112q-25 28 -83 28h-94v-281z" />
    <glyph glyph-name="Q" unicode="Q" horiz-adv-x="576" 
d="M434 32q-53 -42 -144 -42q-128 0 -184 79q-39 57 -39 172v232q0 67 11 109.5t37 73.5q56 68 173 68q126 0 181 -79q40 -57 40 -172v-232q0 -94 -27 -150l66 -57l-53 -56zM363 94l-96 85l52 55l83 -72q8 32 8 88v214q0 101 -33 142q-28 37 -89 37q-69 0 -97 -48
q-25 -42 -25 -131v-214q0 -101 33 -142q28 -37 90 -37q46 0 74 23z" />
    <glyph glyph-name="R" unicode="R" horiz-adv-x="552" 
d="M181 304v-304h-99v714h203q62 0 99.5 -11.5t63.5 -39.5q46 -50 46 -151q0 -93 -32 -140q-28 -41 -87 -58l134 -314h-110l-121 304h-97zM179 383h101q62 0 88 29q28 32 28 95q0 71 -32 101q-28 25 -86 25h-99v-250z" />
    <glyph glyph-name="S" unicode="S" horiz-adv-x="498" 
d="M28 152l85 25q16 -57 45.5 -81.5t83.5 -24.5q122 0 122 122q0 59 -32 86q-16 14 -30 19.5t-77 24.5q-100 29 -140 81q-34 45 -34 122q0 100 58 152q51 45 138 45q86 0 132 -41q41 -36 58 -108l-85 -24q-16 52 -39.5 72t-66.5 20q-51 0 -77 -33q-23 -28 -23 -78
q0 -54 32 -83q29 -26 95 -46q63 -18 84 -27t44 -27q58 -46 58 -151q0 -108 -62 -161q-55 -46 -154 -46q-101 0 -152 43q-44 38 -63 119z" />
    <glyph glyph-name="T" unicode="T" horiz-adv-x="459" 
d="M180 0v632h-163v82h424v-82h-162v-632h-99z" />
    <glyph glyph-name="U" unicode="U" horiz-adv-x="588" 
d="M79 714h99v-480q0 -79 17 -111q28 -51 99 -51q77 0 103 59q13 30 13 103v480h99v-480q0 -69 -8 -105t-29 -65q-29 -38 -71 -55.5t-107 -17.5q-133 0 -186 85q-16 26 -22.5 60.5t-6.5 97.5v480z" />
    <glyph glyph-name="V" unicode="V" horiz-adv-x="508" 
d="M211 0l-203 714h99l147 -563l146 563h99l-203 -714h-85z" />
    <glyph glyph-name="W" unicode="W" horiz-adv-x="775" 
d="M171 0l-147 714h99l97 -551l131 551h73l131 -551l97 551h99l-147 -714h-88l-129 533l-128 -533h-88z" />
    <glyph glyph-name="X" unicode="X" horiz-adv-x="496" 
d="M191 378l-166 336h108l126 -259l113 259h104l-168 -352l179 -362h-108l-139 284l-125 -284h-104z" />
    <glyph glyph-name="Y" unicode="Y" horiz-adv-x="465" 
d="M184 0v257l-192 457h105l136 -347l137 347h105l-192 -457v-257h-99z" />
    <glyph glyph-name="Z" unicode="Z" horiz-adv-x="466" 
d="M37 0v61l268 571h-250v82h360v-61l-268 -571h280v-82h-390z" />
    <glyph glyph-name="bracketleft" unicode="[" horiz-adv-x="371" 
d="M128 -98v885h183v-70h-88v-745h88v-70h-183z" />
    <glyph glyph-name="backslash" unicode="\" horiz-adv-x="344" 
d="M320 -21h-94l-203 756h94z" />
    <glyph glyph-name="bracketright" unicode="]" horiz-adv-x="371" 
d="M244 787v-885h-183v70h87v745h-87v70h183z" />
    <glyph glyph-name="asciicircum" unicode="^" 
d="M240 605l-102 -226h-108l182 340h55l182 -340h-108z" />
    <glyph glyph-name="underscore" unicode="_" horiz-adv-x="400" 
d="M-21 -177v67h442v-67h-442z" />
    <glyph glyph-name="grave" unicode="`" horiz-adv-x="500" 
d="M305 581h-71l-105 146h108z" />
    <glyph glyph-name="a" unicode="a" horiz-adv-x="460" 
d="M300 301v29q0 60 -18 85t-63 25q-33 0 -52 -16t-31 -54l-80 24q32 123 166 123q112 0 151 -70q22 -41 22 -128v-319h-75l-6 33q-21 -24 -47.5 -33.5t-73.5 -9.5q-90 0 -125 40q-31 35 -31 113q0 93 43 127q39 31 127 31h93zM300 232h-75q-52 0 -74 -20t-22 -67
q0 -44 19 -61.5t67 -17.5q49 0 67 19.5t18 72.5v74z" />
    <glyph glyph-name="b" unicode="b" horiz-adv-x="488" 
d="M68 0v714h94v-236q25 22 49 30.5t59 8.5q89 0 127 -57q34 -50 34 -151v-102q0 -120 -44 -172q-39 -45 -119 -45q-40 0 -66 9.5t-50 33.5l-5 5l-6 -38h-73zM162 210q2 -79 26 -112q21 -29 63 -29q86 0 86 136v103q0 130 -85 130q-90 0 -90 -140v-88z" />
    <glyph glyph-name="c" unicode="c" horiz-adv-x="425" 
d="M318 138l81 -17q-13 -72 -58 -103q-40 -28 -109 -28q-96 0 -139 61q-37 54 -37 160v81q0 125 49 179q43 47 131 47q74 0 111 -33q32 -29 46 -92l-81 -24q-9 38 -27 54.5t-49 16.5q-45 0 -65.5 -33.5t-20.5 -106.5v-97q0 -135 88 -135q34 0 52.5 16.5t27.5 53.5z" />
    <glyph glyph-name="d" unicode="d" horiz-adv-x="488" 
d="M346 0l-6 38l-3 -3q-1 -2 -2 -2q-23 -23 -49.5 -33t-65.5 -10q-91 0 -130 59q-34 52 -34 158v102q0 114 44 164q39 44 116 44q37 0 61.5 -8.5t47.5 -30.5v236h94v-714h-73zM325 298q-2 79 -26 112q-21 28 -64 28q-85 0 -85 -130v-102q0 -75 24 -108q21 -29 62 -29
q89 0 89 141v88z" />
    <glyph glyph-name="e" unicode="e" horiz-adv-x="473" 
d="M151 233v-36q0 -71 27 -102q23 -28 70 -28q37 0 57.5 16.5t29.5 54.5l80 -17q-13 -73 -59 -104q-40 -27 -114 -27q-103 0 -147 62q-39 54 -39 164v73q0 127 50 181q43 47 133 47q103 0 146 -61q37 -54 37 -167v-56h-271zM150 303h182v19q0 120 -91 120t-91 -120v-19z" />
    <glyph glyph-name="f" unicode="f" horiz-adv-x="293" 
d="M86 431h-53v77h53v67q0 45 7.5 71t24.5 43q15 14 38 19.5t68 5.5h46v-73h-25q-44 0 -55 -15q-9 -14 -9 -59v-59h93v-77h-93v-431h-95v431z" />
    <glyph glyph-name="g" unicode="g" horiz-adv-x="488" 
d="M326 29q-25 -22 -48.5 -30.5t-60.5 -8.5q-89 0 -127 60q-34 52 -34 158v101q0 115 44 165q39 43 117 43q41 0 68.5 -11t51.5 -38l10 40h73v-518q0 -124 -52 -177q-46 -47 -138 -47q-75 0 -113 32q-33 28 -47 87l79 20q11 -35 29 -49.5t52 -14.5q53 0 76 37q20 33 20 100
v51zM326 298q-2 79 -26 112q-22 29 -65 29q-85 0 -85 -131v-101q0 -76 24 -109q21 -29 62 -29q90 0 90 141v88z" />
    <glyph glyph-name="h" unicode="h" horiz-adv-x="490" 
d="M68 0v714h94v-235q24 21 48 29.5t60 8.5q108 0 141 -87q14 -37 14 -121v-309h-94v300q0 78 -21 109q-19 27 -60 27q-50 0 -70 -40q-18 -36 -18 -113v-283h-94z" />
    <glyph glyph-name="i" unicode="i" horiz-adv-x="232" 
d="M69 604v114h94v-114h-94zM69 0v508h94v-508h-94z" />
    <glyph glyph-name="j" unicode="j" horiz-adv-x="237" 
d="M74 508h94v-511q0 -83 -10.5 -123t-37.5 -66q-24 -21 -55 -29t-93 -9v79q37 0 53.5 7t29.5 28q19 29 19 103v521zM74 604v114h94v-114h-94z" />
    <glyph glyph-name="k" unicode="k" horiz-adv-x="455" 
d="M69 0v714h94v-461l170 255h104l-151 -214l161 -294h-103l-115 223l-66 -97v-126h-94z" />
    <glyph glyph-name="l" unicode="l" horiz-adv-x="262" 
d="M68 714h94v-540q0 -56 15.5 -76t59.5 -20h17v-78h-21q-69 0 -102 15q-35 15 -49 52.5t-14 115.5v531z" />
    <glyph glyph-name="m" unicode="m" horiz-adv-x="724" 
d="M68 0v508h71l8 -46q21 30 47.5 42.5t67.5 12.5q87 0 123 -65q39 65 123 65q107 0 138 -87q14 -37 14 -121v-309h-95v299q0 79 -19 110q-18 27 -56 27q-45 0 -63 -40q-16 -36 -16 -112v-284h-94v298q0 81 -20 111q-16 27 -55 27q-46 0 -64 -41q-16 -36 -16 -115v-280h-94z
" />
    <glyph glyph-name="n" unicode="n" horiz-adv-x="490" 
d="M68 0v508h71l8 -47q23 31 50.5 43.5t70.5 12.5q110 0 143 -87q14 -37 14 -121v-309h-94v298q0 80 -21 111q-19 27 -60 27q-51 0 -70 -40q-18 -36 -18 -116v-280h-94z" />
    <glyph glyph-name="o" unicode="o" horiz-adv-x="482" 
d="M56 202v104q0 118 50 168q44 43 135 43q103 0 146 -57q39 -50 39 -154v-104q0 -119 -51 -168q-44 -44 -134 -44q-103 0 -147 58q-38 50 -38 154zM150 201q2 -79 25 -108q20 -25 66 -25q51 0 72 35q18 32 18 98v105q0 76 -24 107q-21 27 -66 27q-51 0 -72 -36
q-19 -31 -19 -98v-105z" />
    <glyph glyph-name="p" unicode="p" horiz-adv-x="488" 
d="M68 -225v733h73l10 -38q45 47 119 47q89 0 127 -57q34 -50 34 -151v-102q0 -121 -44 -172q-40 -45 -120 -45q-62 0 -105 36v-251h-94zM162 210q2 -79 26 -112q21 -29 63 -29q86 0 86 136v103q0 130 -85 130q-90 0 -90 -140v-88z" />
    <glyph glyph-name="q" unicode="q" horiz-adv-x="488" 
d="M325 -225v251q-42 -36 -105 -36q-91 0 -130 59q-34 52 -34 158v102q0 115 44 165q39 43 117 43q75 0 119 -47l10 38h73v-733h-94zM325 298q-2 79 -26 112q-21 28 -64 28q-85 0 -85 -130v-102q0 -75 24 -108q21 -29 62 -29q89 0 89 141v88z" />
    <glyph glyph-name="r" unicode="r" horiz-adv-x="334" 
d="M68 0v508h73l11 -43q34 52 98 52q44 0 89 -28l-42 -79q-31 26 -59 26q-43 0 -60 -51q-16 -45 -16 -138v-247h-94z" />
    <glyph glyph-name="s" unicode="s" horiz-adv-x="422" 
d="M23 121l81 18q12 -40 34 -56t66 -16q94 0 94 76q0 41 -27 57q-16 9 -75 21q-84 17 -114 45q-37 35 -37 103q0 77 47 115q40 33 112 33q78 0 117 -32q34 -29 48 -91l-79 -19q-16 66 -82 66q-35 0 -54.5 -18.5t-19.5 -52.5q0 -32 19 -48t68 -26q57 -11 82 -19t43 -23
q41 -33 41 -112q0 -152 -184 -152q-84 0 -128 36q-39 32 -52 95z" />
    <glyph glyph-name="t" unicode="t" horiz-adv-x="296" 
d="M82 431h-52v77h52l5 155h90v-155h85v-77h-85v-265q0 -51 14 -69.5t56 -18.5h16v-78h-22q-67 0 -99 13q-34 14 -47 49.5t-13 112.5v256z" />
    <glyph glyph-name="u" unicode="u" 
d="M64 508h94v-299q0 -80 20 -111q18 -27 57 -27q47 0 65 41q17 37 17 116v280h94v-508h-70l-8 47q-22 -31 -48.5 -44t-68.5 -13q-107 0 -138 87q-14 38 -14 121v310z" />
    <glyph glyph-name="v" unicode="v" horiz-adv-x="429" 
d="M170 0l-152 508h96l100 -383l101 383h96l-152 -508h-89z" />
    <glyph glyph-name="w" unicode="w" horiz-adv-x="664" 
d="M155 0l-128 508h96l78 -371l97 371h67l97 -371l78 371h96l-128 -508h-80l-96 353l-97 -353h-80z" />
    <glyph glyph-name="x" unicode="x" horiz-adv-x="408" 
d="M151 260l-132 248h105l88 -171l83 171h102l-140 -251l137 -257h-105l-92 179l-87 -179h-102z" />
    <glyph glyph-name="y" unicode="y" horiz-adv-x="430" 
d="M168 1l-152 507h95l106 -395l97 395h96l-161 -578q-16 -57 -32.5 -87.5t-39.5 -46.5q-39 -26 -130 -26v79q54 0 71 16q20 19 34 74z" />
    <glyph glyph-name="z" unicode="z" horiz-adv-x="401" 
d="M31 0v57l206 373h-188v78h301v-58l-206 -372h218v-78h-331z" />
    <glyph glyph-name="braceleft" unicode="{" horiz-adv-x="371" 
d="M171 363q26 -12 38 -33q10 -18 12 -36t2 -85v-90q0 -95 14 -123.5t59 -28.5h19v-65h-40q-49 0 -76.5 8.5t-43.5 29.5q-17 22 -22 52t-5 107v112q0 55 -2 71.5t-10 30.5q-13 21 -52 21h-7v58h7q39 0 52 21q8 14 10 30.5t2 71.5v75q0 77 5 107t22 52q16 21 43.5 29.5
t76.5 8.5h40v-65h-19q-26 0 -40 -7.5t-21 -26.5q-12 -29 -12 -118v-53q0 -68 -2.5 -86.5t-13.5 -36.5q-10 -17 -36 -31z" />
    <glyph glyph-name="bar" unicode="|" 
d="M199 -98v885h82v-885h-82z" />
    <glyph glyph-name="braceright" unicode="}" horiz-adv-x="371" 
d="M200 363q-26 14 -37 31q-11 18 -13 36.5t-2 86.5v53q0 94 -14 123t-59 29h-19v65h40q49 0 76 -8.5t44 -29.5q17 -22 22 -52t5 -107v-75q0 -54 2 -71t10 -31q13 -21 52 -21h7v-58h-7q-39 0 -52 -21q-8 -14 -10 -31t-2 -71v-112q0 -77 -5 -107t-22 -52q-17 -21 -44 -29.5
t-76 -8.5h-40v65h19q26 0 40 7.5t21 26.5q12 29 12 118v90q0 67 2 85t12 36q12 21 38 33z" />
    <glyph glyph-name="asciitilde" unicode="~" 
d="M103 292l-57 13q17 72 48 102q27 27 70 27q24 0 40 -6.5t48 -30.5q30 -23 42.5 -29.5t26.5 -6.5q36 0 58 67l56 -17q-21 -68 -52 -97q-27 -25 -68 -25q-21 0 -37 7t-46 30q-32 24 -44 30t-26 6q-38 0 -59 -70z" />
    <glyph glyph-name="nonbreakingspace" unicode="&#xa0;" horiz-adv-x="180" 
 />
    <glyph glyph-name="exclamdown" unicode="&#xa1;" horiz-adv-x="278" 
d="M178 310l15 -519h-107l14 519h78zM186 505v-108h-94v108h94z" />
    <glyph glyph-name="cent" unicode="&#xa2;" 
d="M211 32v114q-76 15 -107 72q-28 49 -28 142v82q0 109 36 160q31 46 99 59v109h96v-111q49 -12 72.5 -38t36.5 -82l-78 -20q-10 39 -28.5 55.5t-51.5 16.5q-47 0 -68.5 -34t-21.5 -108v-97q0 -136 91 -136q36 0 56 17t29 56l77 -18q-11 -58 -36 -84.5t-78 -38.5v-116h-96z
" />
    <glyph glyph-name="sterling" unicode="&#xa3;" 
d="M49 0v70q49 18 76 66q24 42 24 94q0 34 -10 69h-92v82h59q-24 52 -32 82.5t-8 68.5q0 99 54 148q47 43 130 43q94 0 142 -52q41 -47 52 -137l-87 -17q-10 72 -37 101q-23 25 -66 25q-45 0 -69 -32q-20 -29 -20 -77q0 -34 9 -62.5t38 -90.5h147v-82h-124q8 -34 8 -62
q0 -95 -61 -155h273v-82h-406z" />
    <glyph glyph-name="currency" unicode="&#xa4;" 
d="M59 80l-49 45l74 82q-37 55 -37 126q0 69 37 126l-74 82l49 45l71 -80q51 34 110 34t110 -34l71 80l49 -45l-74 -82q36 -56 36 -126t-36 -126l74 -82l-49 -45l-71 81q-51 -35 -110 -35t-110 35zM240 471q-55 0 -86 -43q-27 -37 -27 -95q0 -67 35 -105q30 -33 78 -33
q55 0 86 43q27 37 27 95q0 67 -35 105q-31 33 -78 33z" />
    <glyph glyph-name="yen" unicode="&#xa5;" 
d="M192 0v147h-130v56h130v63h-130v56h106l-166 392h105l135 -346l135 346h104l-166 -392h106v-56h-130v-63h130v-56h-130v-147h-99z" />
    <glyph glyph-name="brokenbar" unicode="&#xa6;" horiz-adv-x="426" 
d="M167 447v267h91v-267h-91zM167 0v256h91v-256h-91z" />
    <glyph glyph-name="section" unicode="&#xa7;" 
d="M130 440q-31 22 -43.5 49t-12.5 71q0 84 49 126q43 38 117 38q73 0 112 -32q35 -27 50 -83l-80 -23q-14 33 -30.5 46.5t-45.5 13.5q-36 0 -56.5 -20.5t-20.5 -55.5t18 -56q11 -12 29.5 -21t62.5 -25q87 -30 116 -60q33 -37 33 -98q0 -44 -17.5 -74.5t-61.5 -61.5
q33 -22 46.5 -47.5t13.5 -65.5q0 -88 -54 -131q-46 -38 -130 -38q-80 0 -124 35q-39 30 -58 91l81 23l4 -9q18 -35 37.5 -48.5t55.5 -13.5q46 0 71 24q22 20 22 53q0 32 -19 53q-11 14 -28.5 22.5t-64.5 23.5q-91 29 -123 66q-29 34 -29 90q0 45 17.5 75t62.5 63zM190 409
q-3 -3 -18 -14q-32 -23 -32 -70q0 -42 23 -62q19 -17 80 -41l45 -18q5 5 20 16q30 25 30 68q0 39 -20 60q-11 12 -25 19.5t-58 24.5z" />
    <glyph glyph-name="dieresis" unicode="&#xa8;" horiz-adv-x="500" 
d="M122 587v111h85v-111h-85zM292 587v111h85v-111h-85z" />
    <glyph glyph-name="copyright" unicode="&#xa9;" horiz-adv-x="792" 
d="M461 283l69 -3q-2 -54 -38 -78q-32 -21 -92 -21q-76 0 -106 40q-27 35 -27 111v50q0 86 35 121q31 30 97 30q122 0 126 -100l-68 -2q-7 47 -55 47q-33 0 -47 -20.5t-14 -68.5v-64q0 -48 14 -68.5t47 -20.5q51 0 59 47zM396 729q103 0 187 -49q82 -47 128 -131
q47 -86 47 -192t-47 -192q-47 -84 -128 -131q-84 -49 -187 -49t-187 49q-81 47 -128 131q-47 86 -47 192t47 192q47 84 128 131q84 49 187 49zM396 664q-134 0 -216 -97q-71 -85 -71 -210q0 -144 92 -231q79 -76 195 -76q134 0 216 97q71 85 71 210q0 143 -92 231
q-79 76 -195 76z" />
    <glyph glyph-name="ordfeminine" unicode="&#xaa;" horiz-adv-x="298" 
d="M187 582v25q0 32 -11 46t-36 14q-34 0 -48 -34l-56 19q28 68 112 68q76 0 99 -44q13 -23 13 -78v-204h-59l-2 19q-27 -25 -77 -25q-54 0 -77.5 21.5t-23.5 73.5q0 58 32 80q27 19 90 19h44zM190 537h-45q-30 0 -42.5 -11.5t-12.5 -37.5q0 -27 11 -37.5t38 -10.5
q51 0 51 47v50z" />
    <glyph glyph-name="guillemotleft" unicode="&#xab;" horiz-adv-x="397" 
d="M299 295l74 -125l-58 -40l-118 165l118 165l58 -40zM126 295l74 -125l-58 -40l-118 165l118 165l58 -40z" />
    <glyph glyph-name="logicalnot" unicode="&#xac;" 
d="M48 323v76h360v-272h-91v196h-269z" />
    <glyph glyph-name="uni00AD" unicode="&#xad;" horiz-adv-x="397" 
d="M72 320v82h254v-82h-254z" />
    <glyph glyph-name="registered" unicode="&#xae;" horiz-adv-x="640" 
d="M283 550v-109h-63v276h113q53 0 77 -19.5t24 -62.5q0 -33 -11 -51.5t-37 -26.5l58 -116h-68l-50 109h-43zM282 588h47q42 0 42 42t-43 42h-46v-84zM320 866q131 0 213 -92q71 -80 71 -195q0 -132 -91 -215q-80 -72 -193 -72q-132 0 -214 92q-71 80 -71 195q0 133 91 215
q79 72 194 72zM319 806q-98 0 -155 -63q-61 -66 -61 -164t61 -164q57 -63 155 -63q99 0 156 63q61 66 61 164t-61 164q-57 63 -156 63z" />
    <glyph glyph-name="macron" unicode="&#xaf;" horiz-adv-x="500" 
d="M127 614v68h245v-68h-245z" />
    <glyph glyph-name="degree" unicode="&#xb0;" horiz-adv-x="359" 
d="M179 745q80 0 123 -47q38 -41 38 -109q0 -77 -49 -119q-42 -37 -112 -37q-80 0 -123 47q-37 41 -37 109q0 78 48 120q43 36 112 36zM179 681q-82 0 -82 -92t82 -92t82 92t-82 92z" />
    <glyph glyph-name="plusminus" unicode="&#xb1;" 
d="M39 331v75h160v173h82v-173h159v-75h-159v-172h-82v172h-160zM39 18v75h401v-75h-401z" />
    <glyph glyph-name="twosuperior" unicode="&#xb2;" horiz-adv-x="318" 
d="M30 386v50l112 144q57 74 57 123q0 56 -47 56q-45 0 -52 -67l-72 4q5 69 39 98q31 26 88 26q122 0 122 -117q0 -43 -13.5 -72t-67.5 -99l-64 -85h143v-61h-245z" />
    <glyph glyph-name="threesuperior" unicode="&#xb3;" horiz-adv-x="318" 
d="M98 584v54h39q29 0 45.5 16.5t16.5 45.5q0 27 -13 42.5t-37 15.5q-44 0 -51 -55l-71 4q6 63 39 89q29 23 87 23q122 0 122 -116q0 -63 -43 -91q28 -17 40.5 -41.5t12.5 -64.5q0 -126 -131 -126q-87 0 -118 52q-13 21 -16 66l72 5q5 -62 58 -62q59 0 59 66q0 35 -18 56
t-49 21h-44z" />
    <glyph glyph-name="acute" unicode="&#xb4;" horiz-adv-x="500" 
d="M197 581l67 146h109l-105 -146h-71z" />
    <glyph glyph-name="mu" unicode="&#xb5;" 
d="M68 505h91v-293q0 -83 21 -115q18 -28 57 -28q48 0 67 43q17 38 17 119v274h91v-505h-63l-12 59q-17 -37 -41 -53t-64 -16q-44 0 -73 29v-244h-91v730z" />
    <glyph glyph-name="paragraph" unicode="&#xb6;" horiz-adv-x="557" 
d="M195 -136v472h-21q-36 0 -57 5t-39 17q-35 24 -54.5 68.5t-19.5 99.5q0 63 23 110q21 40 55 59q24 13 45.5 16t95.5 3h241v-850h-89v772h-91v-772h-89z" />
    <glyph glyph-name="glyph121" unicode="&#xb7;" horiz-adv-x="245" 
d="M73 307v108h99v-108h-99z" />
    <glyph glyph-name="cedilla" unicode="&#xb8;" horiz-adv-x="500" 
d="M185 -226l43 158h93l-72 -158h-64z" />
    <glyph glyph-name="onesuperior" unicode="&#xb9;" horiz-adv-x="269" 
d="M110 386v352l-63 -27l-23 52l110 51h53v-428h-77z" />
    <glyph glyph-name="ordmasculine" unicode="&#xba;" horiz-adv-x="308" 
d="M29 520v68q0 74 34 105q30 27 91 27q70 0 99 -36q26 -31 26 -96v-68q0 -74 -34 -105q-30 -27 -93 -27q-68 0 -97 36q-26 32 -26 96zM102 519q1 -40 13 -57t39 -17q53 0 53 74v69q0 75 -53 75q-52 0 -52 -75v-69z" />
    <glyph glyph-name="guillemotright" unicode="&#xbb;" horiz-adv-x="397" 
d="M97 295l-73 125l58 40l118 -165l-118 -165l-58 40zM270 295l-73 125l58 40l118 -165l-118 -165l-58 40z" />
    <glyph glyph-name="onequarter" unicode="&#xbc;" horiz-adv-x="787" 
d="M136 286v350l-64 -27l-25 57l113 48h53v-428h-77zM222 0l192 714h88l-192 -714h-88zM611 0v76h-166v45l126 307h79l-120 -292h81v98h67v-98h38v-60h-38v-76h-67z" />
    <glyph glyph-name="onehalf" unicode="&#xbd;" horiz-adv-x="787" 
d="M129 286v350l-64 -27l-25 57l113 48h53v-428h-77zM209 0l192 714h88l-192 -714h-88zM468 0v50l112 144q57 74 57 123q0 56 -47 56q-45 0 -52 -67l-72 4q6 69 40 98q30 26 88 26q121 0 121 -117q0 -44 -13.5 -72.5t-66.5 -98.5l-65 -85h144v-61h-246z" />
    <glyph glyph-name="threequarters" unicode="&#xbe;" horiz-adv-x="787" 
d="M104 484v54h39q29 0 45.5 16.5t16.5 45.5q0 27 -13 42.5t-37 15.5q-44 0 -51 -55l-71 4q6 63 39 89q29 23 87 23q122 0 122 -116q0 -63 -43 -91q28 -17 40.5 -41.5t12.5 -64.5q0 -126 -131 -126q-87 0 -118 52q-13 21 -16 66l72 5q5 -62 58 -62q59 0 59 66q0 35 -18 56
t-49 21h-44zM638 0v76h-167v45l126 307h79l-119 -292h81v98h67v-98h37v-60h-37v-76h-67zM261 0l192 714h88l-192 -714h-88z" />
    <glyph glyph-name="questiondown" unicode="&#xbf;" horiz-adv-x="494" 
d="M298 312v-35q0 -62 -14 -94t-65 -86q-38 -40 -51 -66.5t-13 -63.5q0 -51 27 -80q24 -24 63 -24q46 0 70 29.5t34 98.5l91 -7q-18 -202 -197 -202q-96 0 -145 54q-42 48 -42 130q0 77 43 135q15 20 68 73q29 31 41 56t12 56v26h78zM306 505v-108h-95v108h95z" />
    <glyph glyph-name="Agrave" unicode="&#xc0;" horiz-adv-x="520" 
d="M381 151h-239l-42 -151h-107l223 714h90l223 -714h-107zM359 231l-98 353l-98 -353h196zM307 786h-70l-105 146h108z" />
    <glyph glyph-name="Aacute" unicode="&#xc1;" horiz-adv-x="520" 
d="M381 151h-239l-42 -151h-107l223 714h90l223 -714h-107zM359 231l-98 353l-98 -353h196zM215 786l67 146h108l-105 -146h-70z" />
    <glyph glyph-name="Acircumflex" unicode="&#xc2;" horiz-adv-x="520" 
d="M381 151h-239l-42 -151h-107l223 714h90l223 -714h-107zM359 231l-98 353l-98 -353h196zM260 870l-52 -80h-92l111 138h66l112 -138h-92z" />
    <glyph glyph-name="Atilde" unicode="&#xc3;" horiz-adv-x="520" 
d="M381 151h-239l-42 -151h-107l223 714h90l223 -714h-107zM359 231l-98 353l-98 -353h196zM173 798h-58q10 53 21 75q24 48 72 48q35 0 65 -31t43 -31q23 0 31 55h59q-9 -54 -18 -75q-21 -48 -72 -48q-39 0 -69 33q-26 29 -38 29q-27 0 -36 -55z" />
    <glyph glyph-name="Adieresis" unicode="&#xc4;" horiz-adv-x="520" 
d="M381 151h-239l-42 -151h-107l223 714h90l223 -714h-107zM359 231l-98 353l-98 -353h196zM132 792v111h84v-111h-84zM304 792v111h85v-111h-85z" />
    <glyph glyph-name="Aring" unicode="&#xc5;" horiz-adv-x="520" 
d="M381 151h-239l-42 -151h-107l223 714h90l223 -714h-107zM359 231l-98 353l-98 -353h196zM260 987q52 0 81 -32q26 -28 26 -72q0 -50 -33 -80q-29 -26 -74 -26q-51 0 -81 33q-26 29 -26 73q0 51 33 79q29 25 74 25zM260 940q-45 0 -45 -58q0 -57 45 -57q46 0 46 57
q0 58 -46 58z" />
    <glyph glyph-name="AE" unicode="&#xc6;" horiz-adv-x="813" 
d="M401 162h-247l-82 -162h-114l385 714h425v-82h-269v-230h229v-82h-229v-238h272v-82h-370v162zM401 242v390h-10l-197 -390h207z" />
    <glyph glyph-name="Ccedilla" unicode="&#xc7;" horiz-adv-x="538" 
d="M394 196l92 -5q-8 -201 -209 -201q-119 0 -173 80q-37 56 -37 182v209q0 74 10.5 118.5t35.5 75.5q55 67 165 67q195 0 201 -196l-92 -3q-8 119 -109 119q-65 0 -90 -49q-22 -43 -22 -138v-197q0 -108 30 -150q26 -37 83 -37q108 0 115 125zM194 -226l44 158h93l-72 -158
h-65z" />
    <glyph glyph-name="Egrave" unicode="&#xc8;" horiz-adv-x="495" 
d="M82 0v714h367v-82h-269v-230h229v-82h-229v-238h272v-82h-370zM325 786h-71l-105 146h109z" />
    <glyph glyph-name="Eacute" unicode="&#xc9;" horiz-adv-x="495" 
d="M82 0v714h367v-82h-269v-230h229v-82h-229v-238h272v-82h-370zM217 786l67 146h108l-105 -146h-70z" />
    <glyph glyph-name="Ecircumflex" unicode="&#xca;" horiz-adv-x="495" 
d="M82 0v714h367v-82h-269v-230h229v-82h-229v-238h272v-82h-370zM264 870l-52 -80h-93l112 138h66l112 -138h-92z" />
    <glyph glyph-name="Edieresis" unicode="&#xcb;" horiz-adv-x="495" 
d="M82 0v714h367v-82h-269v-230h229v-82h-229v-238h272v-82h-370zM139 792v111h84v-111h-84zM311 792v111h85v-111h-85z" />
    <glyph glyph-name="Igrave" unicode="&#xcc;" horiz-adv-x="261" 
d="M81 0v714h99v-714h-99zM179 786h-71l-105 146h108z" />
    <glyph glyph-name="Iacute" unicode="&#xcd;" horiz-adv-x="261" 
d="M76 0v714h99v-714h-99zM78 786l68 146h108l-105 -146h-71z" />
    <glyph glyph-name="Icircumflex" unicode="&#xce;" horiz-adv-x="261" 
d="M81 0v714h99v-714h-99zM131 870l-53 -80h-92l112 138h66l112 -138h-93z" />
    <glyph glyph-name="Idieresis" unicode="&#xcf;" horiz-adv-x="261" 
d="M81 0v714h99v-714h-99zM2 792v111h85v-111h-85zM175 792v111h84v-111h-84z" />
    <glyph glyph-name="Eth" unicode="&#xd0;" horiz-adv-x="576" 
d="M81 401v313h197q59 0 97 -10.5t67 -35.5q36 -32 51.5 -76t15.5 -119v-232q0 -75 -15.5 -119t-51.5 -76q-29 -24 -67.5 -35t-96.5 -11h-197v321h-67v80h67zM180 401h120v-80h-120v-240h90q82 0 113 44q27 39 27 128v208q0 101 -36 139q-32 33 -104 33h-90v-232z" />
    <glyph glyph-name="Ntilde" unicode="&#xd1;" horiz-adv-x="613" 
d="M81 0v714h97l259 -529v529h95v-714h-95l-261 531v-531h-95zM223 798h-58q10 53 21 75q24 48 72 48q35 0 65 -31t43 -31q23 0 32 55h58q-9 -52 -18 -75q-21 -48 -72 -48q-38 0 -69 33q-26 29 -38 29q-13 0 -22.5 -15t-13.5 -40z" />
    <glyph glyph-name="Ograve" unicode="&#xd2;" horiz-adv-x="576" 
d="M67 241v232q0 67 11 109.5t37 73.5q56 68 173 68q126 0 181 -79q40 -57 40 -172v-232q0 -67 -11.5 -109.5t-36.5 -73.5q-56 -68 -173 -68q-126 0 -182 79q-39 57 -39 172zM166 250q1 -102 33 -143q28 -36 89 -36q69 0 97 48q25 42 25 131v214q0 101 -33 142
q-28 37 -89 37q-69 0 -97 -48q-25 -42 -25 -131v-214zM343 786h-71l-105 146h108z" />
    <glyph glyph-name="Oacute" unicode="&#xd3;" horiz-adv-x="576" 
d="M67 241v232q0 67 11 109.5t37 73.5q56 68 173 68q126 0 181 -79q40 -57 40 -172v-232q0 -67 -11.5 -109.5t-36.5 -73.5q-56 -68 -173 -68q-126 0 -182 79q-39 57 -39 172zM166 250q1 -102 33 -143q28 -36 89 -36q69 0 97 48q25 42 25 131v214q0 101 -33 142
q-28 37 -89 37q-69 0 -97 -48q-25 -42 -25 -131v-214zM235 786l67 146h108l-105 -146h-70z" />
    <glyph glyph-name="Ocircumflex" unicode="&#xd4;" horiz-adv-x="576" 
d="M67 241v232q0 67 11 109.5t37 73.5q56 68 173 68q126 0 181 -79q40 -57 40 -172v-232q0 -67 -11.5 -109.5t-36.5 -73.5q-56 -68 -173 -68q-126 0 -182 79q-39 57 -39 172zM166 250q1 -102 33 -143q28 -36 89 -36q69 0 97 48q25 42 25 131v214q0 101 -33 142
q-28 37 -89 37q-69 0 -97 -48q-25 -42 -25 -131v-214zM288 870l-53 -80h-92l112 138h66l112 -138h-93z" />
    <glyph glyph-name="Otilde" unicode="&#xd5;" horiz-adv-x="576" 
d="M67 241v232q0 67 11 109.5t37 73.5q56 68 173 68q126 0 181 -79q40 -57 40 -172v-232q0 -67 -11.5 -109.5t-36.5 -73.5q-56 -68 -173 -68q-126 0 -182 79q-39 57 -39 172zM166 250q1 -102 33 -143q28 -36 89 -36q69 0 97 48q25 42 25 131v214q0 101 -33 142
q-28 37 -89 37q-69 0 -97 -48q-25 -42 -25 -131v-214zM201 798h-58q12 68 33 95.5t59 27.5q36 0 65 -31q30 -31 44 -31q22 0 31 55h58q-8 -52 -18 -75q-21 -48 -72 -48q-38 0 -68 33q-27 29 -39 29q-27 0 -35 -55z" />
    <glyph glyph-name="Odieresis" unicode="&#xd6;" horiz-adv-x="576" 
d="M67 241v232q0 67 11 109.5t37 73.5q56 68 173 68q126 0 181 -79q40 -57 40 -172v-232q0 -67 -11.5 -109.5t-36.5 -73.5q-56 -68 -173 -68q-126 0 -182 79q-39 57 -39 172zM166 250q1 -102 33 -143q28 -36 89 -36q69 0 97 48q25 42 25 131v214q0 101 -33 142
q-28 37 -89 37q-69 0 -97 -48q-25 -42 -25 -131v-214zM159 792v111h85v-111h-85zM332 792v111h84v-111h-84z" />
    <glyph glyph-name="multiply" unicode="&#xd7;" 
d="M187 361l-139 140l53 53l140 -140l139 140l53 -53l-139 -140l139 -139l-53 -53l-139 139l-140 -139l-53 53z" />
    <glyph glyph-name="Oslash" unicode="&#xd8;" horiz-adv-x="575" 
d="M483 621q15 -32 20.5 -63.5t5.5 -84.5v-232q0 -68 -11 -110t-37 -73q-56 -68 -174 -68q-89 0 -140 38l-27 -49l-68 40l41 73q-26 55 -26 149v232q0 67 11 109.5t37 73.5q56 68 175 68q87 0 139 -38l27 47l68 -40zM410 491l-215 -378q31 -42 92 -42q70 0 98 48
q25 42 25 131v214v27zM166 221l215 379q-31 43 -92 43q-70 0 -99 -48q-24 -42 -24 -131v-214v-29z" />
    <glyph glyph-name="Ugrave" unicode="&#xd9;" horiz-adv-x="588" 
d="M79 714h99v-480q0 -79 18 -111q15 -28 37.5 -39.5t60.5 -11.5q40 0 64 14t38 45q14 30 14 103v480h99v-480q0 -69 -8 -105t-29 -65q-29 -38 -71 -55.5t-107 -17.5q-133 0 -186 85q-16 26 -22.5 60.5t-6.5 97.5v480zM353 786h-71l-105 146h108z" />
    <glyph glyph-name="Uacute" unicode="&#xda;" horiz-adv-x="588" 
d="M79 714h99v-480q0 -79 18 -111q15 -28 37.5 -39.5t60.5 -11.5q40 0 64 14t38 45q14 30 14 103v480h99v-480q0 -69 -8 -105t-29 -65q-29 -38 -71 -55.5t-107 -17.5q-133 0 -186 85q-16 26 -22.5 60.5t-6.5 97.5v480zM244 786l67 146h109l-105 -146h-71z" />
    <glyph glyph-name="Ucircumflex" unicode="&#xdb;" horiz-adv-x="588" 
d="M79 714h99v-480q0 -79 18 -111q15 -28 37.5 -39.5t60.5 -11.5q40 0 64 14t38 45q14 30 14 103v480h99v-480q0 -69 -8 -105t-29 -65q-29 -38 -71 -55.5t-107 -17.5q-133 0 -186 85q-16 26 -22.5 60.5t-6.5 97.5v480zM294 870l-52 -80h-93l112 138h66l112 -138h-93z" />
    <glyph glyph-name="Udieresis" unicode="&#xdc;" horiz-adv-x="588" 
d="M79 714h99v-480q0 -79 18 -111q15 -28 37.5 -39.5t60.5 -11.5q40 0 64 14t38 45q14 30 14 103v480h99v-480q0 -69 -8 -105t-29 -65q-29 -38 -71 -55.5t-107 -17.5q-133 0 -186 85q-16 26 -22.5 60.5t-6.5 97.5v480zM165 792v111h85v-111h-85zM338 792v111h85v-111h-85z
" />
    <glyph glyph-name="Yacute" unicode="&#xdd;" horiz-adv-x="465" 
d="M184 0v257l-192 457h105l136 -347l137 347h105l-192 -457v-257h-99zM190 786l67 146h108l-105 -146h-70z" />
    <glyph glyph-name="Thorn" unicode="&#xde;" horiz-adv-x="519" 
d="M181 158v-158h-99v714h99v-114h91q65 0 103.5 -13t64.5 -44q47 -56 47 -164q0 -117 -55 -173q-26 -26 -63 -37t-96 -11h-92zM180 239h92q63 0 89 33q27 36 27 107q0 79 -31 112q-28 29 -84 29h-93v-281z" />
    <glyph glyph-name="germandbls" unicode="&#xdf;" horiz-adv-x="490" 
d="M67 0v538q0 101 47 145q41 39 122 39q87 0 131 -46q38 -40 38 -110q0 -39 -9 -66t-31 -56q39 -24 55.5 -67.5t16.5 -125.5v-35q0 -128 -43 -175q-37 -41 -124 -41h-38v77h27q54 0 69 30q14 27 14 103v46q0 89 -18 115q-16 23 -63 23h-14v70h14q56 0 56 91q0 92 -79 92
q-41 0 -59 -25t-18 -83v-539h-94z" />
    <glyph glyph-name="agrave" unicode="&#xe0;" horiz-adv-x="460" 
d="M300 301v29q0 60 -18 85t-63 25q-33 0 -52 -16t-31 -54l-80 24q32 123 166 123q112 0 151 -70q22 -41 22 -128v-319h-75l-6 33q-21 -24 -47.5 -33.5t-73.5 -9.5q-90 0 -125 40q-31 35 -31 113q0 93 43 127q39 31 127 31h93zM300 232h-75q-52 0 -74 -20t-22 -67
q0 -44 19 -61.5t67 -17.5q49 0 67 19.5t18 72.5v74zM292 581h-70l-105 146h108z" />
    <glyph glyph-name="aacute" unicode="&#xe1;" horiz-adv-x="460" 
d="M300 301v29q0 60 -18 85t-63 25q-33 0 -52 -16t-31 -54l-80 24q32 123 166 123q112 0 151 -70q22 -41 22 -128v-319h-75l-6 33q-21 -24 -47.5 -33.5t-73.5 -9.5q-90 0 -125 40q-31 35 -31 113q0 93 43 127q39 31 127 31h93zM300 232h-75q-52 0 -74 -20t-22 -67
q0 -44 19 -61.5t67 -17.5q49 0 67 19.5t18 72.5v74zM183 581l68 146h108l-105 -146h-71z" />
    <glyph glyph-name="acircumflex" unicode="&#xe2;" horiz-adv-x="460" 
d="M300 301v29q0 60 -18 85t-63 25q-33 0 -52 -16t-31 -54l-80 24q32 123 166 123q112 0 151 -70q22 -41 22 -128v-319h-75l-6 33q-21 -24 -47.5 -33.5t-73.5 -9.5q-90 0 -125 40q-31 35 -31 113q0 93 43 127q39 31 127 31h93zM300 232h-75q-52 0 -74 -20t-22 -67
q0 -44 19 -61.5t67 -17.5q49 0 67 19.5t18 72.5v74zM232 665l-53 -80h-92l112 138h65l112 -138h-92z" />
    <glyph glyph-name="atilde" unicode="&#xe3;" horiz-adv-x="460" 
d="M300 301v29q0 60 -18 85t-63 25q-33 0 -52 -16t-31 -54l-80 24q32 123 166 123q112 0 151 -70q22 -41 22 -128v-319h-75l-6 33q-21 -24 -47.5 -33.5t-73.5 -9.5q-90 0 -125 40q-31 35 -31 113q0 93 43 127q39 31 127 31h93zM300 232h-75q-52 0 -74 -20t-22 -67
q0 -44 19 -61.5t67 -17.5q49 0 67 19.5t18 72.5v74zM144 593h-58q10 53 21 75q25 48 72 48q36 0 65 -31q30 -31 44 -31q22 0 31 55h58q-8 -53 -18 -75q-21 -48 -72 -48q-38 0 -68 33q-27 29 -39 29q-27 0 -36 -55z" />
    <glyph glyph-name="adieresis" unicode="&#xe4;" horiz-adv-x="460" 
d="M300 301v29q0 60 -18 85t-63 25q-33 0 -52 -16t-31 -54l-80 24q32 123 166 123q112 0 151 -70q22 -41 22 -128v-319h-75l-6 33q-21 -24 -47.5 -33.5t-73.5 -9.5q-90 0 -125 40q-31 35 -31 113q0 93 43 127q39 31 127 31h93zM300 232h-75q-52 0 -74 -20t-22 -67
q0 -44 19 -61.5t67 -17.5q49 0 67 19.5t18 72.5v74zM103 587v111h85v-111h-85zM274 587v111h84v-111h-84z" />
    <glyph glyph-name="aring" unicode="&#xe5;" horiz-adv-x="460" 
d="M300 301v29q0 60 -18 85t-63 25q-33 0 -52 -16t-31 -54l-80 24q32 123 166 123q112 0 151 -70q22 -41 22 -128v-319h-75l-6 33q-21 -24 -47.5 -33.5t-73.5 -9.5q-90 0 -125 40q-31 35 -31 113q0 93 43 127q39 31 127 31h93zM300 232h-75q-52 0 -74 -20t-22 -67
q0 -44 19 -61.5t67 -17.5q49 0 67 19.5t18 72.5v74zM233 782q52 0 81 -32q26 -28 26 -71q0 -51 -34 -81q-29 -26 -73 -26q-51 0 -81 34q-26 29 -26 73q0 50 33 78q29 25 74 25zM233 735q-45 0 -45 -58q0 -57 45 -57q46 0 46 57q0 58 -46 58z" />
    <glyph glyph-name="ae" unicode="&#xe6;" horiz-adv-x="720" 
d="M352 457q42 60 138 60q100 0 142 -61q36 -55 36 -167v-56h-272v-36q0 -72 27 -103q23 -28 70 -28q71 0 87 72l81 -17q-14 -73 -59 -104q-39 -27 -109 -27q-53 0 -86.5 16t-56.5 52q-34 -68 -156 -68q-91 0 -126 40q-31 36 -31 114q0 93 44 127q38 31 126 31h93v28
q0 60 -18.5 85t-62.5 25q-63 0 -86 -69l-76 24q13 63 60 95q42 27 105 27q93 0 130 -60zM300 233h-75q-52 0 -74 -20t-22 -68q0 -45 19 -63t67 -18q51 0 69 26q16 23 16 78v65zM396 302h182v20q0 120 -91 120t-91 -120v-20z" />
    <glyph glyph-name="ccedilla" unicode="&#xe7;" horiz-adv-x="425" 
d="M318 138l81 -17q-13 -72 -58 -103q-40 -28 -109 -28q-96 0 -139 61q-37 54 -37 160v81q0 125 49 179q43 47 131 47q74 0 111 -33q32 -29 46 -92l-81 -24q-9 38 -27 54.5t-49 16.5q-45 0 -65.5 -33.5t-20.5 -106.5v-97q0 -135 88 -135q34 0 52.5 16.5t27.5 53.5zM140 -226
l43 158h93l-71 -158h-65z" />
    <glyph glyph-name="egrave" unicode="&#xe8;" horiz-adv-x="473" 
d="M151 233v-36q0 -71 27 -102q23 -28 70 -28q37 0 57.5 16.5t29.5 54.5l80 -17q-13 -73 -59 -104q-40 -27 -114 -27q-103 0 -147 62q-39 54 -39 164v73q0 127 50 181q43 47 133 47q103 0 146 -61q37 -54 37 -167v-56h-271zM150 303h182v19q0 120 -91 120t-91 -120v-19z
M297 581h-70l-105 146h108z" />
    <glyph glyph-name="eacute" unicode="&#xe9;" horiz-adv-x="473" 
d="M151 233v-36q0 -71 27 -102q23 -28 70 -28q37 0 57.5 16.5t29.5 54.5l80 -17q-13 -73 -59 -104q-40 -27 -114 -27q-103 0 -147 62q-39 54 -39 164v73q0 127 50 181q43 47 133 47q103 0 146 -61q37 -54 37 -167v-56h-271zM150 303h182v19q0 120 -91 120t-91 -120v-19z
M189 581l67 146h109l-105 -146h-71z" />
    <glyph glyph-name="ecircumflex" unicode="&#xea;" horiz-adv-x="473" 
d="M151 233v-36q0 -71 27 -102q23 -28 70 -28q37 0 57.5 16.5t29.5 54.5l80 -17q-13 -73 -59 -104q-40 -27 -114 -27q-103 0 -147 62q-39 54 -39 164v73q0 127 50 181q43 47 133 47q103 0 146 -61q37 -54 37 -167v-56h-271zM150 303h182v19q0 120 -91 120t-91 -120v-19z
M243 665l-53 -80h-92l112 138h65l112 -138h-92z" />
    <glyph glyph-name="edieresis" unicode="&#xeb;" horiz-adv-x="473" 
d="M151 233v-36q0 -71 27 -102q23 -28 70 -28q37 0 57.5 16.5t29.5 54.5l80 -17q-13 -73 -59 -104q-40 -27 -114 -27q-103 0 -147 62q-39 54 -39 164v73q0 127 50 181q43 47 133 47q103 0 146 -61q37 -54 37 -167v-56h-271zM150 303h182v19q0 120 -91 120t-91 -120v-19z
M115 587v111h85v-111h-85zM285 587v111h85v-111h-85z" />
    <glyph glyph-name="igrave" unicode="&#xec;" horiz-adv-x="232" 
d="M69 0v508h94v-508h-94zM167 581h-71l-105 146h108z" />
    <glyph glyph-name="iacute" unicode="&#xed;" horiz-adv-x="232" 
d="M66 0v508h94v-508h-94zM63 581l67 146h109l-105 -146h-71z" />
    <glyph glyph-name="icircumflex" unicode="&#xee;" horiz-adv-x="232" 
d="M69 0v508h94v-508h-94zM116 665l-53 -80h-92l112 138h66l112 -138h-93z" />
    <glyph glyph-name="idieresis" unicode="&#xef;" horiz-adv-x="232" 
d="M69 0v508h94v-508h-94zM-11 587v111h85v-111h-85zM159 587v111h84v-111h-84z" />
    <glyph glyph-name="eth" unicode="&#xf0;" horiz-adv-x="482" 
d="M300 486q-21 65 -44 93l-91 -50l-33 49l76 41q-28 20 -44.5 27.5t-42.5 13.5l12 64q89 -13 150 -62l73 40l33 -48l-60 -33q46 -56 73 -154q24 -85 24 -172v-97q0 -116 -50 -165q-44 -43 -135 -43q-104 0 -147 56q-38 50 -38 152v102q0 105 38 152q44 55 129 55
q48 0 77 -21zM150 203q2 -79 25 -109q21 -26 66 -26q51 0 72 36q18 32 18 99v92q0 76 -24 107q-22 28 -66 28q-48 0 -69.5 -32t-21.5 -103v-92z" />
    <glyph glyph-name="ntilde" unicode="&#xf1;" horiz-adv-x="490" 
d="M68 0v508h71l8 -47q23 31 50.5 43.5t70.5 12.5q110 0 143 -87q14 -37 14 -121v-309h-94v298q0 80 -21 111q-19 27 -60 27q-51 0 -70 -40q-18 -36 -18 -116v-280h-94zM158 593h-58q10 54 20 75q25 48 72 48q36 0 65 -31q30 -31 44 -31q22 0 31 55h58q-8 -53 -18 -75
q-21 -48 -72 -48q-38 0 -68 33q-27 29 -39 29q-27 0 -35 -55z" />
    <glyph glyph-name="ograve" unicode="&#xf2;" horiz-adv-x="482" 
d="M56 202v104q0 118 50 168q44 43 135 43q103 0 146 -57q39 -50 39 -154v-104q0 -119 -51 -168q-44 -44 -134 -44q-103 0 -147 58q-38 50 -38 154zM150 201q2 -79 25 -108q20 -25 66 -25q51 0 72 35q18 32 18 98v105q0 76 -24 107q-21 27 -66 27q-51 0 -72 -36
q-19 -31 -19 -98v-105zM296 581h-71l-105 146h108z" />
    <glyph glyph-name="oacute" unicode="&#xf3;" horiz-adv-x="482" 
d="M56 202v104q0 118 50 168q44 43 135 43q103 0 146 -57q39 -50 39 -154v-104q0 -119 -51 -168q-44 -44 -134 -44q-103 0 -147 58q-38 50 -38 154zM150 201q2 -79 25 -108q20 -25 66 -25q51 0 72 35q18 32 18 98v105q0 76 -24 107q-21 27 -66 27q-51 0 -72 -36
q-19 -31 -19 -98v-105zM187 581l68 146h108l-105 -146h-71z" />
    <glyph glyph-name="ocircumflex" unicode="&#xf4;" horiz-adv-x="482" 
d="M56 202v104q0 118 50 168q44 43 135 43q103 0 146 -57q39 -50 39 -154v-104q0 -119 -51 -168q-44 -44 -134 -44q-103 0 -147 58q-38 50 -38 154zM150 201q2 -79 25 -108q20 -25 66 -25q51 0 72 35q18 32 18 98v105q0 76 -24 107q-21 27 -66 27q-51 0 -72 -36
q-19 -31 -19 -98v-105zM241 665l-53 -80h-92l112 138h66l112 -138h-93z" />
    <glyph glyph-name="otilde" unicode="&#xf5;" horiz-adv-x="482" 
d="M56 202v104q0 118 50 168q44 43 135 43q103 0 146 -57q39 -50 39 -154v-104q0 -119 -51 -168q-44 -44 -134 -44q-103 0 -147 58q-38 50 -38 154zM150 201q2 -79 25 -108q20 -25 66 -25q51 0 72 35q18 32 18 98v105q0 76 -24 107q-21 27 -66 27q-51 0 -72 -36
q-19 -31 -19 -98v-105zM154 593h-58q10 53 20 75q25 48 72 48q36 0 65 -31q30 -31 44 -31q22 0 31 55h58q-9 -54 -18 -75q-21 -48 -72 -48q-38 0 -68 33q-27 29 -39 29q-27 0 -35 -55z" />
    <glyph glyph-name="odieresis" unicode="&#xf6;" horiz-adv-x="482" 
d="M56 202v104q0 118 50 168q44 43 135 43q103 0 146 -57q39 -50 39 -154v-104q0 -119 -51 -168q-44 -44 -134 -44q-103 0 -147 58q-38 50 -38 154zM150 201q2 -79 25 -108q20 -25 66 -25q51 0 72 35q18 32 18 98v105q0 76 -24 107q-21 27 -66 27q-51 0 -72 -36
q-19 -31 -19 -98v-105zM114 587v111h84v-111h-84zM283 587v111h85v-111h-85z" />
    <glyph glyph-name="divide" unicode="&#xf7;" 
d="M39 323v76h401v-76h-401zM197 154v95h85v-95h-85zM197 473v96h85v-96h-85z" />
    <glyph glyph-name="oslash" unicode="&#xf8;" horiz-adv-x="483" 
d="M397 447q29 -47 29 -141v-104q0 -118 -50 -168q-44 -44 -134 -44q-70 0 -111 26l-24 -38l-53 35l30 49q-28 48 -28 140v104q0 118 50 168q44 43 135 43q67 0 109 -24l23 37l54 -35zM331 340l-153 -248q22 -24 63 -24q48 0 69.5 31.5t21.5 101.5v106q0 18 -1 33zM151 171
l153 246q-23 23 -62 23q-52 0 -73 -36q-19 -31 -19 -97v-106q0 -12 1 -30z" />
    <glyph glyph-name="ugrave" unicode="&#xf9;" 
d="M64 508h94v-299q0 -80 20 -111q18 -27 57 -27q47 0 65 41q17 37 17 116v280h94v-508h-70l-8 47q-22 -31 -48.5 -44t-68.5 -13q-107 0 -138 87q-14 38 -14 121v310zM294 581h-71l-105 146h109z" />
    <glyph glyph-name="uacute" unicode="&#xfa;" 
d="M64 508h94v-299q0 -80 20 -111q18 -27 57 -27q47 0 65 41q17 37 17 116v280h94v-508h-70l-8 47q-22 -31 -48.5 -44t-68.5 -13q-107 0 -138 87q-14 38 -14 121v310zM186 581l67 146h108l-105 -146h-70z" />
    <glyph glyph-name="ucircumflex" unicode="&#xfb;" 
d="M64 508h94v-299q0 -80 20 -111q18 -27 57 -27q47 0 65 41q17 37 17 116v280h94v-508h-70l-8 47q-22 -31 -48.5 -44t-68.5 -13q-107 0 -138 87q-14 38 -14 121v310zM239 665l-52 -80h-93l112 138h66l112 -138h-92z" />
    <glyph glyph-name="udieresis" unicode="&#xfc;" 
d="M64 508h94v-299q0 -80 20 -111q18 -27 57 -27q47 0 65 41q17 37 17 116v280h94v-508h-70l-8 47q-22 -31 -48.5 -44t-68.5 -13q-107 0 -138 87q-14 38 -14 121v310zM112 587v111h85v-111h-85zM282 587v111h84v-111h-84z" />
    <glyph glyph-name="yacute" unicode="&#xfd;" horiz-adv-x="430" 
d="M168 1l-152 507h95l106 -395l97 395h96l-161 -578q-16 -57 -32.5 -87.5t-39.5 -46.5q-39 -26 -130 -26v79q54 0 71 16q20 19 34 74zM171 581l68 146h108l-105 -146h-71z" />
    <glyph glyph-name="thorn" unicode="&#xfe;" horiz-adv-x="487" 
d="M163 26v-251h-94v939h94v-235q41 38 109 38q88 0 126 -57q34 -51 34 -151v-102q0 -121 -45 -172q-39 -45 -119 -45q-64 0 -105 36zM163 210q1 -79 25 -112q22 -29 64 -29q86 0 86 136v103q0 130 -85 130q-90 0 -90 -140v-88z" />
    <glyph glyph-name="ydieresis" unicode="&#xff;" horiz-adv-x="430" 
d="M168 1l-152 507h95l106 -395l97 395h96l-161 -578q-16 -57 -32.5 -87.5t-39.5 -46.5q-39 -26 -130 -26v79q54 0 71 16q20 19 34 74zM88 587v111h84v-111h-84zM257 587v111h85v-111h-85z" />
    <glyph glyph-name="Amacron" unicode="&#x100;" horiz-adv-x="520" 
d="M381 151h-239l-42 -151h-107l223 714h90l223 -714h-107zM359 231l-98 353l-98 -353h196zM138 819v68h245v-68h-245z" />
    <glyph glyph-name="amacron" unicode="&#x101;" horiz-adv-x="460" 
d="M300 301v29q0 60 -18 85t-63 25q-33 0 -52 -16t-31 -54l-80 24q32 123 166 123q112 0 151 -70q22 -41 22 -128v-319h-75l-6 33q-21 -24 -47.5 -33.5t-73.5 -9.5q-90 0 -125 40q-31 35 -31 113q0 93 43 127q39 31 127 31h93zM300 232h-75q-52 0 -74 -20t-22 -67
q0 -44 19 -61.5t67 -17.5q49 0 67 19.5t18 72.5v74zM107 614v68h246v-68h-246z" />
    <glyph glyph-name="Abreve" unicode="&#x102;" horiz-adv-x="520" 
d="M381 151h-239l-42 -151h-107l223 714h90l223 -714h-107zM359 231l-98 353l-98 -353h196zM127 924h61q5 -42 20.5 -58t51.5 -16t52 16t20 58h61q-2 -63 -15 -88q-30 -55 -118 -55q-95 0 -121 64q-10 22 -12 79z" />
    <glyph glyph-name="abreve" unicode="&#x103;" horiz-adv-x="460" 
d="M300 301v29q0 60 -18 85t-63 25q-33 0 -52 -16t-31 -54l-80 24q32 123 166 123q112 0 151 -70q22 -41 22 -128v-319h-75l-6 33q-21 -24 -47.5 -33.5t-73.5 -9.5q-90 0 -125 40q-31 35 -31 113q0 93 43 127q39 31 127 31h93zM300 232h-75q-52 0 -74 -20t-22 -67
q0 -44 19 -61.5t67 -17.5q49 0 67 19.5t18 72.5v74zM99 719h61q5 -42 20.5 -58t51.5 -16t52 16t20 58h61q-2 -63 -15 -88q-30 -55 -118 -55q-94 0 -121 64q-9 22 -12 79z" />
    <glyph glyph-name="Aogonek" unicode="&#x104;" horiz-adv-x="520" 
d="M529 0q-46 -35 -62.5 -57.5t-16.5 -48.5q0 -37 42 -37q22 0 50 9l11 -51q-38 -15 -81 -15q-107 0 -107 78q0 34 24.5 67.5t65.5 54.5h-33l-41 151h-239l-42 -151h-107l223 714h90zM359 231l-98 353l-98 -353h196z" />
    <glyph glyph-name="aogonek" unicode="&#x105;" horiz-adv-x="460" 
d="M394 0q-43 -32 -61.5 -56.5t-18.5 -49.5q0 -37 42 -37q22 0 51 9l11 -51q-39 -15 -82 -15q-106 0 -106 78q0 68 86 120q1 1 4 2v1l-6 32q-21 -24 -47.5 -33.5t-73.5 -9.5q-90 0 -125 40q-31 35 -31 113q0 93 43 127q39 31 127 31h93v29q0 60 -18 85t-63 25q-33 0 -52 -16
t-31 -54l-80 24q32 123 166 123q112 0 151 -70q22 -41 22 -128v-319h-1zM300 232h-75q-52 0 -74 -20t-22 -67q0 -44 19 -61.5t67 -17.5q49 0 67 19.5t18 72.5v74z" />
    <glyph glyph-name="Cacute" unicode="&#x106;" horiz-adv-x="538" 
d="M394 196l92 -5q-8 -201 -209 -201q-119 0 -173 80q-37 56 -37 182v209q0 74 10.5 118.5t35.5 75.5q55 67 165 67q195 0 201 -196l-92 -3q-8 119 -109 119q-65 0 -90 -49q-22 -43 -22 -138v-197q0 -108 30 -150q26 -37 83 -37q108 0 115 125zM225 786l67 146h109
l-106 -146h-70z" />
    <glyph glyph-name="cacute" unicode="&#x107;" horiz-adv-x="425" 
d="M318 138l81 -17q-13 -72 -58 -103q-40 -28 -109 -28q-96 0 -139 61q-37 54 -37 160v81q0 125 49 179q43 47 131 47q74 0 111 -33q32 -29 46 -92l-81 -24q-9 38 -27 54.5t-49 16.5q-45 0 -65.5 -33.5t-20.5 -106.5v-97q0 -135 88 -135q34 0 52.5 16.5t27.5 53.5zM184 581
l67 146h109l-106 -146h-70z" />
    <glyph glyph-name="Ccircumflex" unicode="&#x108;" horiz-adv-x="537" 
d="M394 197l92 -6q-4 -105 -64 -156q-52 -45 -145 -45q-119 0 -173 80q-37 56 -37 181v211q0 73 10.5 117.5t35.5 75.5q54 67 165 67q193 0 200 -196l-91 -4q-5 66 -35 94q-26 25 -74 25q-65 0 -90 -48q-22 -43 -22 -137v-199q0 -108 29 -149q26 -37 84 -37q108 0 115 126z
M277 870l-53 -80h-92l112 138h66l112 -138h-93z" />
    <glyph glyph-name="ccircumflex" unicode="&#x109;" horiz-adv-x="425" 
d="M318 138l81 -17q-13 -72 -58 -103q-40 -28 -109 -28q-96 0 -139 61q-37 54 -37 160v81q0 125 49 179q43 47 131 47q74 0 111 -33q32 -29 46 -92l-81 -24q-9 38 -27 54.5t-49 16.5q-45 0 -65.5 -33.5t-20.5 -106.5v-97q0 -135 88 -135q34 0 52.5 16.5t27.5 53.5zM232 665
l-53 -80h-92l112 138h65l113 -138h-93z" />
    <glyph glyph-name="Cdotaccent" unicode="&#x10a;" horiz-adv-x="538" 
d="M394 196l92 -5q-8 -201 -209 -201q-119 0 -173 80q-37 56 -37 182v209q0 74 10.5 118.5t35.5 75.5q55 67 165 67q195 0 201 -196l-92 -3q-8 119 -109 119q-65 0 -90 -49q-22 -43 -22 -138v-197q0 -108 30 -150q26 -37 83 -37q108 0 115 125zM234 792v111h91v-111h-91z
" />
    <glyph glyph-name="cdotaccent" unicode="&#x10b;" horiz-adv-x="425" 
d="M318 138l81 -17q-13 -72 -58 -103q-40 -28 -109 -28q-96 0 -139 61q-37 54 -37 160v81q0 125 49 179q43 47 131 47q74 0 111 -33q32 -29 46 -92l-81 -24q-9 38 -27 54.5t-49 16.5q-45 0 -65.5 -33.5t-20.5 -106.5v-97q0 -135 88 -135q34 0 52.5 16.5t27.5 53.5zM187 587
v111h91v-111h-91z" />
    <glyph glyph-name="Ccaron" unicode="&#x10c;" horiz-adv-x="538" 
d="M394 196l92 -5q-8 -201 -209 -201q-119 0 -173 80q-37 56 -37 182v209q0 74 10.5 118.5t35.5 75.5q55 67 165 67q195 0 201 -196l-92 -3q-8 119 -109 119q-65 0 -90 -49q-22 -43 -22 -138v-197q0 -108 30 -150q26 -37 83 -37q108 0 115 125zM280 847l52 79h93l-112 -138
h-66l-112 138h92z" />
    <glyph glyph-name="ccaron" unicode="&#x10d;" horiz-adv-x="425" 
d="M318 138l81 -17q-13 -72 -58 -103q-40 -28 -109 -28q-96 0 -139 61q-37 54 -37 160v81q0 125 49 179q43 47 131 47q74 0 111 -33q32 -29 46 -92l-81 -24q-9 38 -27 54.5t-49 16.5q-45 0 -65.5 -33.5t-20.5 -106.5v-97q0 -135 88 -135q34 0 52.5 16.5t27.5 53.5zM235 642
l52 79h93l-112 -138h-66l-112 138h92z" />
    <glyph glyph-name="Dcaron" unicode="&#x10e;" horiz-adv-x="576" 
d="M81 0v714h197q59 0 97 -10.5t67 -35.5q37 -32 52 -76t15 -119v-232q0 -75 -15 -119t-52 -76q-54 -46 -164 -46h-197zM180 81h90q82 0 113 44q27 39 27 128v208q0 101 -36 139q-31 33 -104 33h-90v-552zM266 847l52 79h93l-112 -138h-66l-112 138h92z" />
    <glyph glyph-name="dcaron" unicode="&#x10f;" horiz-adv-x="572" 
d="M346 0l-6 38l-3 -3q-1 -2 -2 -2q-23 -23 -49.5 -33t-65.5 -10q-91 0 -130 59q-34 52 -34 158v102q0 114 44 164q39 44 116 44q37 0 61.5 -8.5t47.5 -30.5v236h94v-714h-73zM325 298q-2 79 -26 112q-21 28 -64 28q-85 0 -85 -130v-102q0 -75 24 -108q21 -29 62 -29
q89 0 89 141v88zM475 481l26 244h92l-52 -244h-66z" />
    <glyph glyph-name="Dcroat" unicode="&#x110;" horiz-adv-x="576" 
d="M81 401v313h197q59 0 97 -10.5t67 -35.5q36 -32 51.5 -76t15.5 -119v-232q0 -75 -15.5 -119t-51.5 -76q-29 -24 -67.5 -35t-96.5 -11h-197v321h-67v80h67zM180 401h120v-80h-120v-240h90q82 0 113 44q27 39 27 128v208q0 101 -36 139q-32 33 -104 33h-90v-232z" />
    <glyph glyph-name="dcroat" unicode="&#x111;" horiz-adv-x="488" 
d="M325 571h-125v66h125v77h94v-77h66v-66h-66v-571h-73l-6 38l-3 -3l-2 -2q-23 -23 -49.5 -33t-65.5 -10q-91 0 -130 59q-34 52 -34 158v102q0 115 44 165q39 43 116 43q37 0 61.5 -8.5t47.5 -30.5v93zM325 298q-2 79 -26 112q-21 28 -64 28q-85 0 -85 -130v-102
q0 -137 86 -137q89 0 89 141v88z" />
    <glyph glyph-name="Emacron" unicode="&#x112;" horiz-adv-x="495" 
d="M82 0v714h367v-82h-269v-230h229v-82h-229v-238h272v-82h-370zM140 819v68h245v-68h-245z" />
    <glyph glyph-name="emacron" unicode="&#x113;" horiz-adv-x="473" 
d="M151 233v-36q0 -71 27 -102q23 -28 70 -28q37 0 57.5 16.5t29.5 54.5l80 -17q-13 -73 -59 -104q-40 -27 -114 -27q-103 0 -147 62q-39 54 -39 164v73q0 127 50 181q43 47 133 47q103 0 146 -61q37 -54 37 -167v-56h-271zM150 303h182v19q0 120 -91 120t-91 -120v-19z
M118 614v69h245v-69h-245z" />
    <glyph glyph-name="Ebreve" unicode="&#x114;" horiz-adv-x="495" 
d="M82 0v714h367v-82h-269v-230h229v-82h-229v-238h272v-82h-370zM134 924h61q5 -42 20.5 -58t51.5 -16q37 0 52.5 16t20.5 58h61q-3 -63 -16 -88q-30 -55 -117 -55q-95 0 -122 64q-9 22 -12 79z" />
    <glyph glyph-name="ebreve" unicode="&#x115;" horiz-adv-x="473" 
d="M151 233v-36q0 -71 27 -102q23 -28 70 -28q37 0 57.5 16.5t29.5 54.5l80 -17q-13 -73 -59 -104q-40 -27 -114 -27q-103 0 -147 62q-39 54 -39 164v73q0 127 50 181q43 47 133 47q103 0 146 -61q37 -54 37 -167v-56h-271zM150 303h182v19q0 120 -91 120t-91 -120v-19z
M107 719h61q5 -42 20.5 -58t51.5 -16t51.5 16t20.5 58h61q-3 -63 -16 -88q-29 -55 -117 -55q-95 0 -122 64q-9 21 -11 79z" />
    <glyph glyph-name="Edotaccent" unicode="&#x116;" horiz-adv-x="495" 
d="M82 0v714h367v-82h-269v-230h229v-82h-229v-238h272v-82h-370zM225 792v111h91v-111h-91z" />
    <glyph glyph-name="edotaccent" unicode="&#x117;" horiz-adv-x="473" 
d="M151 233v-36q0 -71 27 -102q23 -28 70 -28q37 0 57.5 16.5t29.5 54.5l80 -17q-13 -73 -59 -104q-40 -27 -114 -27q-103 0 -147 62q-39 54 -39 164v73q0 127 50 181q43 47 133 47q103 0 146 -61q37 -54 37 -167v-56h-271zM150 303h182v19q0 120 -91 120t-91 -120v-19z
M197 587v111h91v-111h-91z" />
    <glyph glyph-name="Eogonek" unicode="&#x118;" horiz-adv-x="495" 
d="M82 0v714h367v-82h-269v-230h229v-82h-229v-238h272v-82q-44 -33 -62 -57t-18 -49q0 -37 42 -37q22 0 51 9l11 -51q-40 -15 -81 -15q-107 0 -107 78q0 71 89 122h-295z" />
    <glyph glyph-name="eogonek" unicode="&#x119;" horiz-adv-x="473" 
d="M304 -3q-41 -32 -58 -55t-17 -48q0 -37 42 -37q22 0 51 9l10 -51q-39 -15 -81 -15q-107 0 -107 78q0 33 17 58t59 55q-94 9 -131 68q-33 52 -33 157v73q0 127 50 181q43 47 133 47q103 0 146 -61q37 -54 37 -167v-56h-271v-36q0 -71 27 -102q23 -28 70 -28
q37 0 57.5 16.5t29.5 54.5l80 -17q-10 -55 -36 -84.5t-75 -39.5zM150 303h182v19q0 120 -91 120t-91 -120v-19z" />
    <glyph glyph-name="Ecaron" unicode="&#x11a;" horiz-adv-x="495" 
d="M82 0v714h367v-82h-269v-230h229v-82h-229v-238h272v-82h-370zM270 847l53 79h92l-112 -138h-66l-112 138h93z" />
    <glyph glyph-name="ecaron" unicode="&#x11b;" horiz-adv-x="473" 
d="M151 233v-36q0 -71 27 -102q23 -28 70 -28q37 0 57.5 16.5t29.5 54.5l80 -17q-13 -73 -59 -104q-40 -27 -114 -27q-103 0 -147 62q-39 54 -39 164v73q0 127 50 181q43 47 133 47q103 0 146 -61q37 -54 37 -167v-56h-271zM150 303h182v19q0 120 -91 120t-91 -120v-19z
M243 642l52 79h92l-111 -138h-66l-112 138h92z" />
    <glyph glyph-name="Gcircumflex" unicode="&#x11c;" horiz-adv-x="565" 
d="M300 303v77h208v-127q0 -71 -10 -113t-34 -74q-56 -76 -176 -76q-127 0 -182 80q-39 56 -39 182v209q0 74 11 118.5t37 75.5q56 67 167 67q200 0 207 -196l-92 -3q-9 119 -113 119q-68 0 -95 -49q-23 -43 -23 -138v-197q0 -108 32 -150q28 -37 89 -37q67 0 97 45
q26 39 26 117v70h-110zM283 870l-52 -80h-92l112 138h65l113 -138h-93z" />
    <glyph glyph-name="gcircumflex" unicode="&#x11d;" horiz-adv-x="488" 
d="M326 29q-25 -22 -48.5 -30.5t-60.5 -8.5q-89 0 -127 60q-34 52 -34 158v101q0 115 44 165q39 43 117 43q41 0 68.5 -11t51.5 -38l10 40h73v-518q0 -124 -52 -177q-46 -47 -138 -47q-75 0 -113 32q-33 28 -47 87l79 20q11 -35 29 -49.5t52 -14.5q53 0 76 37q20 33 20 100
v51zM326 298q-2 79 -26 112q-22 29 -65 29q-85 0 -85 -131v-101q0 -76 24 -109q21 -29 62 -29q90 0 90 141v88zM247 665l-52 -80h-92l112 138h65l112 -138h-92z" />
    <glyph glyph-name="Gbreve" unicode="&#x11e;" horiz-adv-x="565" 
d="M300 303v77h208v-127q0 -71 -10 -113t-34 -74q-56 -76 -176 -76q-127 0 -182 80q-39 56 -39 182v209q0 74 11 118.5t37 75.5q56 67 167 67q200 0 207 -196l-92 -3q-9 119 -113 119q-68 0 -95 -49q-23 -43 -23 -138v-197q0 -108 32 -150q28 -37 89 -37q67 0 97 45
q26 39 26 117v70h-110zM149 924h62q4 -42 19.5 -58t51.5 -16q37 0 52.5 16t20.5 58h61q-3 -63 -16 -88q-29 -55 -117 -55q-95 0 -122 64q-9 22 -12 79z" />
    <glyph glyph-name="gbreve" unicode="&#x11f;" horiz-adv-x="488" 
d="M326 29q-25 -22 -48.5 -30.5t-60.5 -8.5q-89 0 -127 60q-34 52 -34 158v101q0 115 44 165q39 43 117 43q41 0 68.5 -11t51.5 -38l10 40h73v-518q0 -124 -52 -177q-46 -47 -138 -47q-75 0 -113 32q-33 28 -47 87l79 20q11 -35 29 -49.5t52 -14.5q53 0 76 37q20 33 20 100
v51zM326 298q-2 79 -26 112q-22 29 -65 29q-85 0 -85 -131v-101q0 -76 24 -109q21 -29 62 -29q90 0 90 141v88zM120 719h61q5 -42 20.5 -58t51.5 -16t52 16t20 58h61q-3 -64 -15 -88q-30 -55 -118 -55q-95 0 -121 64q-10 22 -12 79z" />
    <glyph glyph-name="Gdotaccent" unicode="&#x120;" horiz-adv-x="565" 
d="M300 303v77h208v-127q0 -71 -10 -113t-34 -74q-56 -76 -176 -76q-127 0 -182 80q-39 56 -39 182v209q0 74 11 118.5t37 75.5q56 67 167 67q200 0 207 -196l-92 -3q-9 119 -113 119q-68 0 -95 -49q-23 -43 -23 -138v-197q0 -108 32 -150q28 -37 89 -37q67 0 97 45
q26 39 26 117v70h-110zM236 792v111h92v-111h-92z" />
    <glyph glyph-name="gdotaccent" unicode="&#x121;" horiz-adv-x="488" 
d="M326 29q-25 -22 -48.5 -30.5t-60.5 -8.5q-89 0 -127 60q-34 52 -34 158v101q0 115 44 165q39 43 117 43q41 0 68.5 -11t51.5 -38l10 40h73v-518q0 -124 -52 -177q-46 -47 -138 -47q-75 0 -113 32q-33 28 -47 87l79 20q11 -35 29 -49.5t52 -14.5q53 0 76 37q20 33 20 100
v51zM326 298q-2 79 -26 112q-22 29 -65 29q-85 0 -85 -131v-101q0 -76 24 -109q21 -29 62 -29q90 0 90 141v88zM212 587v111h92v-111h-92z" />
    <glyph glyph-name="Gcommaaccent" unicode="&#x122;" horiz-adv-x="565" 
d="M300 303v77h208v-127q0 -71 -10 -113t-34 -74q-56 -76 -176 -76q-127 0 -182 80q-39 56 -39 182v209q0 74 11 118.5t37 75.5q56 67 167 67q200 0 207 -196l-92 -3q-9 119 -113 119q-68 0 -95 -49q-23 -43 -23 -138v-197q0 -108 32 -150q28 -37 89 -37q67 0 97 45
q26 39 26 117v70h-110zM207 -226l43 158h93l-71 -158h-65z" />
    <glyph glyph-name="gcommaaccent" unicode="&#x123;" horiz-adv-x="488" 
d="M326 29q-25 -22 -48.5 -30.5t-60.5 -8.5q-89 0 -127 60q-34 52 -34 158v101q0 115 44 165q39 43 117 43q41 0 68.5 -11t51.5 -38l10 40h73v-518q0 -124 -52 -177q-46 -47 -138 -47q-75 0 -113 32q-33 28 -47 87l79 20q11 -35 29 -49.5t52 -14.5q53 0 76 37q20 33 20 100
v51zM326 298q-2 79 -26 112q-22 29 -65 29q-85 0 -85 -131v-101q0 -76 24 -109q21 -29 62 -29q90 0 90 141v88zM195 581l105 146h70l-67 -146h-108z" />
    <glyph glyph-name="Hcircumflex" unicode="&#x124;" horiz-adv-x="582" 
d="M81 0v714h99v-312h221v312h99v-714h-99v320h-221v-320h-99zM291 870l-53 -80h-92l112 138h65l112 -138h-92z" />
    <glyph glyph-name="hcircumflex" unicode="&#x125;" horiz-adv-x="490" 
d="M68 0v714h95v-235q23 21 47.5 29.5t60.5 8.5q108 0 141 -87q14 -37 14 -121v-309h-95v300q0 79 -21 109q-18 27 -60 27q-50 0 -70 -40q-17 -36 -17 -113v-283h-95zM151 870l-53 -80h-92l112 138h66l112 -138h-93z" />
    <glyph glyph-name="Hbar" unicode="&#x126;" horiz-adv-x="582" 
d="M81 0v496h-60v72h60v146h99v-146h222v146h99v-146h60v-72h-60v-496h-99v320h-222v-320h-99zM180 402h222v94h-222v-94z" />
    <glyph glyph-name="hbar" unicode="&#x127;" horiz-adv-x="491" 
d="M69 571h-67v66h67v77h94v-77h124v-66h-124v-92q23 21 47.5 29.5t59.5 8.5q109 0 142 -87q14 -37 14 -121v-309h-95v300q0 78 -21 109q-19 27 -60 27q-50 0 -70 -40q-17 -36 -17 -113v-283h-94v571z" />
    <glyph glyph-name="Itilde" unicode="&#x128;" horiz-adv-x="261" 
d="M82 0v714h99v-714h-99zM44 798h-58q10 53 21 75q24 48 72 48q35 0 65 -31t43 -31q22 0 31 55h58q-8 -53 -17 -75q-21 -48 -72 -48q-39 0 -69 33q-26 29 -39 29q-26 0 -35 -55z" />
    <glyph glyph-name="itilde" unicode="&#x129;" horiz-adv-x="232" 
d="M69 0v508h94v-508h-94zM29 593h-58q10 53 21 75q24 48 72 48q35 0 65 -31q29 -31 43 -31q22 0 31 55h58q-8 -54 -17 -75q-21 -48 -72 -48q-39 0 -69 33q-26 29 -39 29q-26 0 -35 -55z" />
    <glyph glyph-name="Imacron" unicode="&#x12a;" horiz-adv-x="261" 
d="M81 0v714h99v-714h-99zM8 819v68h245v-68h-245z" />
    <glyph glyph-name="imacron" unicode="&#x12b;" horiz-adv-x="232" 
d="M69 0v508h95v-508h-95zM-6 614v69h245v-69h-245z" />
    <glyph glyph-name="Ibreve" unicode="&#x12c;" horiz-adv-x="261" 
d="M81 0v714h99v-714h-99zM-3 924h61q4 -41 20 -57.5t52 -16.5t52 16.5t20 57.5h61q-2 -63 -15 -88q-30 -55 -118 -55q-94 0 -121 64q-10 22 -12 79z" />
    <glyph glyph-name="ibreve" unicode="&#x12d;" horiz-adv-x="232" 
d="M69 0v508h95v-508h-95zM-17 719h61q4 -41 20 -57.5t52 -16.5t52 16.5t20 57.5h61q-2 -63 -15 -88q-30 -55 -118 -55q-94 0 -121 64q-10 22 -12 79z" />
    <glyph glyph-name="Iogonek" unicode="&#x12e;" horiz-adv-x="261" 
d="M180 0q-3 -2 -9 -7q-64 -52 -64 -97q0 -39 40 -39q22 0 51 9l10 -51q-38 -15 -81 -15q-105 0 -105 79q0 69 85 121h-26v714h99v-714z" />
    <glyph glyph-name="iogonek" unicode="&#x12f;" horiz-adv-x="232" 
d="M163 0q-3 -3 -8 -7q-64 -53 -64 -98q0 -38 40 -38q22 0 50 9l11 -51q-38 -15 -81 -15q-105 0 -105 79q0 69 83 121h-20v508h94v-508zM69 604v114h94v-114h-94z" />
    <glyph glyph-name="Idotaccent" unicode="&#x130;" horiz-adv-x="261" 
d="M81 0v714h99v-714h-99zM84 792v111h92v-111h-92z" />
    <glyph glyph-name="dotlessi" unicode="&#x131;" horiz-adv-x="232" 
d="M69 0v508h94v-508h-94z" />
    <glyph glyph-name="IJ" unicode="&#x132;" horiz-adv-x="523" 
d="M81 0v714h99v-714h-99zM343 714h99v-694q0 -83 -4.5 -120t-18.5 -63q-40 -80 -151 -80q-47 0 -94 18l37 74q24 -11 46 -11q60 0 77 62q9 29 9 118v696z" />
    <glyph glyph-name="ij" unicode="&#x133;" horiz-adv-x="467" 
d="M69 604v114h94v-114h-94zM69 0v508h94v-508h-94zM303 508h94v-511q0 -83 -10 -123t-38 -66q-23 -21 -54 -29t-93 -9v79q36 0 53 7t30 28q18 29 18 103v521zM303 604v114h94v-114h-94z" />
    <glyph glyph-name="Jcircumflex" unicode="&#x134;" horiz-adv-x="399" 
d="M224 714h99v-460q0 -83 -4.5 -120t-17.5 -63q-41 -80 -153 -80q-50 0 -88.5 16t-76.5 53l56 65q49 -53 101 -53q58 0 76 62q8 29 8 117v463zM258 870l-53 -80h-92l112 138h66l112 -138h-93z" />
    <glyph glyph-name="jcircumflex" unicode="&#x135;" horiz-adv-x="237" 
d="M70 508h94v-511q0 -83 -10.5 -123t-37.5 -66q-24 -21 -55 -29t-93 -9v79q37 0 53.5 7t29.5 28q19 29 19 103v521zM115 665l-53 -80h-92l112 138h65l112 -138h-92z" />
    <glyph glyph-name="Kcommaaccent" unicode="&#x136;" horiz-adv-x="527" 
d="M82 0v714h98v-344l226 344h112l-202 -293l217 -421h-111l-167 346l-75 -111v-235h-98zM205 -226l43 158h93l-71 -158h-65z" />
    <glyph glyph-name="kcommaaccent" unicode="&#x137;" horiz-adv-x="455" 
d="M69 0v714h94v-461l170 255h104l-151 -214l161 -294h-103l-115 223l-66 -97v-126h-94zM161 -226l43 158h93l-72 -158h-64z" />
    <glyph glyph-name="kgreenlandic" unicode="&#x138;" horiz-adv-x="455" 
d="M69 0v508h94v-255l170 255h104l-151 -214l161 -294h-103l-115 223l-66 -97v-126h-94z" />
    <glyph glyph-name="Lacute" unicode="&#x139;" horiz-adv-x="464" 
d="M81 0v714h99v-632h273v-82h-372zM105 786l67 146h108l-105 -146h-70z" />
    <glyph glyph-name="lacute" unicode="&#x13a;" horiz-adv-x="262" 
d="M68 714h94v-540q0 -56 15.5 -76t59.5 -20h17v-78h-21q-69 0 -102 15q-35 15 -49 52.5t-14 115.5v531zM78 786l67 146h109l-105 -146h-71z" />
    <glyph glyph-name="Lcommaaccent" unicode="&#x13b;" horiz-adv-x="464" 
d="M81 0v714h99v-632h273v-82h-372zM178 -226l43 158h93l-71 -158h-65z" />
    <glyph glyph-name="lcommaaccent" unicode="&#x13c;" horiz-adv-x="262" 
d="M65 714h95v-540q0 -56 15 -76t59 -20h17v-78h-21q-68 0 -102 15q-35 15 -49 52.5t-14 115.5v531zM64 -226l43 158h93l-72 -158h-64z" />
    <glyph glyph-name="Lcaron" unicode="&#x13d;" horiz-adv-x="464" 
d="M81 0v714h99v-632h273v-82h-372zM262 481l26 244h91l-51 -244h-66z" />
    <glyph glyph-name="lcaron" unicode="&#x13e;" horiz-adv-x="331" 
d="M68 714h94v-540q0 -56 15.5 -76t59.5 -20h17v-78h-21q-69 0 -102 15q-35 15 -49 52.5t-14 115.5v531zM233 481l25 244h92l-51 -244h-66z" />
    <glyph glyph-name="Ldot" unicode="&#x13f;" horiz-adv-x="464" 
d="M81 0v714h99v-632h273v-82h-372zM312 306v109h84v-109h-84z" />
    <glyph glyph-name="ldot" unicode="&#x140;" horiz-adv-x="310" 
d="M68 714h94v-540q0 -56 15.5 -76t59.5 -20h17v-78h-21q-69 0 -102 15q-35 15 -49 52.5t-14 115.5v531zM226 306v109h85v-109h-85z" />
    <glyph glyph-name="Lslash" unicode="&#x141;" horiz-adv-x="463" 
d="M81 0v205l-61 -46v91l61 46v418h99v-352l162 122v-90l-162 -123v-189h273v-82h-372z" />
    <glyph glyph-name="lslash" unicode="&#x142;" horiz-adv-x="278" 
d="M75 364v350h95v-288l97 73v-94l-97 -72v-159q0 -56 15 -76t59 -20h17v-78h-21q-101 0 -135 40q-29 35 -29 124v107l-77 -57v93z" />
    <glyph glyph-name="Nacute" unicode="&#x143;" horiz-adv-x="613" 
d="M81 0v714h97l259 -529v529h95v-714h-95l-261 531v-531h-95zM267 786l67 146h109l-105 -146h-71z" />
    <glyph glyph-name="nacute" unicode="&#x144;" horiz-adv-x="490" 
d="M68 0v508h71l8 -47q23 31 50.5 43.5t70.5 12.5q110 0 143 -87q14 -37 14 -121v-309h-94v298q0 80 -21 111q-19 27 -60 27q-51 0 -70 -40q-18 -36 -18 -116v-280h-94zM196 581l67 146h108l-105 -146h-70z" />
    <glyph glyph-name="Ncommaaccent" unicode="&#x145;" horiz-adv-x="613" 
d="M81 0v714h97l259 -529v529h95v-714h-95l-261 531v-531h-95zM232 -226l43 158h93l-72 -158h-64z" />
    <glyph glyph-name="ncommaaccent" unicode="&#x146;" horiz-adv-x="490" 
d="M68 0v508h71l8 -47q23 31 50.5 43.5t70.5 12.5q110 0 143 -87q14 -37 14 -121v-309h-94v298q0 80 -21 111q-19 27 -60 27q-51 0 -70 -40q-18 -36 -18 -116v-280h-94zM169 -226l42 158h94l-72 -158h-64z" />
    <glyph glyph-name="Ncaron" unicode="&#x147;" horiz-adv-x="613" 
d="M81 0v714h97l259 -529v529h95v-714h-95l-261 531v-531h-95zM315 847l52 79h92l-111 -138h-66l-112 138h92z" />
    <glyph glyph-name="ncaron" unicode="&#x148;" horiz-adv-x="490" 
d="M68 0v508h71l8 -47q23 31 50.5 43.5t70.5 12.5q110 0 143 -87q14 -37 14 -121v-309h-94v298q0 80 -21 111q-19 27 -60 27q-51 0 -70 -40q-18 -36 -18 -116v-280h-94zM242 642l53 79h92l-112 -138h-65l-112 138h92z" />
    <glyph glyph-name="napostrophe" unicode="&#x149;" horiz-adv-x="550" 
d="M129 0v508h71l7 -51q24 33 51.5 46.5t71.5 13.5q109 0 141 -87q15 -37 15 -121v-309h-95v298q0 80 -21 111q-18 27 -59 27q-51 0 -71 -40q-17 -36 -17 -116v-280h-94zM4 469l29 245h102l-49 -245h-82z" />
    <glyph glyph-name="Eng" unicode="&#x14a;" horiz-adv-x="613" 
d="M81 0v714h97l259 -527v527h95v-722q0 -80 -10.5 -119.5t-37.5 -64.5q-23 -21 -54 -29t-91 -9v76q35 0 52.5 7.5t29.5 27.5q19 31 19 98v26l-264 526v-531h-95z" />
    <glyph glyph-name="eng" unicode="&#x14b;" horiz-adv-x="490" 
d="M68 0v508h71l8 -51q23 33 50.5 46.5t71.5 13.5q109 0 142 -87q14 -37 14 -121v-312q0 -83 -10.5 -123.5t-37.5 -65.5q-23 -21 -54.5 -29t-93.5 -9v79q36 0 53.5 7t29.5 28q19 30 19 103v311q0 80 -21 111q-19 27 -60 27q-51 0 -70 -40q-18 -36 -18 -116v-280h-94z" />
    <glyph glyph-name="Omacron" unicode="&#x14c;" horiz-adv-x="576" 
d="M67 241v232q0 67 11 109.5t37 73.5q56 68 173 68q126 0 181 -79q40 -57 40 -172v-232q0 -67 -11.5 -109.5t-36.5 -73.5q-56 -68 -173 -68q-126 0 -182 79q-39 57 -39 172zM166 250q1 -102 33 -143q28 -36 89 -36q69 0 97 48q25 42 25 131v214q0 101 -33 142
q-28 37 -89 37q-69 0 -97 -48q-25 -42 -25 -131v-214zM165 819v68h246v-68h-246z" />
    <glyph glyph-name="omacron" unicode="&#x14d;" horiz-adv-x="482" 
d="M56 202v104q0 118 50 168q44 43 135 43q103 0 146 -57q39 -50 39 -154v-104q0 -119 -51 -168q-44 -44 -134 -44q-103 0 -147 58q-38 50 -38 154zM150 201q2 -79 25 -108q20 -25 66 -25q51 0 72 35q18 32 18 98v105q0 76 -24 107q-21 27 -66 27q-51 0 -72 -36
q-19 -31 -19 -98v-105zM118 614v69h245v-69h-245z" />
    <glyph glyph-name="Obreve" unicode="&#x14e;" horiz-adv-x="576" 
d="M67 241v232q0 67 11 109.5t37 73.5q56 68 173 68q126 0 181 -79q40 -57 40 -172v-232q0 -67 -11.5 -109.5t-36.5 -73.5q-56 -68 -173 -68q-126 0 -182 79q-39 57 -39 172zM166 250q0 -52 5.5 -81t20.5 -51q30 -47 96 -47q69 0 97 48q25 42 25 131v214q0 101 -33 142
q-28 37 -89 37q-69 0 -98 -48q-24 -42 -24 -131v-214zM155 924h61q4 -41 20 -57.5t52 -16.5t51.5 16t20.5 58h61q-3 -63 -16 -88q-30 -55 -117 -55q-95 0 -122 64q-9 22 -11 79z" />
    <glyph glyph-name="obreve" unicode="&#x14f;" horiz-adv-x="482" 
d="M56 202v104q0 118 50 168q44 43 135 43q103 0 146 -57q39 -50 39 -154v-104q0 -119 -51 -168q-44 -44 -134 -44q-103 0 -147 58q-38 50 -38 154zM150 201q2 -79 25 -108q20 -25 66 -25q51 0 72 35q18 32 18 98v105q0 76 -24 107q-21 27 -66 27q-51 0 -72 -36
q-19 -31 -19 -98v-105zM107 719h62q4 -41 20 -57.5t51 -16.5q37 0 52.5 16t20.5 58h61q-3 -63 -16 -88q-30 -55 -117 -55q-95 0 -122 64q-9 22 -12 79z" />
    <glyph glyph-name="Ohungarumlaut" unicode="&#x150;" horiz-adv-x="576" 
d="M67 241v232q0 67 11 109.5t37 73.5q56 68 173 68q126 0 181 -79q40 -57 40 -172v-232q0 -67 -11.5 -109.5t-36.5 -73.5q-56 -68 -173 -68q-126 0 -182 79q-39 57 -39 172zM166 250q1 -102 33 -143q28 -36 89 -36q69 0 97 48q25 42 25 131v214q0 101 -33 142
q-28 37 -89 37q-69 0 -97 -48q-25 -42 -25 -131v-214zM181 786l53 146h100l-87 -146h-66zM312 786l54 146h100l-88 -146h-66z" />
    <glyph glyph-name="ohungarumlaut" unicode="&#x151;" horiz-adv-x="482" 
d="M56 202v104q0 118 50 168q44 43 135 43q103 0 146 -57q39 -50 39 -154v-104q0 -119 -51 -168q-44 -44 -134 -44q-103 0 -147 58q-38 50 -38 154zM150 201q2 -79 25 -108q20 -25 66 -25q51 0 72 35q18 32 18 98v105q0 76 -24 107q-21 27 -66 27q-51 0 -72 -36
q-19 -31 -19 -98v-105zM134 581l53 146h100l-87 -146h-66zM265 581l54 146h100l-88 -146h-66z" />
    <glyph glyph-name="OE" unicode="&#x152;" horiz-adv-x="824" 
d="M426 0v48q-26 -30 -60.5 -44t-87.5 -14q-120 0 -173 80q-38 57 -38 170v234q0 65 11 108t35 74q54 68 164 68q54 0 89 -13t60 -43v46h352v-82h-269v-230h228v-82h-228v-238h271v-82h-354zM411 464q-1 53 -7 81.5t-19 50.5q-30 47 -97 47q-69 0 -97 -48q-25 -42 -25 -131
v-215q0 -101 32 -142q29 -36 90 -36q69 0 98 49q25 42 25 129v215z" />
    <glyph glyph-name="oe" unicode="&#x153;" horiz-adv-x="752" 
d="M380 454q39 63 141 63q100 0 142 -62q37 -54 37 -166v-56h-273v-36q0 -72 27 -103q24 -28 70 -28q37 0 58 17t29 55l81 -17q-14 -74 -59 -104q-39 -27 -109 -27q-52 0 -84 14.5t-58 50.5q-24 -35 -57.5 -50t-87.5 -15q-101 0 -143 58q-38 51 -38 154v103q0 118 49 168
q43 44 131 44q53 0 86.5 -14.5t57.5 -48.5zM150 202q2 -78 25 -108q21 -26 66 -26q48 0 69.5 31.5t21.5 102.5v104q0 75 -24 106q-22 28 -67 28q-48 0 -69.5 -32t-21.5 -102v-104zM427 304h182v18q0 120 -91 120t-91 -120v-18z" />
    <glyph glyph-name="Racute" unicode="&#x154;" horiz-adv-x="552" 
d="M181 304v-304h-99v714h203q62 0 99.5 -11.5t63.5 -39.5q46 -50 46 -151q0 -93 -32 -140q-28 -41 -87 -58l134 -314h-110l-121 304h-97zM179 383h101q62 0 88 29q28 32 28 95q0 71 -32 101q-28 25 -86 25h-99v-250zM222 786l68 146h108l-105 -146h-71z" />
    <glyph glyph-name="racute" unicode="&#x155;" horiz-adv-x="334" 
d="M68 0v508h73l11 -43q34 52 98 52q44 0 89 -28l-42 -79q-31 26 -59 26q-43 0 -60 -51q-16 -45 -16 -138v-247h-94zM135 581l68 146h108l-105 -146h-71z" />
    <glyph glyph-name="Rcommaaccent" unicode="&#x156;" horiz-adv-x="552" 
d="M181 304v-304h-99v714h203q62 0 99.5 -11.5t63.5 -39.5q46 -50 46 -151q0 -93 -32 -140q-28 -41 -87 -58l134 -314h-110l-121 304h-97zM179 383h101q62 0 88 29q28 32 28 95q0 71 -32 101q-28 25 -86 25h-99v-250zM204 -226l43 158h94l-72 -158h-65z" />
    <glyph glyph-name="rcommaaccent" unicode="&#x157;" horiz-adv-x="334" 
d="M68 0v508h73l11 -43q35 52 99 52q43 0 88 -28l-41 -79q-31 26 -60 26q-42 0 -60 -51q-15 -45 -15 -138v-247h-95zM28 -226l43 158h93l-72 -158h-64z" />
    <glyph glyph-name="Rcaron" unicode="&#x158;" horiz-adv-x="552" 
d="M181 304v-304h-99v714h203q62 0 99.5 -11.5t63.5 -39.5q46 -50 46 -151q0 -93 -32 -140q-28 -41 -87 -58l134 -314h-110l-121 304h-97zM179 383h101q62 0 88 29q28 32 28 95q0 71 -32 101q-28 25 -86 25h-99v-250zM263 847l53 79h92l-112 -138h-66l-112 138h93z" />
    <glyph glyph-name="rcaron" unicode="&#x159;" horiz-adv-x="334" 
d="M68 0v508h73l11 -43q19 28 41.5 40t56.5 12q43 0 88 -28l-41 -79q-31 26 -60 26q-42 0 -60 -51q-15 -45 -15 -138v-247h-94zM188 642l52 79h93l-112 -138h-66l-112 138h92z" />
    <glyph glyph-name="Sacute" unicode="&#x15a;" horiz-adv-x="498" 
d="M28 152l85 25q16 -57 45.5 -81.5t83.5 -24.5q122 0 122 122q0 59 -32 86q-16 14 -30 19.5t-77 24.5q-100 29 -140 81q-34 45 -34 122q0 100 58 152q51 45 138 45q86 0 132 -41q41 -36 58 -108l-85 -24q-16 52 -39.5 72t-66.5 20q-51 0 -77 -33q-23 -28 -23 -78
q0 -54 32 -83q29 -26 95 -46q63 -18 84 -27t44 -27q58 -46 58 -151q0 -108 -62 -161q-55 -46 -154 -46q-101 0 -152 43q-44 38 -63 119zM200 786l67 146h109l-105 -146h-71z" />
    <glyph glyph-name="sacute" unicode="&#x15b;" horiz-adv-x="422" 
d="M23 121l81 18q12 -40 34 -56t66 -16q94 0 94 76q0 41 -27 57q-16 9 -75 21q-84 17 -114 45q-37 35 -37 103q0 77 47 115q40 33 112 33q78 0 117 -32q34 -29 48 -91l-79 -19q-16 66 -82 66q-35 0 -54.5 -18.5t-19.5 -52.5q0 -32 19 -48t68 -26q57 -11 82 -19t43 -23
q41 -33 41 -112q0 -152 -184 -152q-84 0 -128 36q-39 32 -52 95zM158 581l67 146h108l-105 -146h-70z" />
    <glyph glyph-name="Scircumflex" unicode="&#x15c;" horiz-adv-x="498" 
d="M28 152l85 25q16 -57 45.5 -81.5t83.5 -24.5q122 0 122 122q0 59 -32 86q-16 14 -30 19.5t-77 24.5q-100 29 -140 81q-34 45 -34 122q0 100 58 152q51 45 138 45q86 0 132 -41q41 -36 58 -108l-85 -24q-16 52 -39.5 72t-66.5 20q-51 0 -77 -33q-23 -28 -23 -78
q0 -54 32 -83q29 -26 95 -46q63 -18 84 -27t44 -27q58 -46 58 -151q0 -108 -62 -161q-55 -46 -154 -46q-101 0 -152 43q-44 38 -63 119zM251 870l-53 -80h-92l112 138h66l112 -138h-92z" />
    <glyph glyph-name="scircumflex" unicode="&#x15d;" horiz-adv-x="422" 
d="M23 121l81 18q12 -40 34 -56t66 -16q94 0 94 76q0 41 -27 57q-16 9 -75 21q-84 17 -114 45q-37 35 -37 103q0 77 47 115q40 33 112 33q78 0 117 -32q34 -29 48 -91l-79 -19q-16 66 -82 66q-35 0 -54.5 -18.5t-19.5 -52.5q0 -32 19 -48t68 -26q57 -11 82 -19t43 -23
q41 -33 41 -112q0 -152 -184 -152q-84 0 -128 36q-39 32 -52 95zM209 665l-52 -80h-93l112 138h66l112 -138h-92z" />
    <glyph glyph-name="Scedilla" unicode="&#x15e;" horiz-adv-x="498" 
d="M28 152l85 25q16 -57 45.5 -81.5t83.5 -24.5q122 0 122 122q0 59 -32 86q-16 14 -30 19.5t-77 24.5q-100 29 -140 81q-34 45 -34 122q0 100 58 152q51 45 138 45q86 0 132 -41q41 -36 58 -108l-85 -24q-16 52 -39.5 72t-66.5 20q-51 0 -77 -33q-23 -28 -23 -78
q0 -54 32 -83q29 -26 95 -46q63 -18 84 -27t44 -27q58 -46 58 -151q0 -108 -62 -161q-55 -46 -154 -46q-101 0 -152 43q-44 38 -63 119zM163 -226l43 158h94l-72 -158h-65z" />
    <glyph glyph-name="scedilla" unicode="&#x15f;" horiz-adv-x="422" 
d="M23 121l81 18q12 -40 34 -56t66 -16q94 0 94 76q0 41 -27 57q-16 9 -75 21q-84 17 -114 45q-37 35 -37 103q0 77 47 115q40 33 112 33q78 0 117 -32q34 -29 48 -91l-79 -19q-16 66 -82 66q-35 0 -54.5 -18.5t-19.5 -52.5q0 -32 19 -48t68 -26q57 -11 82 -19t43 -23
q41 -33 41 -112q0 -152 -184 -152q-84 0 -128 36q-39 32 -52 95zM129 -226l43 158h93l-72 -158h-64z" />
    <glyph glyph-name="Scaron" unicode="&#x160;" horiz-adv-x="498" 
d="M28 152l85 25q16 -57 45.5 -81.5t83.5 -24.5q122 0 122 122q0 59 -32 86q-16 14 -30 19.5t-77 24.5q-100 29 -140 81q-34 45 -34 122q0 100 58 152q51 45 138 45q86 0 132 -41q41 -36 58 -108l-85 -24q-16 52 -39.5 72t-66.5 20q-51 0 -77 -33q-23 -28 -23 -78
q0 -54 32 -83q29 -26 95 -46q63 -18 84 -27t44 -27q58 -46 58 -151q0 -108 -62 -161q-55 -46 -154 -46q-101 0 -152 43q-44 38 -63 119zM251 847l53 79h92l-112 -138h-66l-112 138h92z" />
    <glyph glyph-name="scaron" unicode="&#x161;" horiz-adv-x="422" 
d="M23 121l81 18q12 -40 34 -56t66 -16q94 0 94 76q0 41 -27 57q-16 9 -75 21q-84 17 -114 45q-37 35 -37 103q0 77 47 115q40 33 112 33q78 0 117 -32q34 -29 48 -91l-79 -19q-16 66 -82 66q-35 0 -54.5 -18.5t-19.5 -52.5q0 -32 19 -48t68 -26q57 -11 82 -19t43 -23
q41 -33 41 -112q0 -152 -184 -152q-84 0 -128 36q-39 32 -52 95zM210 642l53 79h92l-112 -138h-66l-112 138h93z" />
    <glyph glyph-name="Tcommaaccent" unicode="&#x162;" horiz-adv-x="459" 
d="M180 0v632h-163v82h424v-82h-162v-632h-99zM143 -226l43 158h93l-71 -158h-65z" />
    <glyph glyph-name="tcommaaccent" unicode="&#x163;" horiz-adv-x="296" 
d="M82 431h-52v77h52l5 155h90v-155h85v-77h-85v-265q0 -51 14 -69.5t56 -18.5h16v-78h-22q-67 0 -99 13q-34 14 -47 49.5t-13 112.5v256zM84 -226l43 158h94l-72 -158h-65z" />
    <glyph glyph-name="Tcaron" unicode="&#x164;" horiz-adv-x="459" 
d="M180 0v632h-163v82h424v-82h-162v-632h-99zM229 847l52 79h93l-112 -138h-66l-112 138h92z" />
    <glyph glyph-name="tcaron" unicode="&#x165;" horiz-adv-x="359" 
d="M82 431h-52v77h52l5 155h90v-155h85v-77h-85v-265q0 -51 14 -69.5t56 -18.5h16v-78h-22q-67 0 -99 13q-34 14 -47 49.5t-13 112.5v256zM268 549l21 210h92l-47 -210h-66z" />
    <glyph glyph-name="Tbar" unicode="&#x166;" horiz-adv-x="459" 
d="M180 0v321h-111v80h111v231h-163v82h424v-82h-162v-231h110v-80h-110v-321h-99z" />
    <glyph glyph-name="tbar" unicode="&#x167;" horiz-adv-x="297" 
d="M83 431h-52v77h52l5 155h90v-155h85v-77h-85v-82h84v-66h-84v-121q0 -49 14.5 -66.5t55.5 -17.5h16v-78h-21q-66 0 -99 13q-33 14 -47 48t-14 104v118h-52v66h52v82z" />
    <glyph glyph-name="Utilde" unicode="&#x168;" horiz-adv-x="588" 
d="M79 714h99v-480q0 -79 18 -111q15 -28 37.5 -39.5t60.5 -11.5q40 0 64 14t38 45q14 30 14 103v480h99v-480q0 -69 -8 -105t-29 -65q-29 -38 -71 -55.5t-107 -17.5q-133 0 -186 85q-16 26 -22.5 60.5t-6.5 97.5v480zM207 798h-58q10 54 21 75q24 48 72 48q35 0 65 -31
t43 -31q22 0 31 55h58q-8 -52 -18 -75q-20 -48 -72 -48q-38 0 -68 33q-27 29 -39 29q-27 0 -35 -55z" />
    <glyph glyph-name="utilde" unicode="&#x169;" 
d="M64 508h94v-299q0 -80 20 -111q18 -27 57 -27q47 0 65 41q17 37 17 116v280h94v-508h-70l-8 47q-22 -31 -48.5 -44t-68.5 -13q-107 0 -138 87q-14 38 -14 121v310zM152 593h-57q10 53 20 75q25 48 72 48q36 0 65 -31q30 -31 44 -31q22 0 31 55h58q-8 -53 -18 -75
q-21 -48 -72 -48q-38 0 -68 33q-27 29 -39 29q-27 0 -36 -55z" />
    <glyph glyph-name="Umacron" unicode="&#x16a;" horiz-adv-x="588" 
d="M79 714h99v-480q0 -79 18 -111q15 -28 37.5 -39.5t60.5 -11.5q40 0 64 14t38 45q14 30 14 103v480h99v-480q0 -69 -8 -105t-29 -65q-29 -38 -71 -55.5t-107 -17.5q-133 0 -186 85q-16 26 -22.5 60.5t-6.5 97.5v480zM172 819v68h245v-68h-245z" />
    <glyph glyph-name="umacron" unicode="&#x16b;" 
d="M64 508h94v-299q0 -80 20 -111q18 -27 57 -27q47 0 65 41q17 37 17 116v280h94v-508h-70l-8 47q-22 -31 -48.5 -44t-68.5 -13q-107 0 -138 87q-14 38 -14 121v310zM117 614v69h245v-69h-245z" />
    <glyph glyph-name="Ubreve" unicode="&#x16c;" horiz-adv-x="588" 
d="M79 714h99v-480q0 -79 18 -111q15 -28 37.5 -39.5t60.5 -11.5q40 0 64 14t38 45q14 30 14 103v480h99v-480q0 -69 -8 -105t-29 -65q-29 -38 -71 -55.5t-107 -17.5q-133 0 -186 85q-16 26 -22.5 60.5t-6.5 97.5v480zM161 924h61q4 -41 20 -57.5t52 -16.5t51.5 16t20.5 58
h61q-3 -63 -16 -88q-29 -55 -117 -55q-95 0 -122 64q-9 22 -11 79z" />
    <glyph glyph-name="ubreve" unicode="&#x16d;" 
d="M64 508h94v-299q0 -80 20 -111q18 -27 57 -27q47 0 65 41q17 37 17 116v280h94v-508h-70l-8 47q-22 -31 -48.5 -44t-68.5 -13q-107 0 -138 87q-14 38 -14 121v310zM106 719h61q5 -42 20.5 -58t51.5 -16t51.5 16t20.5 58h61q-2 -63 -15 -88q-30 -55 -118 -55
q-94 0 -121 64q-10 22 -12 79z" />
    <glyph glyph-name="Uring" unicode="&#x16e;" horiz-adv-x="588" 
d="M79 714h99v-480q0 -79 18 -111q15 -28 37.5 -39.5t60.5 -11.5q40 0 64 14t38 45q14 30 14 103v480h99v-480q0 -69 -8 -105t-29 -65q-29 -38 -71 -55.5t-107 -17.5q-133 0 -186 85q-16 26 -22.5 60.5t-6.5 97.5v480zM294 987q52 0 81 -32q26 -28 26 -72q0 -50 -34 -80
q-29 -26 -73 -26q-51 0 -81 33q-26 29 -26 73q0 51 33 79q29 25 74 25zM294 940q-46 0 -46 -58q0 -57 46 -57q45 0 45 57q0 58 -45 58z" />
    <glyph glyph-name="uring" unicode="&#x16f;" 
d="M64 508h94v-299q0 -80 20 -111q18 -27 57 -27q47 0 65 41q17 37 17 116v280h94v-508h-70l-8 47q-22 -31 -48.5 -44t-68.5 -13q-107 0 -138 87q-14 38 -14 121v310zM239 782q52 0 81 -32q26 -28 26 -72q0 -50 -34 -80q-29 -26 -73 -26q-51 0 -81 34q-26 29 -26 73
q0 50 33 78q29 25 74 25zM239 735q-45 0 -45 -58q0 -57 45 -57q46 0 46 57q0 58 -46 58z" />
    <glyph glyph-name="Uhungarumlaut" unicode="&#x170;" horiz-adv-x="588" 
d="M79 714h99v-480q0 -79 18 -111q15 -28 37.5 -39.5t60.5 -11.5q40 0 64 14t38 45q14 30 14 103v480h99v-480q0 -69 -8 -105t-29 -65q-29 -38 -71 -55.5t-107 -17.5q-133 0 -186 85q-16 26 -22.5 60.5t-6.5 97.5v480zM188 786l53 146h100l-87 -146h-66zM319 786l54 146h100
l-88 -146h-66z" />
    <glyph glyph-name="uhungarumlaut" unicode="&#x171;" 
d="M64 508h94v-299q0 -80 20 -111q18 -27 57 -27q47 0 65 41q17 37 17 116v280h94v-508h-70l-8 47q-22 -31 -48.5 -44t-68.5 -13q-107 0 -138 87q-14 38 -14 121v310zM132 581l54 146h100l-88 -146h-66zM264 581l53 146h100l-87 -146h-66z" />
    <glyph glyph-name="Uogonek" unicode="&#x172;" horiz-adv-x="588" 
d="M79 714h99v-480q0 -79 18 -111q15 -28 37.5 -39.5t60.5 -11.5q40 0 64 14t38 45q14 30 14 103v480h99v-480q0 -71 -8.5 -107.5t-33.5 -67.5q-28 -36 -76 -55q-38 -32 -54 -57t-16 -52q0 -38 42 -38q22 0 51 9l10 -51q-40 -15 -81 -15q-107 0 -107 80q0 32 14 57t47 54
q-60 0 -96.5 12t-66.5 41q-32 31 -43.5 71t-11.5 119v480z" />
    <glyph glyph-name="uogonek" unicode="&#x173;" 
d="M411 0q-46 -35 -63 -57.5t-17 -48.5q0 -37 42 -37q23 0 51 9l11 -51q-38 -15 -82 -15q-106 0 -106 78q0 71 94 124l-8 45q-22 -31 -48.5 -44t-68.5 -13q-107 0 -138 87q-14 38 -14 121v310h94v-299q0 -80 20 -111q18 -27 57 -27q47 0 65 41q17 37 17 116v280h94v-508z
" />
    <glyph glyph-name="Wcircumflex" unicode="&#x174;" horiz-adv-x="775" 
d="M171 0l-147 714h99l97 -551l131 551h73l131 -551l97 551h99l-147 -714h-88l-129 533l-128 -533h-88zM387 870l-52 -80h-92l112 138h65l112 -138h-92z" />
    <glyph glyph-name="wcircumflex" unicode="&#x175;" horiz-adv-x="664" 
d="M155 0l-128 508h96l78 -371l97 371h67l97 -371l78 371h96l-128 -508h-80l-96 353l-97 -353h-80zM331 665l-52 -80h-92l112 138h65l112 -138h-92z" />
    <glyph glyph-name="Ycircumflex" unicode="&#x176;" horiz-adv-x="465" 
d="M184 0v257l-192 457h105l136 -347l137 347h105l-192 -457v-257h-99zM232 870l-52 -80h-93l112 138h66l112 -138h-92z" />
    <glyph glyph-name="ycircumflex" unicode="&#x177;" horiz-adv-x="430" 
d="M168 1l-152 507h95l106 -395l97 395h96l-161 -578q-16 -57 -32.5 -87.5t-39.5 -46.5q-39 -26 -130 -26v79q54 0 71 16q20 19 34 74zM215 665l-53 -80h-92l112 138h66l112 -138h-93z" />
    <glyph glyph-name="Ydieresis" unicode="&#x178;" horiz-adv-x="465" 
d="M184 0v257l-192 457h105l136 -347l137 347h105l-192 -457v-257h-99zM104 792v111h84v-111h-84zM276 792v111h85v-111h-85z" />
    <glyph glyph-name="Zacute" unicode="&#x179;" horiz-adv-x="466" 
d="M37 0v61l268 571h-250v82h360v-61l-268 -571h280v-82h-390zM201 786l68 146h108l-105 -146h-71z" />
    <glyph glyph-name="zacute" unicode="&#x17a;" horiz-adv-x="401" 
d="M31 0v57l206 373h-188v78h301v-58l-206 -372h218v-78h-331zM164 581l68 146h108l-105 -146h-71z" />
    <glyph glyph-name="Zdotaccent" unicode="&#x17b;" horiz-adv-x="466" 
d="M37 0v61l268 571h-250v82h360v-61l-268 -571h280v-82h-390zM201 792v111h92v-111h-92z" />
    <glyph glyph-name="zdotaccent" unicode="&#x17c;" horiz-adv-x="401" 
d="M31 0v57l206 373h-188v78h301v-58l-206 -372h218v-78h-331zM162 587v111h91v-111h-91z" />
    <glyph glyph-name="Zcaron" unicode="&#x17d;" horiz-adv-x="466" 
d="M37 0v61l268 571h-250v82h360v-61l-268 -571h280v-82h-390zM252 847l53 79h92l-112 -138h-66l-112 138h93z" />
    <glyph glyph-name="zcaron" unicode="&#x17e;" horiz-adv-x="401" 
d="M31 0v57l206 373h-188v78h301v-58l-206 -372h218v-78h-331zM212 642l52 79h93l-112 -138h-66l-112 138h93z" />
    <glyph glyph-name="Ohorn" unicode="&#x1a0;" horiz-adv-x="608" 
d="M531 725h83q6 -21 6 -42q0 -51 -23.5 -84t-90.5 -76q3 -26 3 -50v-232q0 -67 -11.5 -109.5t-36.5 -73.5q-56 -68 -173 -68q-126 0 -182 79q-39 57 -39 172v232q0 67 11 109.5t37 73.5q56 68 174 68q90 0 142 -39q45 -34 66 -102q26 21 37 40.5t11 45.5q0 28 -14 56z
M166 250q1 -102 33 -143q28 -36 89 -36q69 0 97 48q25 42 25 131v214q0 101 -33 142q-28 37 -89 37q-69 0 -97 -48q-25 -42 -25 -131v-214z" />
    <glyph glyph-name="ohorn" unicode="&#x1a1;" horiz-adv-x="517" 
d="M445 516h82q7 -24 7 -46q0 -44 -26.5 -81t-83.5 -71q2 -16 2 -33v-83q0 -119 -51 -168q-44 -44 -134 -44q-103 0 -147 58q-38 50 -38 154v104q0 118 50 168q44 43 135 43q85 0 127 -37q38 -32 52 -100l4 5q21 23 27.5 38.5t6.5 38.5q0 27 -13 54zM150 201q2 -79 25 -108
q20 -25 66 -25q51 0 72 35q18 32 18 98v105q0 76 -24 107q-21 27 -66 27q-51 0 -72 -36q-19 -31 -19 -98v-105z" />
    <glyph glyph-name="Uhorn" unicode="&#x1af;" horiz-adv-x="638" 
d="M79 714h99v-480q0 -79 18 -111q15 -28 37.5 -39.5t60.5 -11.5q40 0 64 14t38 45q14 30 14 103v480h99v-151q42 25 59 48.5t17 57.5q0 29 -13 56h82q6 -22 6 -44q0 -74 -71 -130q-21 -16 -80 -50v-267q0 -69 -8 -105t-29 -65q-29 -38 -71 -55.5t-107 -17.5q-133 0 -186 85
q-16 26 -22.5 60.5t-6.5 97.5v480z" />
    <glyph glyph-name="uhorn" unicode="&#x1b0;" horiz-adv-x="539" 
d="M64 508h94v-299q0 -80 20 -111q18 -27 57 -27q47 0 65 41q17 37 17 116v280h94v-153q43 24 60 48t17 59q0 27 -14 54h82q6 -22 6 -44q0 -73 -71 -129q-21 -17 -80 -50v-293h-70l-8 47q-22 -31 -48.5 -44t-68.5 -13q-107 0 -138 87q-14 38 -14 121v310z" />
    <glyph glyph-name="uni01C4" unicode="&#x1c4;" horiz-adv-x="1016" 
d="M81 0v714h197q60 0 98 -10.5t66 -35.5q37 -32 52 -76.5t15 -118.5v-232q0 -74 -15 -118.5t-52 -76.5q-28 -24 -66.5 -35t-97.5 -11h-197zM180 81h90q82 0 113 44q27 39 27 128v208q0 101 -36 139q-31 33 -104 33h-90v-552zM587 0v61l268 571h-251v82h360v-61l-268 -571
h281v-82h-390zM802 847l52 79h93l-112 -138h-66l-112 138h92z" />
    <glyph glyph-name="uni01C5" unicode="&#x1c5;" horiz-adv-x="978" 
d="M81 0v714h197q60 0 98 -10.5t66 -35.5q37 -32 52 -76.5t15 -118.5v-232q0 -74 -15 -118.5t-52 -76.5q-28 -24 -66.5 -35t-97.5 -11h-197zM180 81h90q82 0 113 44q27 39 27 128v208q0 101 -36 139q-31 33 -104 33h-90v-552zM607 0v57l205 373h-187v78h300v-58l-205 -372
h218v-78h-331zM788 642l52 79h93l-112 -138h-66l-112 138h92z" />
    <glyph glyph-name="uni01C6" unicode="&#x1c6;" horiz-adv-x="889" 
d="M346 0l-6 38l-3 -3q-1 -2 -2 -2q-23 -23 -49.5 -33t-65.5 -10q-91 0 -130 59q-34 52 -34 158v102q0 114 44 164q39 44 116 44q37 0 61.5 -8.5t47.5 -30.5v236h94v-714h-73zM325 298q-2 79 -26 112q-21 28 -64 28q-85 0 -85 -130v-102q0 -75 24 -108q21 -29 62 -29
q89 0 89 141v88zM518 0v57l206 373h-188v78h301v-58l-206 -372h218v-78h-331zM699 642l53 79h92l-112 -138h-66l-112 138h93z" />
    <glyph glyph-name="uni01C7" unicode="&#x1c7;" horiz-adv-x="725" 
d="M81 0v714h99v-632h273v-82h-372zM545 714h99v-694q0 -83 -4.5 -120t-18.5 -63q-40 -80 -151 -80q-47 0 -94 18l37 74q24 -11 46 -11q60 0 77 62q9 29 9 118v696z" />
    <glyph glyph-name="uni01C8" unicode="&#x1c8;" horiz-adv-x="701" 
d="M81 0v714h99v-632h273v-82h-372zM537 604v114h94v-114h-94zM537 508h94v-511q0 -83 -10 -123t-38 -66q-24 -21 -55 -29t-93 -9v79q37 0 54 7t30 28q18 29 18 103v521z" />
    <glyph glyph-name="uni01C9" unicode="&#x1c9;" horiz-adv-x="500" 
d="M68 714h94v-540q0 -56 15.5 -76t59.5 -20h17v-78h-21q-69 0 -102 15q-35 15 -49 52.5t-14 115.5v531zM336 604v114h94v-114h-94zM336 508h94v-511q0 -83 -10 -123t-38 -66q-23 -21 -54 -29t-94 -9v79q37 0 54 7t30 28q18 29 18 103v521z" />
    <glyph glyph-name="uni01CA" unicode="&#x1ca;" horiz-adv-x="875" 
d="M81 0v714h97l259 -529v529h95v-714h-95l-261 531v-531h-95zM694 714h99v-694q0 -83 -4.5 -120t-17.5 -63q-41 -80 -151 -80q-47 0 -94 18l36 74q25 -11 47 -11q60 0 77 62q8 29 8 118v696z" />
    <glyph glyph-name="uni01CB" unicode="&#x1cb;" horiz-adv-x="851" 
d="M81 0v714h97l259 -529v529h95v-714h-95l-261 531v-531h-95zM687 508h94v-511q0 -83 -10.5 -123t-37.5 -66q-24 -21 -55 -29t-93 -9v79q36 0 53 7t30 28q19 29 19 103v521zM687 604v114h94v-114h-94z" />
    <glyph glyph-name="uni01CC" unicode="&#x1cc;" horiz-adv-x="727" 
d="M68 0v508h71l8 -47q23 31 50.5 43.5t70.5 12.5q110 0 143 -87q14 -37 14 -121v-309h-94v298q0 80 -21 111q-19 27 -60 27q-51 0 -70 -40q-18 -36 -18 -116v-280h-94zM563 508h94v-511q0 -83 -10 -123t-38 -66q-23 -21 -54 -29t-93 -9v79q36 0 53 7t30 28q18 29 18 103
v521zM563 604v114h94v-114h-94z" />
    <glyph glyph-name="uni01CD" unicode="&#x1cd;" horiz-adv-x="520" 
d="M381 151h-239l-42 -151h-107l223 714h90l223 -714h-107zM359 231l-98 353l-98 -353h196zM260 847l53 79h92l-112 -138h-65l-112 138h92z" />
    <glyph glyph-name="uni01CE" unicode="&#x1ce;" horiz-adv-x="460" 
d="M300 301v29q0 60 -18 85t-63 25q-33 0 -52 -16t-31 -54l-80 24q32 123 166 123q112 0 151 -70q22 -41 22 -128v-319h-75l-6 33q-21 -24 -47.5 -33.5t-73.5 -9.5q-90 0 -125 40q-31 35 -31 113q0 93 43 127q39 31 127 31h93zM300 232h-75q-52 0 -74 -20t-22 -67
q0 -44 19 -61.5t67 -17.5q49 0 67 19.5t18 72.5v74zM232 642l53 79h92l-112 -138h-65l-112 138h92z" />
    <glyph glyph-name="uni01CF" unicode="&#x1cf;" horiz-adv-x="261" 
d="M81 0v714h99v-714h-99zM131 847l52 79h93l-112 -138h-66l-112 138h92z" />
    <glyph glyph-name="uni01D0" unicode="&#x1d0;" horiz-adv-x="232" 
d="M69 0v508h94v-508h-94zM116 642l52 79h93l-112 -138h-66l-112 138h92z" />
    <glyph glyph-name="uni01D1" unicode="&#x1d1;" horiz-adv-x="576" 
d="M67 241v232q0 67 11 109.5t37 73.5q56 68 173 68q126 0 181 -79q40 -57 40 -172v-232q0 -67 -11.5 -109.5t-36.5 -73.5q-56 -68 -173 -68q-126 0 -182 79q-39 57 -39 172zM166 250q0 -52 5.5 -81t20.5 -51q30 -47 96 -47q69 0 97 48q25 42 25 131v214q0 101 -33 142
q-28 37 -89 37q-69 0 -98 -48q-24 -42 -24 -131v-214zM288 847l52 79h93l-112 -138h-66l-112 138h92z" />
    <glyph glyph-name="uni01D2" unicode="&#x1d2;" horiz-adv-x="482" 
d="M56 202v104q0 118 50 168q44 43 135 43q103 0 146 -57q39 -50 39 -154v-104q0 -119 -51 -168q-44 -44 -134 -44q-103 0 -147 58q-38 50 -38 154zM150 201q2 -79 25 -108q20 -25 66 -25q51 0 72 35q18 32 18 98v105q0 76 -24 107q-21 27 -66 27q-51 0 -72 -36
q-19 -31 -19 -98v-105zM241 642l52 79h93l-112 -138h-66l-112 138h92z" />
    <glyph glyph-name="uni01D3" unicode="&#x1d3;" horiz-adv-x="588" 
d="M79 714h99v-480q0 -79 18 -111q15 -28 37.5 -39.5t60.5 -11.5q40 0 64 14t38 45q14 30 14 103v480h99v-480q0 -69 -8 -105t-29 -65q-29 -38 -71 -55.5t-107 -17.5q-133 0 -186 85q-16 26 -22.5 60.5t-6.5 97.5v480zM294 847l52 79h93l-112 -138h-66l-112 138h93z" />
    <glyph glyph-name="uni01D4" unicode="&#x1d4;" 
d="M64 508h94v-299q0 -80 20 -111q18 -27 57 -27q47 0 65 41q17 37 17 116v280h94v-508h-70l-8 47q-22 -31 -48.5 -44t-68.5 -13q-107 0 -138 87q-14 38 -14 121v310zM239 642l53 79h92l-112 -138h-65l-113 138h93z" />
    <glyph glyph-name="Gcaron" unicode="&#x1e6;" horiz-adv-x="565" 
d="M300 303v77h208v-127q0 -71 -10 -113t-34 -74q-56 -76 -176 -76q-127 0 -182 80q-39 56 -39 182v209q0 74 11 118.5t37 75.5q56 67 167 67q200 0 207 -196l-92 -3q-9 119 -113 119q-68 0 -95 -49q-23 -43 -23 -138v-197q0 -108 32 -150q28 -37 89 -37q67 0 97 45
q26 39 26 117v70h-110zM283 847l53 79h92l-112 -138h-66l-112 138h92z" />
    <glyph glyph-name="gcaron" unicode="&#x1e7;" horiz-adv-x="488" 
d="M326 29q-25 -22 -48.5 -30.5t-60.5 -8.5q-89 0 -127 60q-34 52 -34 158v101q0 115 44 165q39 43 117 43q41 0 68.5 -11t51.5 -38l10 40h73v-518q0 -124 -52 -177q-46 -47 -138 -47q-75 0 -113 32q-33 28 -47 87l79 20q11 -35 29 -49.5t52 -14.5q53 0 76 37q20 33 20 100
v51zM326 298q-2 79 -26 112q-22 29 -65 29q-85 0 -85 -131v-101q0 -76 24 -109q21 -29 62 -29q90 0 90 141v88zM252 642l52 79h93l-112 -138h-66l-112 138h92z" />
    <glyph glyph-name="uni01EA" unicode="&#x1ea;" horiz-adv-x="576" 
d="M391 6q-3 -2 -6 -5q-38 -31 -54 -56t-16 -50q0 -38 42 -38q23 0 51 9l10 -51q-39 -15 -81 -15q-107 0 -107 79q0 60 63 111q-57 1 -93 11.5t-65 35.5q-36 32 -52 79t-16 125v232q0 67 11 109.5t37 73.5q56 68 173 68q126 0 181 -79q40 -57 40 -172v-232q0 -67 -11 -109.5
t-37 -73.5q-31 -37 -70 -52zM166 250q1 -102 33 -143q28 -36 89 -36q69 0 97 48q25 42 25 131v214q0 101 -33 142q-28 37 -89 37q-69 0 -97 -48q-25 -42 -25 -131v-214z" />
    <glyph glyph-name="uni01EB" unicode="&#x1eb;" horiz-adv-x="482" 
d="M338 8q-39 -35 -54.5 -60.5t-15.5 -52.5q0 -38 42 -38q22 0 51 9l10 -51q-39 -15 -81 -15q-107 0 -107 79q0 60 56 111q-105 3 -146 59q-37 49 -37 153v104q0 118 50 168q44 43 135 43q103 0 146 -57q39 -50 39 -154v-104q0 -85 -24 -132q-21 -41 -64 -62zM150 201
q2 -79 25 -108q20 -25 66 -25q51 0 72 35q18 32 18 98v105q0 76 -24 107q-21 27 -66 27q-51 0 -72 -36q-19 -31 -19 -98v-105z" />
    <glyph glyph-name="uni01F1" unicode="&#x1f1;" horiz-adv-x="1016" 
d="M81 0v714h197q60 0 98 -10.5t66 -35.5q37 -32 52 -76.5t15 -118.5v-232q0 -74 -15 -118.5t-52 -76.5q-28 -24 -66.5 -35t-97.5 -11h-197zM180 81h90q82 0 113 44q27 39 27 128v208q0 101 -36 139q-31 33 -104 33h-90v-552zM587 0v61l268 571h-251v82h360v-61l-268 -571
h281v-82h-390z" />
    <glyph glyph-name="uni01F2" unicode="&#x1f2;" horiz-adv-x="978" 
d="M81 0v714h197q60 0 98 -10.5t66 -35.5q37 -32 52 -76.5t15 -118.5v-232q0 -74 -15 -118.5t-52 -76.5q-28 -24 -66.5 -35t-97.5 -11h-197zM180 81h90q82 0 113 44q27 39 27 128v208q0 101 -36 139q-31 33 -104 33h-90v-552zM607 0v57l205 373h-187v78h300v-58l-205 -372
h218v-78h-331z" />
    <glyph glyph-name="uni01F3" unicode="&#x1f3;" horiz-adv-x="889" 
d="M346 0l-6 38l-3 -3q-1 -2 -2 -2q-23 -23 -49.5 -33t-65.5 -10q-91 0 -130 59q-34 52 -34 158v102q0 114 44 164q39 44 116 44q37 0 61.5 -8.5t47.5 -30.5v236h94v-714h-73zM325 298q-2 79 -26 112q-21 28 -64 28q-85 0 -85 -130v-102q0 -75 24 -108q21 -29 62 -29
q89 0 89 141v88zM518 0v57l206 373h-188v78h301v-58l-206 -372h218v-78h-331z" />
    <glyph glyph-name="uni01F4" unicode="&#x1f4;" horiz-adv-x="565" 
d="M300 303v77h208v-127q0 -71 -10 -113t-34 -74q-56 -76 -176 -76q-127 0 -182 80q-39 56 -39 182v209q0 74 11 118.5t37 75.5q56 67 167 67q200 0 207 -196l-92 -3q-9 119 -113 119q-68 0 -95 -49q-23 -43 -23 -138v-197q0 -108 32 -150q28 -37 89 -37q67 0 97 45
q26 39 26 117v70h-110zM232 786l68 146h108l-105 -146h-71z" />
    <glyph glyph-name="uni01F5" unicode="&#x1f5;" horiz-adv-x="488" 
d="M326 29q-25 -22 -48.5 -30.5t-60.5 -8.5q-89 0 -127 60q-34 52 -34 158v101q0 115 44 165q39 43 117 43q41 0 68.5 -11t51.5 -38l10 40h73v-518q0 -124 -52 -177q-46 -47 -138 -47q-75 0 -113 32q-33 28 -47 87l79 20q11 -35 29 -49.5t52 -14.5q53 0 76 37q20 33 20 100
v51zM326 298q-2 79 -26 112q-22 29 -65 29q-85 0 -85 -131v-101q0 -76 24 -109q21 -29 62 -29q90 0 90 141v88zM198 581l68 146h108l-105 -146h-71z" />
    <glyph glyph-name="Aringacute" unicode="&#x1fa;" horiz-adv-x="520" 
d="M206 681q-53 29 -53 94q0 50 33 79q29 24 74 24q52 0 81 -32q26 -28 26 -72q0 -61 -51 -93l213 -681h-107l-41 151h-239l-42 -151h-107zM359 231l-98 353l-98 -353h196zM260 831q-45 0 -45 -57q0 -58 45 -58q46 0 46 58q0 57 -46 57zM218 897l51 122h115l-105 -122h-61z
" />
    <glyph glyph-name="aringacute" unicode="&#x1fb;" horiz-adv-x="460" 
d="M300 301v29q0 60 -18 85t-63 25q-33 0 -52 -16t-31 -54l-80 24q32 123 166 123q112 0 151 -70q22 -41 22 -128v-319h-75l-6 33q-21 -24 -47.5 -33.5t-73.5 -9.5q-90 0 -125 40q-31 35 -31 113q0 93 43 127q39 31 127 31h93zM300 232h-75q-52 0 -74 -20t-22 -67
q0 -44 19 -61.5t67 -17.5q49 0 67 19.5t18 72.5v74zM232 765q52 0 81 -32q26 -28 26 -71q0 -51 -33 -81q-30 -25 -74 -25q-51 0 -81 33q-26 29 -26 73q0 50 33 79q29 24 74 24zM232 718q-45 0 -45 -57q0 -58 45 -58q46 0 46 58q0 57 -46 57zM190 801l51 122h115l-105 -122
h-61z" />
    <glyph glyph-name="AEacute" unicode="&#x1fc;" horiz-adv-x="813" 
d="M401 162h-247l-82 -162h-114l385 714h425v-82h-269v-230h229v-82h-229v-238h272v-82h-370v162zM401 242v390h-10l-197 -390h207zM502 786l68 146h108l-105 -146h-71z" />
    <glyph glyph-name="aeacute" unicode="&#x1fd;" horiz-adv-x="720" 
d="M352 457q42 60 138 60q100 0 142 -61q36 -55 36 -167v-56h-272v-36q0 -72 27 -103q23 -28 70 -28q71 0 87 72l81 -17q-14 -73 -59 -104q-39 -27 -109 -27q-53 0 -86.5 16t-56.5 52q-34 -68 -156 -68q-91 0 -126 40q-31 36 -31 114q0 93 44 127q38 31 126 31h93v28
q0 60 -18.5 85t-62.5 25q-63 0 -86 -69l-76 24q13 63 60 95q42 27 105 27q93 0 130 -60zM300 233h-75q-52 0 -74 -20t-22 -68q0 -45 19 -63t67 -18q51 0 69 26q16 23 16 78v65zM396 302h182v20q0 120 -91 120t-91 -120v-20zM307 581l67 146h108l-105 -146h-70z" />
    <glyph glyph-name="Oslashacute" unicode="&#x1fe;" horiz-adv-x="575" 
d="M483 621q15 -32 20.5 -63t5.5 -85v-232q0 -67 -11 -109.5t-37 -73.5q-56 -68 -174 -68q-89 0 -140 38l-27 -49l-68 40l41 73q-26 53 -26 149v232q0 67 11 109.5t37 73.5q56 68 175 68q88 0 139 -38l27 47l68 -40zM410 491l-215 -378q31 -42 93 -42q69 0 97 48
q25 42 25 131v214v27zM166 221l215 379q-31 43 -92 43q-70 0 -98 -48q-25 -42 -25 -131v-214v-29zM234 786l68 146h108l-105 -146h-71z" />
    <glyph glyph-name="oslashacute" unicode="&#x1ff;" horiz-adv-x="483" 
d="M397 447q29 -46 29 -141v-104q0 -118 -50 -168q-44 -44 -135 -44q-67 0 -110 25l-24 -37l-53 35l30 49q-28 48 -28 140v104q0 118 50 168q44 43 134 43q68 0 110 -24l23 37l54 -35zM330 339l-152 -247q22 -24 63 -24q51 0 72 36q18 31 18 97v106q0 17 -1 32zM151 171
l152 246q-22 23 -62 23q-51 0 -72 -36q-19 -31 -19 -97v-106q0 -11 1 -30zM188 581l67 146h108l-105 -146h-70z" />
    <glyph glyph-name="uni0200" unicode="&#x200;" horiz-adv-x="520" 
d="M381 151h-239l-42 -151h-107l223 714h90l223 -714h-107zM359 231l-98 353l-98 -353h196zM368 786h-66l-88 146h100zM236 786h-66l-88 146h100z" />
    <glyph glyph-name="uni0201" unicode="&#x201;" horiz-adv-x="460" 
d="M298 301v29q0 60 -18 85t-63 25q-33 0 -52 -16t-31 -54l-80 24q32 123 166 123q112 0 151 -70q22 -41 22 -128v-319h-75l-6 33q-21 -24 -47.5 -33.5t-73.5 -9.5q-90 0 -125 40q-31 35 -31 113q0 93 43 127q39 31 127 31h93zM298 232h-75q-52 0 -74 -20t-22 -67
q0 -44 19 -61.5t67 -17.5q49 0 67 19.5t18 72.5v74zM338 581h-66l-87 146h100zM207 581h-66l-88 146h100z" />
    <glyph glyph-name="uni0202" unicode="&#x202;" horiz-adv-x="520" 
d="M381 151h-239l-42 -151h-107l223 714h90l223 -714h-107zM359 231l-98 353l-98 -353h196zM394 790h-61q-5 41 -20.5 57.5t-51.5 16.5q-37 0 -52.5 -16t-20.5 -58h-61q3 63 16 88q30 55 118 55q94 0 121 -64q10 -22 12 -79z" />
    <glyph glyph-name="uni0203" unicode="&#x203;" horiz-adv-x="460" 
d="M300 301v29q0 60 -18 85t-63 25q-33 0 -52 -16t-31 -54l-80 24q32 123 166 123q112 0 151 -70q22 -41 22 -128v-319h-75l-6 33q-21 -24 -47.5 -33.5t-73.5 -9.5q-90 0 -125 40q-31 35 -31 113q0 93 43 127q39 31 127 31h93zM300 232h-75q-52 0 -74 -20t-22 -67
q0 -44 19 -61.5t67 -17.5q49 0 67 19.5t18 72.5v74zM363 585h-61q-4 42 -20 58t-52 16t-52 -16t-20 -58h-61q2 64 15 88q30 55 118 55q95 0 122 -64q9 -22 11 -79z" />
    <glyph glyph-name="uni0204" unicode="&#x204;" horiz-adv-x="495" 
d="M73 0v714h367v-82h-269v-230h229v-82h-229v-238h272v-82h-370zM363 786h-66l-87 146h100zM232 786h-66l-88 146h100z" />
    <glyph glyph-name="uni0205" unicode="&#x205;" horiz-adv-x="473" 
d="M144 233v-36q0 -71 27 -102q23 -28 70 -28q37 0 57.5 16.5t29.5 54.5l80 -17q-13 -73 -59 -104q-40 -27 -114 -27q-103 0 -147 62q-39 54 -39 164v73q0 127 50 181q43 47 133 47q103 0 146 -61q37 -54 37 -167v-56h-271zM143 303h182v19q0 120 -91 120t-91 -120v-19z
M336 581h-65l-88 146h100zM205 581h-66l-88 146h100z" />
    <glyph glyph-name="uni0206" unicode="&#x206;" horiz-adv-x="495" 
d="M82 0v714h367v-82h-269v-230h229v-82h-229v-238h272v-82h-370zM393 790h-61q-5 41 -20.5 57.5t-51.5 16.5q-37 0 -52.5 -16t-20.5 -58h-61q3 63 16 88q29 55 117 55q95 0 122 -64q10 -22 12 -79z" />
    <glyph glyph-name="uni0207" unicode="&#x207;" horiz-adv-x="473" 
d="M151 233v-36q0 -71 27 -102q23 -28 70 -28q37 0 57.5 16.5t29.5 54.5l80 -17q-13 -73 -59 -104q-40 -27 -114 -27q-103 0 -147 62q-39 54 -39 164v73q0 127 50 181q43 47 133 47q103 0 146 -61q37 -54 37 -167v-56h-271zM150 303h182v19q0 120 -91 120t-91 -120v-19z
M370 585h-61q-5 42 -20.5 58t-51.5 16q-37 0 -52.5 -16t-20.5 -58h-61q3 64 16 88q30 55 117 55q95 0 122 -64q9 -22 12 -79z" />
    <glyph glyph-name="uni0208" unicode="&#x208;" horiz-adv-x="261" 
d="M81 0v714h99v-714h-99zM238 786h-66l-87 146h100zM106 786h-65l-88 146h100z" />
    <glyph glyph-name="uni0209" unicode="&#x209;" horiz-adv-x="232" 
d="M69 0v508h94v-508h-94zM223 581h-66l-87 146h100zM91 581h-65l-88 146h100z" />
    <glyph glyph-name="uni020A" unicode="&#x20a;" horiz-adv-x="262" 
d="M82 0v714h99v-714h-99zM265 790h-61q-5 41 -20.5 57.5t-51.5 16.5q-37 0 -52.5 -16t-20.5 -58h-61q3 63 16 88q30 55 117 55q95 0 122 -64q9 -22 12 -79z" />
    <glyph glyph-name="uni020B" unicode="&#x20b;" horiz-adv-x="232" 
d="M69 0v508h94v-508h-94zM250 585h-61q-5 41 -20.5 57.5t-51.5 16.5q-37 0 -52.5 -16t-20.5 -58h-61q3 64 16 88q30 55 117 55q95 0 122 -64q9 -22 12 -79z" />
    <glyph glyph-name="uni020C" unicode="&#x20c;" horiz-adv-x="576" 
d="M67 241v232q0 67 11 109.5t37 73.5q56 68 173 68q126 0 181 -79q40 -57 40 -172v-232q0 -67 -11.5 -109.5t-36.5 -73.5q-56 -68 -173 -68q-126 0 -182 79q-39 57 -39 172zM166 250q1 -102 33 -143q28 -36 89 -36q69 0 97 48q25 42 25 131v214q0 101 -33 142
q-28 37 -89 37q-69 0 -97 -48q-25 -42 -25 -131v-214zM395 786h-66l-87 146h100zM263 786h-65l-88 146h100z" />
    <glyph glyph-name="uni020D" unicode="&#x20d;" horiz-adv-x="482" 
d="M50 202v104q0 118 50 168q44 43 135 43q103 0 146 -57q39 -50 39 -154v-104q0 -119 -51 -168q-44 -44 -134 -44q-103 0 -147 58q-38 50 -38 154zM144 201q2 -79 25 -108q20 -25 66 -25q51 0 72 35q18 32 18 98v105q0 76 -24 107q-21 27 -66 27q-51 0 -72 -36
q-19 -31 -19 -98v-105zM342 581h-66l-87 146h100zM210 581h-66l-87 146h100z" />
    <glyph glyph-name="uni020E" unicode="&#x20e;" horiz-adv-x="576" 
d="M67 241v232q0 67 11 109.5t37 73.5q56 68 173 68q126 0 181 -79q40 -57 40 -172v-232q0 -67 -11.5 -109.5t-36.5 -73.5q-56 -68 -173 -68q-126 0 -182 79q-39 57 -39 172zM166 250q1 -102 33 -143q28 -36 89 -36q69 0 97 48q25 42 25 131v214q0 101 -33 142
q-28 37 -89 37q-69 0 -97 -48q-25 -42 -25 -131v-214zM421 790h-61q-4 42 -20 58t-52 16t-52 -16t-20 -58h-61q2 64 16 88q29 55 117 55q95 0 122 -64q9 -22 11 -79z" />
    <glyph glyph-name="uni020F" unicode="&#x20f;" horiz-adv-x="482" 
d="M56 202v104q0 118 50 168q44 43 135 43q103 0 146 -57q39 -50 39 -154v-104q0 -119 -51 -168q-44 -44 -134 -44q-103 0 -147 58q-38 50 -38 154zM150 201q2 -79 25 -108q20 -25 66 -25q51 0 72 35q18 32 18 98v105q0 76 -24 107q-21 27 -66 27q-51 0 -72 -36
q-19 -31 -19 -98v-105zM374 585h-61q-4 41 -20 57.5t-52 16.5t-52 -16t-20 -58h-61q2 63 15 88q30 55 118 55q95 0 122 -64q9 -22 11 -79z" />
    <glyph glyph-name="uni0210" unicode="&#x210;" horiz-adv-x="552" 
d="M176 304v-304h-99v714h203q63 0 100 -11.5t63 -39.5q47 -50 47 -151q0 -93 -32 -140q-29 -41 -88 -58l134 -314h-109l-121 304h-98zM175 383h100q62 0 88 29q28 32 28 95q0 71 -32 101q-27 25 -86 25h-98v-250zM359 786h-66l-87 146h100zM227 786h-65l-88 146h100z" />
    <glyph glyph-name="uni0211" unicode="&#x211;" horiz-adv-x="334" 
d="M68 0v508h73l11 -43q35 52 99 52q43 0 88 -28l-41 -79q-31 26 -60 26q-43 0 -60 -51q-15 -45 -15 -138v-247h-95zM287 581h-66l-87 146h100zM155 581h-65l-88 146h100z" />
    <glyph glyph-name="uni0212" unicode="&#x212;" horiz-adv-x="552" 
d="M181 304v-304h-99v714h203q62 0 99.5 -11.5t63.5 -39.5q46 -50 46 -151q0 -93 -32 -140q-28 -41 -87 -58l134 -314h-110l-121 304h-97zM179 383h101q62 0 88 29q28 32 28 95q0 71 -32 101q-28 25 -86 25h-99v-250zM388 790h-61q-4 41 -20 57.5t-52 16.5t-52 -16t-20 -58
h-61q2 63 15 88q30 55 118 55q95 0 122 -64q9 -22 11 -79z" />
    <glyph glyph-name="uni0213" unicode="&#x213;" horiz-adv-x="334" 
d="M68 0v508h73l11 -43q35 52 99 52q43 0 88 -28l-41 -79q-31 26 -60 26q-42 0 -60 -51q-15 -45 -15 -138v-247h-95zM318 585h-61q-5 41 -20.5 57.5t-51.5 16.5q-37 0 -52.5 -16t-20.5 -58h-61q3 64 16 88q30 55 117 55q95 0 122 -64q9 -22 12 -79z" />
    <glyph glyph-name="uni0214" unicode="&#x214;" horiz-adv-x="588" 
d="M79 714h99v-480q0 -79 17 -111q28 -51 99 -51q77 0 103 59q13 30 13 103v480h99v-480q0 -69 -8 -105t-29 -65q-29 -38 -71 -55.5t-107 -17.5q-133 0 -186 85q-16 26 -22.5 60.5t-6.5 97.5v480zM401 786h-66l-87 146h100zM270 786h-66l-88 146h100z" />
    <glyph glyph-name="uni0215" unicode="&#x215;" 
d="M59 508h94v-299q0 -80 20 -111q17 -27 57 -27q47 0 65 41q16 36 16 116v280h95v-508h-70l-8 47q-22 -31 -48.5 -44t-68.5 -13q-107 0 -139 87q-13 38 -13 121v310zM341 581h-66l-87 146h100zM209 581h-65l-88 146h100z" />
    <glyph glyph-name="uni0216" unicode="&#x216;" horiz-adv-x="588" 
d="M79 714h99v-480q0 -79 17 -111q28 -51 99 -51q77 0 103 59q13 30 13 103v480h99v-480q0 -69 -8 -105t-29 -65q-29 -38 -71 -55.5t-107 -17.5q-133 0 -186 85q-16 26 -22.5 60.5t-6.5 97.5v480zM428 790h-62q-4 42 -20 58t-52 16t-52 -16t-20 -58h-61q3 64 16 88
q29 55 117 55q95 0 122 -64q9 -22 12 -79z" />
    <glyph glyph-name="uni0217" unicode="&#x217;" 
d="M64 508h94v-299q0 -80 20 -111q18 -27 57 -27q47 0 65 41q17 37 17 116v280h94v-508h-70l-8 47q-22 -31 -48.5 -44t-68.5 -13q-107 0 -138 87q-14 38 -14 121v310zM373 585h-61q-5 41 -20.5 57.5t-51.5 16.5q-37 0 -52.5 -16t-20.5 -58h-61q3 63 16 88q29 55 118 55
q94 0 121 -64q10 -22 12 -79z" />
    <glyph glyph-name="Scommaaccent" unicode="&#x218;" horiz-adv-x="498" 
d="M28 152l85 25q16 -57 45.5 -81.5t83.5 -24.5q122 0 122 122q0 59 -32 86q-16 14 -30 19.5t-77 24.5q-100 29 -140 81q-34 45 -34 122q0 100 58 152q51 45 138 45q86 0 132 -41q41 -36 58 -108l-85 -24q-16 52 -39.5 72t-66.5 20q-51 0 -77 -33q-23 -28 -23 -78
q0 -54 32 -83q29 -26 95 -46q63 -18 84 -27t44 -27q58 -46 58 -151q0 -108 -62 -161q-55 -46 -154 -46q-101 0 -152 43q-44 38 -63 119zM161 -226l43 158h93l-72 -158h-64z" />
    <glyph glyph-name="scommaaccent" unicode="&#x219;" horiz-adv-x="422" 
d="M23 121l81 18q12 -40 34 -56t66 -16q94 0 94 76q0 41 -27 57q-16 9 -75 21q-84 17 -114 45q-37 35 -37 103q0 77 47 115q40 33 112 33q78 0 117 -32q34 -29 48 -91l-79 -19q-16 66 -82 66q-35 0 -54.5 -18.5t-19.5 -52.5q0 -32 19 -48t68 -26q57 -11 82 -19t43 -23
q41 -33 41 -112q0 -152 -184 -152q-84 0 -128 36q-39 32 -52 95zM124 -226l43 158h93l-72 -158h-64z" />
    <glyph glyph-name="uni021A" unicode="&#x21a;" horiz-adv-x="459" 
d="M180 0v632h-163v82h424v-82h-162v-632h-99zM143 -226l43 158h93l-71 -158h-65z" />
    <glyph glyph-name="uni021B" unicode="&#x21b;" horiz-adv-x="296" 
d="M82 431h-52v77h52l5 155h90v-155h85v-77h-85v-265q0 -51 14 -69.5t56 -18.5h16v-78h-22q-67 0 -99 13q-34 14 -47 49.5t-13 112.5v256zM84 -226l43 158h94l-72 -158h-65z" />
    <glyph glyph-name="uni0226" unicode="&#x226;" horiz-adv-x="520" 
d="M381 151h-239l-42 -151h-107l223 714h90l223 -714h-107zM359 231l-98 353l-98 -353h196zM214 792v111h92v-111h-92z" />
    <glyph glyph-name="uni0227" unicode="&#x227;" horiz-adv-x="460" 
d="M300 301v29q0 60 -18 85t-63 25q-33 0 -52 -16t-31 -54l-80 24q32 123 166 123q112 0 151 -70q22 -41 22 -128v-319h-75l-6 33q-21 -24 -47.5 -33.5t-73.5 -9.5q-90 0 -125 40q-31 35 -31 113q0 93 43 127q39 31 127 31h93zM300 232h-75q-52 0 -74 -20t-22 -67
q0 -44 19 -61.5t67 -17.5q49 0 67 19.5t18 72.5v74zM188 587v111h91v-111h-91z" />
    <glyph glyph-name="uni0237" unicode="&#x237;" horiz-adv-x="237" 
d="M74 508h94v-511q0 -83 -10.5 -123t-37.5 -66q-24 -21 -55 -29t-93 -9v79q37 0 53.5 7t29.5 28q19 29 19 103v521z" />
    <glyph glyph-name="afii57929" unicode="&#x2bc;" horiz-adv-x="176" 
d="M24 470l29 244h99l-49 -244h-79z" />
    <glyph glyph-name="uni02C0" unicode="&#x2c0;" horiz-adv-x="500" 
d="M287 775h-66q0 39 3.5 50.5t24.5 41.5q9 13 9 24q0 22 -28 22q-18 0 -50 -15l-18 57q46 16 84 16q46 0 70 -22q20 -20 20 -53q0 -18 -5 -29t-27 -36q-11 -14 -14 -23t-3 -33z" />
    <glyph glyph-name="circumflex" unicode="&#x2c6;" horiz-adv-x="500" 
d="M250 665l-53 -80h-92l112 138h66l112 -138h-92z" />
    <glyph glyph-name="caron" unicode="&#x2c7;" horiz-adv-x="500" 
d="M250 642l53 79h92l-112 -138h-66l-112 138h92z" />
    <glyph glyph-name="uni02C9" unicode="&#x2c9;" horiz-adv-x="500" 
d="M127 614v68h245v-68h-245z" />
    <glyph glyph-name="breve" unicode="&#x2d8;" horiz-adv-x="500" 
d="M116 719h61q4 -41 20 -57.5t52 -16.5q37 0 52.5 16t20.5 58h61q-3 -63 -16 -88q-30 -55 -118 -55q-94 0 -121 64q-10 22 -12 79z" />
    <glyph glyph-name="dotaccent" unicode="&#x2d9;" horiz-adv-x="500" 
d="M204 587v111h91v-111h-91z" />
    <glyph glyph-name="ring" unicode="&#x2da;" horiz-adv-x="500" 
d="M250 782q51 0 81 -32q26 -28 26 -72q0 -50 -34 -80q-29 -26 -73 -26q-51 0 -81 34q-26 29 -26 73q0 50 33 78q29 25 74 25zM250 735q-46 0 -46 -58q0 -57 46 -57q45 0 45 57q0 58 -45 58z" />
    <glyph glyph-name="ogonek" unicode="&#x2db;" horiz-adv-x="500" 
d="M281 0h75q-45 -35 -62 -57.5t-17 -48.5q0 -37 42 -37q22 0 50 9l11 -51q-39 -15 -81 -15q-107 0 -107 78q0 68 89 122z" />
    <glyph glyph-name="tilde" unicode="&#x2dc;" horiz-adv-x="500" 
d="M163 593h-58q10 53 21 75q24 48 72 48q35 0 65 -31t44 -31q21 0 31 55h58q-9 -53 -18 -75q-21 -48 -72 -48q-38 0 -69 33q-16 19 -23.5 24t-14.5 5q-27 0 -36 -55z" />
    <glyph glyph-name="hungarumlaut" unicode="&#x2dd;" horiz-adv-x="500" 
d="M143 581l53 146h100l-87 -146h-66zM275 581l53 146h100l-87 -146h-66z" />
    <glyph glyph-name="uni0309" unicode="&#x309;" horiz-adv-x="500" 
d="M287 575h-66q0 39 3.5 50.5t24.5 41.5q9 13 9 24q0 22 -28 22q-18 0 -50 -15l-18 57q46 16 84 16q46 0 70 -22q20 -20 20 -53q0 -18 -5 -28.5t-27 -36.5q-11 -14 -14 -23t-3 -33z" />
    <glyph glyph-name="uni0312" unicode="&#x312;" horiz-adv-x="500" 
d="M197 581l105 146h71l-68 -146h-108z" />
    <glyph glyph-name="uni0313" unicode="&#x313;" horiz-adv-x="84" 
d="M-11 482l26 243h91l-51 -243h-66z" />
    <glyph glyph-name="uni031B" unicode="&#x31b;" horiz-adv-x="84" 
d="M-11 482l26 243h91l-51 -243h-66z" />
    <glyph glyph-name="uni0323" unicode="&#x323;" horiz-adv-x="500" 
d="M204 -198v111h91v-111h-91z" />
    <glyph glyph-name="uni037E" unicode="&#x37e;" horiz-adv-x="245" 
d="M39 -188l41 295h104l-61 -295h-84zM83 398v109h99v-109h-99z" />
    <glyph glyph-name="uni0387" unicode="&#x387;" horiz-adv-x="245" 
d="M73 307v108h99v-108h-99z" />
    <glyph glyph-name="uni04D4" unicode="&#x4d4;" horiz-adv-x="813" 
d="M401 162h-247l-82 -162h-114l385 714h425v-82h-269v-230h229v-82h-229v-238h272v-82h-370v162zM401 242v390h-10l-197 -390h207z" />
    <glyph glyph-name="uni04D5" unicode="&#x4d5;" horiz-adv-x="720" 
d="M352 457q42 60 138 60q100 0 142 -61q36 -55 36 -167v-56h-272v-36q0 -72 27 -103q23 -28 70 -28q71 0 87 72l81 -17q-14 -73 -59 -104q-39 -27 -109 -27q-53 0 -86.5 16t-56.5 52q-34 -68 -156 -68q-91 0 -126 40q-31 36 -31 114q0 93 44 127q38 31 126 31h93v28
q0 60 -18.5 85t-62.5 25q-63 0 -86 -69l-76 24q13 63 60 95q42 27 105 27q93 0 130 -60zM300 233h-75q-52 0 -74 -20t-22 -68q0 -45 19 -63t67 -18q51 0 69 26q16 23 16 78v65zM396 302h182v20q0 120 -91 120t-91 -120v-20z" />
    <glyph glyph-name="uni060C" unicode="&#x60c;" horiz-adv-x="236" 
d="M45 0l61 296h84l-40 -296h-105z" />
    <glyph glyph-name="uni0615" unicode="&#x615;" horiz-adv-x="0" 
d="M-34 773v-72q29 31 67 31q49 0 71 -36q14 -23 14 -52q0 -78 -83 -78h-149v44h31l-1 163h50zM32 689q-23 0 -42 -22.5t-24 -56.5h77q11 0 18 9t7 21q0 49 -36 49z" />
    <glyph glyph-name="uni061B" unicode="&#x61b;" horiz-adv-x="256" 
d="M65 400l61 295h84l-40 -295h-105zM67 0v109h99v-109h-99z" />
    <glyph glyph-name="uni061F" unicode="&#x61f;" horiz-adv-x="484" 
d="M243 724q99 0 150 -64q42 -52 47 -139l-92 -8q-9 73 -36 103q-24 26 -67 26q-45 0 -69 -32q-21 -28 -21 -73q0 -36 13 -62t51 -67q49 -51 64.5 -85.5t14.5 -93.5v-36h-78v26q0 41 -23 75q-11 16 -52 60q-18 19 -30 34q-33 40 -46 73t-13 77q0 95 55 144q48 42 132 42z
M305 0h-95v109h95v-109z" />
    <glyph glyph-name="uni0621" unicode="&#x621;" horiz-adv-x="502" 
d="M271 456q63 0 109 -32q42 -29 60 -79l-79 -23q-12 28 -37 45.5t-54 17.5q-48 0 -77 -43q-27 -39 -27 -103q1 -85 41 -127q37 -39 103 -39h148v-73h-218q-110 0 -187 -41q-4 -2 -6 -2q-3 0 -3 3v74q39 24 97 35q-29 27 -45 70t-16 92q0 95 43 155q50 70 148 70z" />
    <glyph glyph-name="uni0622" unicode="&#x622;" horiz-adv-x="233" 
d="M74 826q17 0 55 -21q20 -11 29 -11q15 0 27 27l39 -18q-26 -51 -66 -51q-18 0 -45 16q-22 14 -35 14q-20 0 -32 -27l-37 18q25 53 65 53zM163 654v-654h-94v654h94z" />
    <glyph glyph-name="uni0623" unicode="&#x623;" horiz-adv-x="233" 
d="M128 923q22 0 40.5 -13t25.5 -32l-39 -17q-9 19 -27 19q-12 0 -19.5 -9.5t-7.5 -24.5q0 -45 42 -45h59v-45h-168v45h31q-13 21 -13 46q0 33 21.5 54.5t54.5 21.5zM163 0h-94v654h94v-654z" />
    <glyph glyph-name="uni0624" unicode="&#x624;" horiz-adv-x="495" 
d="M250 762q22 0 40.5 -13t25.5 -32l-39 -17q-9 19 -27 19q-12 0 -19.5 -9.5t-7.5 -24.5q0 -45 42 -45h59v-45h-168v45h31q-13 21 -13 46q0 33 21.5 54.5t54.5 21.5zM241 502q103 0 147 -58q38 -50 38 -154v-274q0 -86 -12 -135t-41 -84q-47 -57 -139 -57q-83 0 -146 30
l20 74q53 -25 109 -25q70 0 95 49q20 40 20 125v20q-46 -23 -99 -23q-97 0 -140 60q-37 51 -37 152v88q0 118 50 168q44 44 135 44zM241 424q-51 0 -72 -35q-18 -31 -18 -98v-89q0 -76 24 -106q21 -27 66 -27q51 0 91 25v197q0 76 -24 106q-21 27 -67 27z" />
    <glyph glyph-name="uni0625" unicode="&#x625;" horiz-adv-x="233" 
d="M163 714v-714h-94v714h94zM126 -97q22 0 40.5 -13t25.5 -33l-39 -16q-9 19 -27 19q-11 0 -19 -10t-8 -24q0 -44 42 -46h59v-44h-168v44h31q-13 21 -13 47q0 33 21.5 54.5t54.5 21.5z" />
    <glyph glyph-name="uni0626" unicode="&#x626;" horiz-adv-x="693" 
d="M142 508q22 0 40.5 -13t25.5 -32l-39 -17q-9 19 -27 19q-12 0 -19.5 -9.5t-7.5 -24.5q0 -45 42 -45h59v-45h-168v45h31q-13 21 -13 46q0 33 21.5 54.5t54.5 21.5zM477 501q61 0 108 -31q44 -29 65 -81l-87 -24q-28 58 -86 58q-56 0 -84 -51q-22 -41 -23 -107
q0 -101 57 -150q42 -37 106 -37h53q29 0 46.5 -18t17.5 -49q0 -37 -25 -94q-32 -89 -111 -135q-71 -42 -166 -42q-146 0 -231 102q-72 86 -72 211q0 101 46 192l76 -39q-32 -72 -32 -156q0 -109 62 -174q57 -58 149 -58q91 0 147 51q45 41 60 107q2 10 2 15q0 9 -11 9h-42
q-111 0 -175 88q-52 71 -52 173q0 113 53 177q53 63 149 63z" />
    <glyph glyph-name="uni0627" unicode="&#x627;" horiz-adv-x="233" 
d="M163 714v-714h-94v714h94z" />
    <glyph glyph-name="uni0628" unicode="&#x628;" horiz-adv-x="818" 
d="M749 491v-279q0 -118 -50 -168q-43 -44 -130 -44h-297q-115 0 -178 78q-50 62 -50 145q0 124 70 214l77 -35q-26 -33 -41 -78t-15 -89q0 -74 46 -116q45 -41 122 -41h265q45 0 66 32t21 101v280h94zM460 -216h-94v113h94v-113z" />
    <glyph glyph-name="uni0629" unicode="&#x629;" horiz-adv-x="488" 
d="M213 595h-80v109h80v-109zM356 595h-80v109h80v-109zM244 502q103 0 147 -58q38 -50 38 -154v-88q0 -118 -50 -168q-45 -44 -135 -44q-104 0 -147 58q-38 50 -38 154v88q0 118 50 168q44 44 135 44zM243 424q-51 0 -72 -35q-18 -31 -18 -98v-89q0 -76 24 -106
q21 -27 66 -27q52 0 73 35q18 31 18 98v89q0 76 -24 106q-21 27 -67 27z" />
    <glyph glyph-name="uni062A" unicode="&#x62a;" horiz-adv-x="818" 
d="M385 571h-80v109h80v-109zM528 571h-80v109h80v-109zM749 491v-279q0 -118 -50 -168q-43 -44 -130 -44h-297q-115 0 -178 78q-50 62 -50 145q0 124 70 214l77 -35q-26 -33 -41 -78t-15 -89q0 -74 46 -116q45 -41 122 -41h265q45 0 66 32t21 101v280h94z" />
    <glyph glyph-name="uni062B" unicode="&#x62b;" horiz-adv-x="818" 
d="M456 724h-78v99h78v-99zM385 571h-80v109h80v-109zM528 571h-80v109h80v-109zM749 491v-279q0 -118 -50 -168q-43 -44 -130 -44h-297q-115 0 -178 78q-50 62 -50 145q0 124 70 214l77 -35q-26 -33 -41 -78t-15 -89q0 -74 46 -116q45 -41 122 -41h265q45 0 66 32t21 101
v280h94z" />
    <glyph glyph-name="uni062C" unicode="&#x62c;" horiz-adv-x="636" 
d="M44 -163q0 123 86 187q72 54 185 54h119q-22 24 -32 58.5t-21 128.5q-5 45 -11 67q-12 44 -38 68q-27 24 -66 24q-30 0 -54.5 -17.5t-37.5 -47.5l-85 24q20 61 74 93q45 26 103 26q140 0 185 -114q15 -40 28 -145q7 -62 15.5 -91t22.5 -46q24 -28 73 -28h2v-78h-279
q-83 0 -131 -46q-44 -42 -44 -116q0 -95 72 -139q50 -30 121 -30q69 0 136 35l21 -74q-69 -40 -171 -40q-112 0 -187 58q-85 65 -86 189zM399 -215h-94v113h94v-113z" />
    <glyph glyph-name="uni062D" unicode="&#x62d;" horiz-adv-x="636" 
d="M44 -163q0 123 86 187q72 54 185 54h119q-22 24 -32 58.5t-21 128.5q-5 45 -11 67q-12 44 -38 68q-27 24 -66 24q-30 0 -54.5 -17.5t-37.5 -47.5l-85 24q20 61 74 93q45 26 103 26q140 0 185 -114q15 -40 28 -145q7 -62 15.5 -91t22.5 -46q24 -28 73 -28h2v-78h-279
q-83 0 -131 -46q-44 -42 -44 -116q0 -95 72 -139q50 -30 121 -30q69 0 136 35l21 -74q-69 -40 -171 -40q-112 0 -187 58q-85 65 -86 189z" />
    <glyph glyph-name="uni062E" unicode="&#x62e;" horiz-adv-x="636" 
d="M313 595h-94v112h94v-112zM44 -163q0 123 86 187q72 54 185 54h119q-22 24 -32 58.5t-21 128.5q-5 45 -11 67q-12 44 -38 68q-27 24 -66 24q-30 0 -54.5 -17.5t-37.5 -47.5l-85 24q20 61 74 93q45 26 103 26q140 0 185 -114q15 -40 28 -145q7 -62 15.5 -91t22.5 -46
q24 -28 73 -28h2v-78h-279q-83 0 -131 -46q-44 -42 -44 -116q0 -95 72 -139q50 -30 121 -30q69 0 136 35l21 -74q-69 -40 -171 -40q-112 0 -187 58q-85 65 -86 189z" />
    <glyph glyph-name="uni062F" unicode="&#x62f;" horiz-adv-x="445" 
d="M141 424l25 78q235 -30 235 -290q0 -118 -50 -168q-43 -44 -130 -44h-177v78h176q87 0 87 129q0 107 -45 161q-40 48 -121 56z" />
    <glyph glyph-name="uni0630" unicode="&#x630;" horiz-adv-x="445" 
d="M236 595h-94v112h94v-112zM141 424l25 78q235 -30 235 -290q0 -118 -50 -168q-43 -44 -130 -44h-177v78h176q87 0 87 129q0 107 -45 161q-40 48 -121 56z" />
    <glyph glyph-name="uni0631" unicode="&#x631;" horiz-adv-x="305" 
d="M236 491v-500q0 -96 -21 -149q-37 -102 -154 -102q-48 0 -96 20l20 74q30 -15 69 -15q48 0 67.5 37t19.5 128v507h95z" />
    <glyph glyph-name="uni0632" unicode="&#x632;" horiz-adv-x="305" 
d="M236 595h-94v112h94v-112zM236 491v-500q0 -96 -21 -149q-37 -102 -154 -102q-48 0 -96 20l20 74q30 -15 69 -15q48 0 67.5 37t19.5 128v507h95z" />
    <glyph glyph-name="uni0633" unicode="&#x633;" horiz-adv-x="1221" 
d="M1152 491v-290q0 -117 -50 -167q-45 -44 -135 -44q-98 0 -138 59q-38 -59 -130 -59q-66 0 -99 35v-6q-7 -141 -87 -214q-72 -65 -193 -65q-127 0 -205 86q-71 79 -71 204q0 148 69 256l77 -36q-56 -99 -56 -209q0 -115 63 -175q50 -48 124 -48q90 0 140 62q46 57 46 156
v455h94v-290q0 -75 24 -106q22 -27 66 -27q52 0 73 35q18 31 18 98v290h95v-290q0 -75 24 -106q22 -27 66 -27q48 0 69.5 31t21.5 102v290h94z" />
    <glyph glyph-name="uni0634" unicode="&#x634;" horiz-adv-x="1221" 
d="M868 748h-78v99h78v-99zM797 595h-80v109h80v-109zM940 595h-80v109h80v-109zM1152 491v-290q0 -117 -50 -167q-45 -44 -135 -44q-98 0 -138 59q-38 -59 -130 -59q-66 0 -99 35v-6q-7 -141 -87 -214q-72 -65 -193 -65q-127 0 -205 86q-71 79 -71 204q0 148 69 256l77 -36
q-56 -99 -56 -209q0 -115 63 -175q50 -48 124 -48q90 0 140 62q46 57 46 156v455h94v-290q0 -75 24 -106q22 -27 66 -27q52 0 73 35q18 31 18 98v290h95v-290q0 -75 24 -106q22 -27 66 -27q48 0 69.5 31t21.5 102v290h94z" />
    <glyph glyph-name="uni0635" unicode="&#x635;" horiz-adv-x="1158" 
d="M861 502q131 0 198 -92q55 -76 55 -197q0 -118 -49 -168q-43 -45 -131 -45h-335q-12 -132 -90 -199q-71 -61 -189 -61q-127 0 -205 86q-71 79 -71 204q0 148 69 256l77 -36q-56 -99 -56 -209q0 -115 63 -175q50 -48 124 -48q90 0 140 62q46 57 46 156v455h94v-136
q47 78 124 116q63 31 136 31zM601 78h332q87 0 87 130q0 102 -44 159t-124 57q-69 0 -129 -55q-47 -44 -76 -111q-35 -71 -46 -180z" />
    <glyph glyph-name="uni0636" unicode="&#x636;" horiz-adv-x="1158" 
d="M901 595h-94v112h94v-112zM861 502q131 0 198 -92q55 -76 55 -197q0 -118 -49 -168q-43 -45 -131 -45h-335q-12 -132 -90 -199q-71 -61 -189 -61q-127 0 -205 86q-71 79 -71 204q0 148 69 256l77 -36q-56 -99 -56 -209q0 -115 63 -175q50 -48 124 -48q90 0 140 62
q46 57 46 156v455h94v-136q47 78 124 116q63 31 136 31zM601 78h332q87 0 87 130q0 102 -44 159t-124 57q-69 0 -129 -55q-47 -44 -76 -111q-35 -71 -46 -180z" />
    <glyph glyph-name="uni0637" unicode="&#x637;" horiz-adv-x="839" 
d="M542 502q133 0 200 -95q53 -75 53 -194q0 -118 -49 -168q-43 -45 -131 -45h-571v78h144v636h94v-359q47 77 124 116q64 31 136 31zM282 78h332q87 0 87 130q0 102 -44 159t-124 57q-69 0 -129 -55q-47 -44 -76 -111q-35 -71 -46 -180z" />
    <glyph glyph-name="uni0638" unicode="&#x638;" horiz-adv-x="839" 
d="M542 502q133 0 200 -95q53 -75 53 -194q0 -118 -49 -168q-43 -45 -131 -45h-571v78h144v636h94v-359q47 77 124 116q64 31 136 31zM582 595h-94v112h94v-112zM282 78h332q87 0 87 130q0 102 -44 159t-124 57q-69 0 -129 -55q-47 -44 -76 -111q-35 -71 -46 -180z" />
    <glyph glyph-name="uni0639" unicode="&#x639;" horiz-adv-x="532" 
d="M44 -163q0 81 38 138q34 49 93 73q-46 35 -72 90.5t-26 119.5q0 114 55 179t152 65q68 0 116 -34q45 -32 63 -86l-85 -24q-13 31 -38 48.5t-57 17.5q-56 0 -86 -54q-25 -43 -25 -107q0 -91 52 -142q44 -43 111 -43h152v-78h-174q-83 0 -131 -46q-44 -42 -44 -116
q0 -95 72 -139q50 -30 121 -30q69 0 136 35l21 -74q-69 -40 -171 -40q-112 0 -187 58q-85 65 -86 189z" />
    <glyph glyph-name="uni063A" unicode="&#x63a;" horiz-adv-x="532" 
d="M328 594h-94v112h94v-112zM44 -163q0 81 38 138q34 49 93 73q-46 35 -72 90.5t-26 119.5q0 114 55 179t152 65q68 0 116 -34q45 -32 63 -86l-85 -24q-13 31 -38 48.5t-57 17.5q-56 0 -86 -54q-25 -43 -25 -107q0 -91 52 -142q44 -43 111 -43h152v-78h-174q-83 0 -131 -46
q-44 -42 -44 -116q0 -95 72 -139q50 -30 121 -30q69 0 136 35l21 -74q-69 -40 -171 -40q-112 0 -187 58q-85 65 -86 189z" />
    <glyph glyph-name="uni0640" unicode="&#x640;" horiz-adv-x="188" 
d="M208 0h-208v78h208v-78z" />
    <glyph glyph-name="uni0641" unicode="&#x641;" horiz-adv-x="900" 
d="M704 595h-94v112h94v-112zM657 502q103 0 147 -58q38 -50 38 -154v-78q0 -118 -50 -168q-45 -44 -135 -44h-385q-115 0 -178 78q-50 62 -50 145q0 124 70 214l77 -35q-26 -33 -41 -78t-15 -89q0 -74 46 -116q45 -41 122 -41h205q-36 43 -36 134v78q0 118 50 168
q44 44 135 44zM747 211v80q0 76 -24 106q-21 27 -67 27q-51 0 -72 -35q-18 -31 -18 -98v-80q0 -75 24 -106q21 -27 66 -27q52 0 73 36q18 31 18 97z" />
    <glyph glyph-name="uni0642" unicode="&#x642;" horiz-adv-x="723" 
d="M438 595h-80v109h80v-109zM581 595h-80v109h80v-109zM468 502q103 0 147 -58q38 -50 38 -154v-229q-2 -164 -97 -249q-80 -72 -209 -72q-146 0 -231 102q-72 86 -72 211q0 101 46 192l76 -39q-32 -72 -32 -156q0 -109 62 -174q57 -58 149 -58q97 0 153 55q50 50 59 139
q-46 -22 -96 -22q-98 0 -141 59q-37 52 -37 153v88q0 118 50 168q44 44 135 44zM468 424q-51 0 -72 -35q-18 -31 -18 -98v-89q0 -76 24 -106q21 -27 66 -27q51 0 91 25v197q0 76 -24 106q-21 27 -67 27z" />
    <glyph glyph-name="uni0643" unicode="&#x643;" horiz-adv-x="818" 
d="M749 714v-502q0 -118 -50 -168q-43 -44 -130 -44h-297q-115 0 -178 78q-50 62 -50 145q0 124 70 214l77 -35q-26 -33 -41 -78t-15 -89q0 -74 46 -116q45 -41 122 -41h265q45 0 66 32t21 101v503h94zM411 497h11q40 0 63 -23q22 -22 22 -59q0 -38 -23 -60t-62 -22h-91v45
h94q14 0 23.5 10t9.5 26q0 17 -9 27.5t-24 10.5h-71v15q0 27 20 50l29 37h54z" />
    <glyph glyph-name="uni0644" unicode="&#x644;" horiz-adv-x="670" 
d="M601 714v-666q0 -154 -79 -234q-72 -74 -202 -74q-127 0 -205 86q-71 79 -71 204q0 148 69 256l77 -36q-56 -99 -56 -209q0 -115 63 -175q50 -48 124 -48q90 0 140 62q46 57 46 156v678h94z" />
    <glyph glyph-name="uni0645" unicode="&#x645;" horiz-adv-x="596" 
d="M353 502q103 0 147 -58q38 -50 38 -154v-118q0 -117 -50 -168q-44 -44 -133 -44q-118 0 -158 83q-35 -5 -49.5 -27t-14.5 -70v-302h-94v298q0 92 37 136q32 38 94 47q-2 15 -2 47v118q0 118 50 168q44 44 135 44zM443 172v119q0 76 -24 106q-21 27 -67 27q-51 0 -72 -35
q-18 -31 -18 -98v-119q0 -76 24 -106q21 -27 66 -27q52 0 73 35q18 31 18 98z" />
    <glyph glyph-name="uni0646" unicode="&#x646;" horiz-adv-x="670" 
d="M378 531h-94v112h94v-112zM601 491v-443q0 -154 -79 -234q-72 -74 -202 -74q-127 0 -205 86q-71 79 -71 204q0 148 69 256l77 -36q-56 -99 -56 -209q0 -115 63 -175q50 -48 124 -48q90 0 140 62q46 57 46 156v455h94z" />
    <glyph glyph-name="uni0647" unicode="&#x647;" horiz-adv-x="488" 
d="M244 502q103 0 147 -58q38 -50 38 -154v-88q0 -118 -50 -168q-45 -44 -135 -44q-104 0 -147 58q-38 50 -38 154v88q0 118 50 168q44 44 135 44zM243 424q-51 0 -72 -35q-18 -31 -18 -98v-89q0 -76 24 -106q21 -27 66 -27q52 0 73 35q18 31 18 98v89q0 76 -24 106
q-21 27 -67 27z" />
    <glyph glyph-name="uni0648" unicode="&#x648;" horiz-adv-x="495" 
d="M241 502q103 0 147 -58q38 -50 38 -154v-274q0 -86 -12 -135t-41 -84q-47 -57 -139 -57q-83 0 -146 30l20 74q53 -25 109 -25q70 0 95 49q20 40 20 125v20q-46 -23 -99 -23q-97 0 -140 60q-37 51 -37 152v88q0 118 50 168q44 44 135 44zM241 424q-51 0 -72 -35
q-18 -31 -18 -98v-89q0 -76 24 -106q21 -27 66 -27q51 0 91 25v197q0 76 -24 106q-21 27 -67 27z" />
    <glyph glyph-name="uni0649" unicode="&#x649;" horiz-adv-x="693" 
d="M477 501q61 0 108 -31q44 -29 65 -81l-87 -24q-28 58 -86 58q-56 0 -84 -51q-22 -41 -23 -107q0 -101 57 -150q42 -37 106 -37h53q29 0 46.5 -18t17.5 -49q0 -37 -25 -94q-32 -89 -111 -135q-71 -42 -166 -42q-146 0 -231 102q-72 86 -72 211q0 101 46 192l76 -39
q-32 -72 -32 -156q0 -109 62 -174q57 -58 149 -58q91 0 147 51q45 41 60 107q2 10 2 15q0 9 -11 9h-42q-111 0 -175 88q-52 71 -52 173q0 113 53 177q53 63 149 63z" />
    <glyph glyph-name="uni064A" unicode="&#x64a;" horiz-adv-x="693" 
d="M477 501q61 0 108 -31q44 -29 65 -81l-87 -24q-28 58 -86 58q-56 0 -84 -51q-22 -41 -23 -107q0 -101 57 -150q42 -37 106 -37h53q29 0 46.5 -18t17.5 -49q0 -37 -25 -94q-32 -89 -111 -135q-71 -42 -166 -42q-146 0 -231 102q-72 86 -72 211q0 101 46 192l76 -39
q-32 -72 -32 -156q0 -109 62 -174q57 -58 149 -58q91 0 147 51q45 41 60 107q2 10 2 15q0 9 -11 9h-42q-111 0 -175 88q-52 71 -52 173q0 113 53 177q53 63 149 63zM317 -466h-80v109h80v-109zM459 -466h-80v109h80v-109z" />
    <glyph glyph-name="uni064B" unicode="&#x64b;" horiz-adv-x="0" 
d="M84 666h-168v45h168v-45zM84 563h-168v45h168v-45z" />
    <glyph glyph-name="uni064C" unicode="&#x64c;" horiz-adv-x="0" 
d="M27 740q40 0 62 -28q18 -23 18 -53q-1 -49 -37 -78q-29 -24 -69 -24q-37 0 -80 18q-15 6 -20 6q-10 0 -21 -17l-37 23q14 23 26 31.5t28 8.5q11 0 35 -11q23 -11 38 -14q-20 23 -20 56q0 37 22 60q22 22 55 22zM28 698q-13 0 -21 -11t-8 -29q0 -36 29 -51q13 5 21.5 19.5
t8.5 33.5q0 17 -8.5 27.5t-21.5 10.5z" />
    <glyph glyph-name="uni064D" unicode="&#x64d;" horiz-adv-x="0" 
d="M84 -140h-168v45h168v-45zM84 -243h-168v45h168v-45z" />
    <glyph glyph-name="uni064E" unicode="&#x64e;" horiz-adv-x="0" 
d="M80 561h-168v45h168v-45z" />
    <glyph glyph-name="uni064F" unicode="&#x64f;" horiz-adv-x="0" 
d="M25 779q40 0 62 -30q18 -23 18 -55q-2 -41 -23 -64q-19 -19 -66 -38q-71 -28 -128 -39l-15 40q68 18 105 34q-31 23 -31 69q0 37 23 60q22 23 55 23zM25 737q-12 0 -20 -12t-8 -30q0 -35 29 -49q13 4 21 18.5t8 32.5t-8 29t-22 11z" />
    <glyph glyph-name="uni0650" unicode="&#x650;" horiz-adv-x="0" 
d="M81 -141h-168v45h168v-45z" />
    <glyph glyph-name="uni0651" unicode="&#x651;" horiz-adv-x="0" 
d="M130 733v-83q0 -85 -83 -85q-28 0 -48 17q-18 -17 -47 -17q-84 0 -84 85v83h50v-91q0 -32 28 -32t28 32v76h50v-76q0 -15 7.5 -23.5t20.5 -8.5q28 0 28 32v91h50z" />
    <glyph glyph-name="uni0652" unicode="&#x652;" horiz-adv-x="0" 
d="M2 733q40 0 62 -29q17 -22 17 -55q0 -36 -22 -60q-22 -23 -57 -23q-40 0 -62 29q-18 23 -18 54q0 38 23 62q22 22 57 22zM2 691q-14 0 -22 -11.5t-8 -30.5q0 -18 8 -29.5t22 -11.5q13 0 21.5 11.5t8.5 29.5q0 19 -8.5 30.5t-21.5 11.5z" />
    <glyph glyph-name="uni0653" unicode="&#x653;" horiz-adv-x="0" 
d="M-54 645q17 0 55 -21q20 -11 29 -11q15 0 27 27l39 -18q-26 -51 -66 -51q-18 0 -45 17q-22 13 -35 13q-20 0 -32 -27l-37 18q25 53 65 53z" />
    <glyph glyph-name="uni0654" unicode="&#x654;" horiz-adv-x="0" 
d="M8 733q22 0 40.5 -13t25.5 -32l-39 -17q-9 19 -27 19q-12 0 -19.5 -9.5t-7.5 -24.5q0 -45 42 -45h59v-45h-168v45h31q-13 20 -13 46q0 33 21.5 54.5t54.5 21.5z" />
    <glyph glyph-name="uni0655" unicode="&#x655;" horiz-adv-x="0" 
d="M2 -100q22 0 40.5 -13t25.5 -33l-39 -16q-9 19 -27 19q-11 0 -19 -10t-8 -24q0 -44 42 -46h59v-44h-168v44h31q-13 21 -13 47q0 33 21.5 54.5t54.5 21.5z" />
    <glyph glyph-name="uni0660" unicode="&#x660;" horiz-adv-x="299" 
d="M255 272l-104 -102l-107 108l103 103z" />
    <glyph glyph-name="uni0661" unicode="&#x661;" horiz-adv-x="233" 
d="M163 714v-714h-94v714h94z" />
    <glyph glyph-name="uni0662" unicode="&#x662;" horiz-adv-x="499" 
d="M269 726q70 0 120 -33q46 -31 65 -86l-86 -24q-12 30 -37.5 47.5t-56.5 17.5q-115 0 -110 -150v-498h-95v499q-1 115 55 173q51 54 145 54z" />
    <glyph glyph-name="uni0663" unicode="&#x663;" horiz-adv-x="777" 
d="M715 713v-216q0 -118 -50 -168q-45 -44 -135 -44q-97 0 -138 60q-42 -60 -138 -60q-57 0 -91 32v-317h-94v714h94v-217q0 -76 25 -106q21 -27 66 -27q48 0 69.5 31t21.5 102v216h94v-215q0 -76 24 -107q22 -27 66 -27q52 0 73 35q18 31 18 98v216h95z" />
    <glyph glyph-name="uni0664" unicode="&#x664;" horiz-adv-x="493" 
d="M263 726q71 0 120 -33q48 -31 66 -86l-85 -24q-12 30 -38 47.5t-57 17.5q-57 0 -86 -38q-23 -31 -23 -83t34 -87q30 -30 70 -30h126v-78h-139q-51 0 -84 -42q-29 -38 -29 -92q0 -61 35 -97q33 -32 86 -32q36 0 63.5 16.5t39.5 46.5l85 -24q-22 -61 -76 -92
q-47 -26 -113 -26q-114 0 -171 74q-43 54 -43 131q0 130 94 178q-34 24 -53.5 64t-19.5 86q0 88 53 145q53 58 145 58z" />
    <glyph glyph-name="uni0665" unicode="&#x665;" horiz-adv-x="450" 
d="M225 603q91 0 130 -57q34 -50 40 -154l11 -216q0 -186 -181 -186q-96 0 -141 50q-40 46 -40 136l11 216q7 119 50 167q40 44 120 44zM225 525q-40 0 -57 -35q-15 -29 -19 -97l-11 -213q0 -111 87 -111q86 0 86 110l-11 214q-5 77 -23 106q-17 26 -52 26z" />
    <glyph glyph-name="uni0666" unicode="&#x666;" horiz-adv-x="499" 
d="M230 726q107 0 158 -69q43 -58 42 -158v-499h-95v498q5 150 -110 150q-31 0 -56.5 -17.5t-37.5 -47.5l-86 24q22 62 78 94q47 25 107 25z" />
    <glyph glyph-name="uni0667" unicode="&#x667;" horiz-adv-x="590" 
d="M346 0h-102l-214 714h96l169 -573l169 573h96z" />
    <glyph glyph-name="uni0668" unicode="&#x668;" horiz-adv-x="590" 
d="M464 0l-169 573l-169 -573h-96l214 714h102l214 -714h-96z" />
    <glyph glyph-name="uni0669" unicode="&#x669;" horiz-adv-x="498" 
d="M244 726q104 0 147 -55q38 -50 38 -153v-518h-94v285h-91q-104 0 -147 57q-38 51 -38 155v21q0 118 50 166q43 42 135 42zM243 648q-51 0 -72 -35q-18 -31 -18 -98v-23q0 -76 24 -106q21 -27 66 -27h91v156q0 76 -24 106q-21 27 -67 27z" />
    <glyph glyph-name="uni066A" unicode="&#x66a;" horiz-adv-x="448" 
d="M364 714l-192 -714h-88l192 714h88zM154 682v-96h-86v96h86zM294 32v96h86v-96h-86z" />
    <glyph glyph-name="uni066B" unicode="&#x66b;" horiz-adv-x="236" 
d="M190 78l-61 -295h-84l41 295h104z" />
    <glyph glyph-name="uni066C" unicode="&#x66c;" horiz-adv-x="236" 
d="M190 296l-61 -296h-84l41 296h104z" />
    <glyph glyph-name="uni066E" unicode="&#x66e;" horiz-adv-x="818" 
d="M749 491v-279q0 -118 -50 -168q-43 -44 -130 -44h-297q-115 0 -178 78q-50 62 -50 145q0 124 70 214l77 -35q-26 -33 -41 -78t-15 -89q0 -74 46 -116q45 -41 122 -41h265q45 0 66 32t21 101v280h94z" />
    <glyph glyph-name="uni0670" unicode="&#x670;" horiz-adv-x="0" 
d="M25 568h-50v167h50v-167z" />
    <glyph glyph-name="uni0671" unicode="&#x671;" horiz-adv-x="233" 
d="M159 909q40 0 65 -26q20 -22 20 -53q0 -39 -26 -61q-22 -18 -51 -18q-26 0 -78 25q-28 13 -40 13q-19 0 -30 -27l-38 17q24 54 63 54q8 0 18 -3q26 79 97 79zM161 864q-15 0 -29.5 -14t-21.5 -34q36 -20 57 -20q28 0 28 32q0 36 -34 36zM163 654v-654h-94v654h94z" />
    <glyph glyph-name="uni0679" unicode="&#x679;" horiz-adv-x="818" 
d="M389 778v-72q29 31 67 31q49 0 71 -36q14 -23 14 -52q0 -78 -83 -78h-149v44h31l-1 163h50zM455 694q-23 0 -42 -22.5t-24 -56.5h77q11 0 18 8.5t7 21.5q0 49 -36 49zM749 491v-279q0 -118 -50 -168q-43 -44 -130 -44h-297q-115 0 -178 78q-50 62 -50 145q0 124 70 214
l77 -35q-26 -33 -41 -78t-15 -89q0 -74 46 -116q45 -41 122 -41h265q45 0 66 32t21 101v280h94z" />
    <glyph glyph-name="uni067E" unicode="&#x67e;" horiz-adv-x="818" 
d="M749 491v-279q0 -118 -50 -168q-43 -44 -130 -44h-297q-115 0 -178 78q-50 62 -50 145q0 124 70 214l77 -35q-26 -33 -41 -78t-15 -89q0 -74 46 -116q45 -41 122 -41h265q45 0 66 32t21 101v280h94zM383 -212h-80v109h80v-109zM525 -212h-80v109h80v-109zM453 -356h-78
v100h78v-100z" />
    <glyph glyph-name="uni0686" unicode="&#x686;" horiz-adv-x="636" 
d="M266 502q140 0 185 -114q15 -40 28 -145q7 -62 15.5 -91t22.5 -46q24 -28 73 -28h2v-78h-279q-83 0 -131 -46q-44 -42 -44 -116q0 -71 41 -115q33 -33 85 -46q1 0 4 -1q27 -6 39 -6l30 -78q-5 -1 -18 -1q-111 0 -186 55q-89 65 -89 191q0 123 86 187q72 54 185 54h119
q-22 24 -32 58.5t-21 128.5q-5 45 -11 67q-12 44 -38 68q-27 24 -66 24q-30 0 -54.5 -17.5t-37.5 -47.5l-85 24q20 61 74 93q45 26 103 26zM377 -188h-62v88h62v-88zM496 -188h-62v88h62v-88zM434 -307h-58v80h58v-80z" />
    <glyph glyph-name="uni0688" unicode="&#x688;" horiz-adv-x="445" 
d="M220 802v-72q29 31 67 31q49 0 71 -36q14 -23 14 -52q0 -78 -83 -78h-149v44h31l-1 163h50zM286 718q-23 0 -42 -22.5t-24 -56.5h77q11 0 18 8.5t7 21.5q0 49 -36 49zM141 424l25 78q235 -30 235 -290q0 -118 -50 -168q-43 -44 -130 -44h-177v78h176q87 0 87 129
q0 107 -45 161q-40 48 -121 56z" />
    <glyph glyph-name="uni0691" unicode="&#x691;" horiz-adv-x="305" 
d="M149 802v-72q29 31 67 31q49 0 71 -36q14 -23 14 -52q0 -78 -83 -78h-149v44h31l-1 163h50zM215 718q-23 0 -42 -22.5t-24 -56.5h77q11 0 18 8.5t7 21.5q0 49 -36 49zM236 491v-500q0 -96 -21 -149q-37 -102 -154 -102q-48 0 -96 20l20 74q30 -15 69 -15q48 0 67.5 37
t19.5 128v507h95z" />
    <glyph glyph-name="uni0698" unicode="&#x698;" horiz-adv-x="305" 
d="M227 748h-78v99h78v-99zM156 595h-80v109h80v-109zM299 595h-80v109h80v-109zM236 491v-500q0 -96 -21 -149q-37 -102 -154 -102q-48 0 -96 20l20 74q30 -15 69 -15q48 0 67.5 37t19.5 128v507h95z" />
    <glyph glyph-name="uni06A1" unicode="&#x6a1;" horiz-adv-x="900" 
d="M657 502q103 0 147 -58q38 -50 38 -154v-78q0 -118 -50 -168q-45 -44 -135 -44h-385q-115 0 -178 78q-50 62 -50 145q0 124 70 214l77 -35q-26 -33 -41 -78t-15 -89q0 -74 46 -116q45 -41 122 -41h205q-36 43 -36 134v78q0 118 50 168q44 44 135 44zM747 211v80
q0 76 -24 106q-21 27 -67 27q-51 0 -72 -35q-18 -31 -18 -98v-80q0 -75 24 -106q21 -27 66 -27q52 0 73 36q18 31 18 97z" />
    <glyph glyph-name="uni06A4" unicode="&#x6a4;" horiz-adv-x="900" 
d="M697 748h-78v99h78v-99zM626 595h-80v109h80v-109zM769 595h-80v109h80v-109zM657 502q103 0 147 -58q38 -50 38 -154v-78q0 -118 -50 -168q-45 -44 -135 -44h-385q-115 0 -178 78q-50 62 -50 145q0 124 70 214l77 -35q-26 -33 -41 -78t-15 -89q0 -74 46 -116
q45 -41 122 -41h205q-36 43 -36 134v78q0 118 50 168q44 44 135 44zM747 211v80q0 76 -24 106q-21 27 -67 27q-51 0 -72 -35q-18 -31 -18 -98v-80q0 -75 24 -106q21 -27 66 -27q52 0 73 36q18 31 18 97z" />
    <glyph glyph-name="uni06A9" unicode="&#x6a9;" horiz-adv-x="807" 
d="M303 78h260q48 0 69.5 31.5t21.5 101.5v70q0 75 -25 105q-21 27 -66 27h-212v36q0 24 6 38.5t27 39.5l147 187h106l-177 -223h104q103 0 146 -57q38 -51 38 -154v-68q0 -118 -50 -168q-44 -44 -134 -44h-292q-115 0 -178 78q-50 62 -50 145q0 124 70 214l77 -35
q-26 -33 -41 -78t-15 -89q0 -74 46 -116q45 -41 122 -41z" />
    <glyph glyph-name="uni06AF" unicode="&#x6af;" horiz-adv-x="911" 
d="M303 78h365q48 0 69.5 31.5t21.5 101.5v70q0 75 -25 105q-21 27 -66 27h-212v36q0 24 6 38.5t27 39.5l147 187h106l-177 -223h104q103 0 146 -57q38 -51 38 -154v-68q0 -118 -50 -168q-44 -44 -134 -44h-397q-115 0 -178 78q-50 62 -50 145q0 124 70 214l77 -35
q-26 -33 -41 -78t-15 -89q0 -74 46 -116q45 -41 122 -41zM289 490l177 224h58l-178 -224h-57z" />
    <glyph glyph-name="uni06BA" unicode="&#x6ba;" horiz-adv-x="670" 
d="M601 491v-443q0 -154 -79 -234q-72 -74 -202 -74q-127 0 -205 86q-71 79 -71 204q0 148 69 256l77 -36q-56 -99 -56 -209q0 -115 63 -175q50 -48 124 -48q90 0 140 62q46 57 46 156v455h94z" />
    <glyph glyph-name="uni06BE" unicode="&#x6be;" horiz-adv-x="488" 
d="M244 502q103 0 147 -58q38 -50 38 -154v-88q0 -118 -50 -168q-45 -44 -135 -44q-104 0 -147 58q-38 50 -38 154v88q0 118 50 168q44 44 135 44zM243 424q-51 0 -72 -35q-18 -31 -18 -98v-89q0 -76 24 -106q21 -27 66 -27q52 0 73 35q18 31 18 98v89q0 76 -24 106
q-21 27 -67 27z" />
    <glyph glyph-name="uni06C0" unicode="&#x6c0;" horiz-adv-x="488" 
d="M253 762q22 0 40.5 -13t25.5 -32l-39 -17q-9 19 -27 19q-12 0 -19.5 -9.5t-7.5 -24.5q0 -45 42 -45h59v-45h-168v45h31q-13 21 -13 46q0 33 21.5 54.5t54.5 21.5zM244 502q103 0 147 -58q38 -50 38 -154v-88q0 -118 -50 -168q-45 -44 -135 -44q-104 0 -147 58
q-38 50 -38 154v88q0 118 50 168q44 44 135 44zM243 424q-51 0 -72 -35q-18 -31 -18 -98v-89q0 -76 24 -106q21 -27 66 -27q52 0 73 35q18 31 18 98v89q0 76 -24 106q-21 27 -67 27z" />
    <glyph glyph-name="uni06C1" unicode="&#x6c1;" horiz-adv-x="488" 
d="M244 502q103 0 147 -58q38 -50 38 -154v-88q0 -118 -50 -168q-45 -44 -135 -44q-104 0 -147 58q-38 50 -38 154v88q0 118 50 168q44 44 135 44zM243 424q-51 0 -72 -35q-18 -31 -18 -98v-89q0 -76 24 -106q21 -27 66 -27q52 0 73 35q18 31 18 98v89q0 76 -24 106
q-21 27 -67 27z" />
    <glyph glyph-name="uni06C2" unicode="&#x6c2;" horiz-adv-x="488" 
d="M253 762q22 0 40.5 -13t25.5 -32l-39 -17q-9 19 -27 19q-12 0 -19.5 -9.5t-7.5 -24.5q0 -45 42 -45h59v-45h-168v45h31q-13 21 -13 46q0 33 21.5 54.5t54.5 21.5zM244 502q103 0 147 -58q38 -50 38 -154v-88q0 -118 -50 -168q-45 -44 -135 -44q-104 0 -147 58
q-38 50 -38 154v88q0 118 50 168q44 44 135 44zM243 424q-51 0 -72 -35q-18 -31 -18 -98v-89q0 -76 24 -106q21 -27 66 -27q52 0 73 35q18 31 18 98v89q0 76 -24 106q-21 27 -67 27z" />
    <glyph glyph-name="uni06C3" unicode="&#x6c3;" horiz-adv-x="488" 
d="M213 595h-80v109h80v-109zM356 595h-80v109h80v-109zM244 502q103 0 147 -58q38 -50 38 -154v-88q0 -118 -50 -168q-45 -44 -135 -44q-104 0 -147 58q-38 50 -38 154v88q0 118 50 168q44 44 135 44zM243 424q-51 0 -72 -35q-18 -31 -18 -98v-89q0 -76 24 -106
q21 -27 66 -27q52 0 73 35q18 31 18 98v89q0 76 -24 106q-21 27 -67 27z" />
    <glyph glyph-name="uni06CC" unicode="&#x6cc;" horiz-adv-x="693" 
d="M477 501q61 0 108 -31q44 -29 65 -81l-87 -24q-28 58 -86 58q-56 0 -84 -51q-22 -41 -23 -107q0 -101 57 -150q42 -37 106 -37h53q29 0 46.5 -18t17.5 -49q0 -37 -25 -94q-32 -89 -111 -135q-71 -42 -166 -42q-146 0 -231 102q-72 86 -72 211q0 101 46 192l76 -39
q-32 -72 -32 -156q0 -109 62 -174q57 -58 149 -58q91 0 147 51q45 41 60 107q2 10 2 15q0 9 -11 9h-42q-111 0 -175 88q-52 71 -52 173q0 113 53 177q53 63 149 63zM317 -466h-80v109h80v-109zM459 -466h-80v109h80v-109zM387 -610h-78v100h78v-100z" />
    <glyph glyph-name="uni06D2" unicode="&#x6d2;" horiz-adv-x="810" 
d="M766 0h-522q-103 0 -147 57q-38 51 -38 154v68q0 118 50 168q45 44 135 44h95q6 104 59 164q53 59 143 59q69 0 118 -34q46 -31 64 -86l-86 -24q-12 30 -37.5 48t-55.5 18q-58 0 -88 -53q-24 -43 -24 -111v-59h-188q-48 0 -69.5 -31t-21.5 -102v-69q0 -76 25 -106
q21 -27 66 -27h522v-78z" />
    <glyph glyph-name="uni06D3" unicode="&#x6d3;" horiz-adv-x="810" 
d="M187 762q22 0 40.5 -13t25.5 -32l-39 -17q-9 19 -27 19q-12 0 -19.5 -9.5t-7.5 -24.5q0 -45 42 -45h59v-45h-168v45h31q-13 21 -13 46q0 33 21.5 54.5t54.5 21.5zM766 0h-522q-103 0 -147 57q-38 51 -38 154v68q0 118 50 168q45 44 135 44h95q6 104 59 164q53 59 143 59
q69 0 118 -34q46 -31 64 -86l-86 -24q-12 30 -37.5 48t-55.5 18q-58 0 -88 -53q-24 -43 -24 -111v-59h-188q-48 0 -69.5 -31t-21.5 -102v-69q0 -76 25 -106q21 -27 66 -27h522v-78z" />
    <glyph glyph-name="uni06F0" unicode="&#x6f0;" horiz-adv-x="299" 
d="M255 272l-104 -102l-107 108l103 103z" />
    <glyph glyph-name="uni06F1" unicode="&#x6f1;" horiz-adv-x="233" 
d="M163 714v-714h-94v714h94z" />
    <glyph glyph-name="uni06F2" unicode="&#x6f2;" horiz-adv-x="499" 
d="M269 726q70 0 120 -33q46 -31 65 -86l-86 -24q-12 30 -37.5 47.5t-56.5 17.5q-115 0 -110 -150v-498h-95v499q-1 115 55 173q51 54 145 54z" />
    <glyph glyph-name="uni06F3" unicode="&#x6f3;" horiz-adv-x="777" 
d="M715 713v-216q0 -118 -50 -168q-45 -44 -135 -44q-97 0 -138 60q-42 -60 -138 -60q-57 0 -91 32v-317h-94v714h94v-217q0 -76 25 -106q21 -27 66 -27q48 0 69.5 31t21.5 102v216h94v-215q0 -76 24 -107q22 -27 66 -27q52 0 73 35q18 31 18 98v216h95z" />
    <glyph glyph-name="uni06F4" unicode="&#x6f4;" horiz-adv-x="497" 
d="M305 725q62 0 111 -30v-80q-51 31 -104 31q-52 0 -88 -34q-34 -32 -46 -88q-10 -27 -15 -76q78 -38 144 -38q72 0 146 37v-79q-60 -35 -153 -35q-79 0 -137 27v-360h-94v714h94v-51q45 62 142 62z" />
    <glyph glyph-name="uni06F5" unicode="&#x6f5;" horiz-adv-x="450" 
d="M227 603q91 0 130 -57q34 -50 40 -154l11 -222q5 -87 -26 -132q-14 -22 -38 -35t-51 -13q-35 0 -61 23l-2 2q-2 1 -3 1t-3 -2q-1 0 -2 -1q-26 -23 -61 -23q-26 0 -50.5 13t-38.5 35q-31 45 -26 132l11 222q6 119 50 167q40 44 120 44zM227 525q-40 0 -57 -35
q-14 -30 -18 -97l-13 -246q0 -22 3 -37q9 -46 44 -46q22 0 38 18l1 1q1 2 2 2t2 -2l1 -1q16 -18 38 -18q39 0 44 46q2 20 2 34l-12 249q-4 77 -23 106q-17 26 -52 26z" />
    <glyph glyph-name="uni06F6" unicode="&#x6f6;" horiz-adv-x="539" 
d="M258 726q72 0 124 -35q47 -32 64 -84l-84 -25q-14 30 -40.5 48t-57.5 18q-47 0 -76 -37q-28 -35 -28 -92q0 -69 41 -121q37 -47 86 -47q17 0 35 8q83 41 172 58l1 -78q-131 -36 -205 -100q-52 -45 -90 -100.5t-73 -138.5h-97q66 193 177 284q-70 28 -109 97
q-32 59 -32 132q0 98 55 157q51 56 137 56z" />
    <glyph glyph-name="uni06F7" unicode="&#x6f7;" horiz-adv-x="590" 
d="M346 0h-102l-214 714h96l169 -573l169 573h96z" />
    <glyph glyph-name="uni06F8" unicode="&#x6f8;" horiz-adv-x="590" 
d="M464 0l-169 573l-169 -573h-96l214 714h102l214 -714h-96z" />
    <glyph glyph-name="uni06F9" unicode="&#x6f9;" horiz-adv-x="498" 
d="M244 726q104 0 147 -55q38 -50 38 -153v-518h-94v285h-91q-104 0 -147 57q-38 51 -38 155v21q0 118 50 166q43 42 135 42zM243 648q-51 0 -72 -35q-18 -31 -18 -98v-23q0 -76 24 -106q21 -27 66 -27h91v156q0 76 -24 106q-21 27 -67 27z" />
    <glyph glyph-name="uni1E02" unicode="&#x1e02;" horiz-adv-x="553" 
d="M81 0v714h215q57 0 90.5 -10t57.5 -33q50 -51 50 -145q0 -110 -71 -153q35 -23 49 -45q33 -50 33 -134q0 -106 -56 -156q-23 -21 -53 -29.5t-81 -8.5h-234zM180 406h115q100 0 100 114q0 62 -28 90q-25 23 -75 23h-112v-227zM180 81h121q54 0 78 25q27 31 27 95
q0 71 -31 102q-23 23 -69 23h-126v-245zM216 792v111h91v-111h-91z" />
    <glyph glyph-name="uni1E03" unicode="&#x1e03;" horiz-adv-x="488" 
d="M68 0v714h94v-236q25 22 49 30.5t59 8.5q89 0 127 -57q34 -50 34 -151v-102q0 -120 -44 -172q-39 -45 -119 -45q-40 0 -66 9.5t-50 33.5l-5 5l-6 -38h-73zM162 210q2 -79 26 -112q21 -29 63 -29q86 0 86 136v103q0 130 -85 130q-90 0 -90 -140v-88zM244 587v111h92v-111
h-92z" />
    <glyph glyph-name="uni1E0C" unicode="&#x1e0c;" horiz-adv-x="577" 
d="M81 0v714h197q60 0 98 -10.5t66 -35.5q37 -32 52 -76.5t15 -118.5v-232q0 -74 -15 -118.5t-52 -76.5q-28 -24 -66.5 -35t-97.5 -11h-197zM180 81h90q82 0 113 44q27 39 27 128v208q0 101 -36 139q-31 33 -104 33h-90v-552zM223 -198v111h91v-111h-91z" />
    <glyph glyph-name="uni1E0D" unicode="&#x1e0d;" horiz-adv-x="488" 
d="M346 0l-6 38l-3 -3q-1 -2 -2 -2q-23 -23 -49.5 -33t-65.5 -10q-91 0 -130 59q-34 52 -34 158v102q0 114 44 164q39 44 116 44q37 0 61.5 -8.5t47.5 -30.5v236h94v-714h-73zM325 298q-2 79 -26 112q-21 28 -64 28q-85 0 -85 -130v-102q0 -75 24 -108q21 -29 62 -29
q89 0 89 141v88zM212 -198v111h91v-111h-91z" />
    <glyph glyph-name="uni1E1E" unicode="&#x1e1e;" horiz-adv-x="468" 
d="M82 0v714h363v-82h-264v-236h223v-82h-223v-314h-99zM224 792v111h91v-111h-91z" />
    <glyph glyph-name="uni1E1F" unicode="&#x1e1f;" horiz-adv-x="293" 
d="M86 431h-53v77h53v67q0 45 7.5 71t24.5 43q15 14 38 19.5t68 5.5h46v-73h-25q-44 0 -55 -15q-9 -14 -9 -59v-59h93v-77h-93v-431h-95v431zM138 792v111h91v-111h-91z" />
    <glyph glyph-name="uni1E24" unicode="&#x1e24;" horiz-adv-x="582" 
d="M81 0v714h99v-312h221v312h99v-714h-99v320h-221v-320h-99zM245 -198v111h91v-111h-91z" />
    </font>
</defs>
</svg>
