<svg height="512pt" viewBox="0 0 512 512" width="512pt" xmlns="http://www.w3.org/2000/svg"><path d="m512 256c0 141.386719-114.613281 256-256 256s-256-114.613281-256-256 114.613281-256 256-256 256 114.613281 256 256zm0 0" fill="#ffda2d"/><path d="m338.105469 169.890625-.082031-.082031-225.613282 225.613281 114.976563 114.976563c9.394531 1.046874 18.9375 1.601562 28.613281 1.601562 141.386719 0 256-114.613281 256-256 0-19.566406-2.203125-38.613281-6.359375-56.921875l-98.363281-98.359375zm0 0" fill="#fdbf00"/><path d="m122.441406 172.21875h248.796875v213.339844h-248.796875zm0 0" fill="#47568c"/><path d="m247.136719 172.21875h124.101562v213.339844h-124.101562zm0 0" fill="#2c3b73"/><path d="m140.171875 189.949219h213.335937v195.609375h-213.335937zm0 0" fill="#4bb9ec"/><path d="m247.136719 189.949219h106.375v195.609375h-106.375zm0 0" fill="#0095ff"/><path d="m388.96875 367.828125v8.863281c0 14.714844-11.878906 26.59375-26.59375 26.59375h-231.070312c-14.714844 0-26.589844-11.878906-26.589844-26.59375v-8.863281zm0 0" fill="#61729b"/><path d="m388.96875 367.828125v8.863281c0 14.714844-11.878906 26.59375-26.59375 26.59375h-115.238281v-35.457031zm0 0" fill="#47568c"/><path d="m335.78125 100.714844h71.503906v53.183594l-39.738281 18.320312-31.765625-18.320312-17.730469-25.851563zm0 0" fill="#47568c"/><path d="m335.78125 100.714844v53.183594l-53.1875 10.34375-42.902344 7.976562-81.199218-18.320312v-53.183594zm0 0" fill="#4bb9ec"/><path d="m335.78125 100.714844v53.183594l-53.1875 10.34375v-63.527344zm0 0" fill="#0095ff"/><path d="m158.492188 153.898438h248.792968v160.152343h-248.792968zm0 0" fill="#f2f2fc"/><path d="m282.59375 153.898438h124.691406v160.152343h-124.691406zm0 0" fill="#d8d8fc"/><path d="m264.863281 243.136719h-70.914062v-53.1875h70.914062zm0 0" fill="#61729b"/><path d="m282.59375 189.949219h88.644531v17.730469h-88.644531zm0 0" fill="#a3a3d1"/><path d="m282.59375 225.40625h88.644531v17.730469h-88.644531zm0 0" fill="#a3a3d1"/><path d="m193.949219 260.863281h177.289062v17.730469h-177.289062zm0 0" fill="#d8d8fc"/><path d="m282.59375 260.863281h88.644531v17.730469h-88.644531zm0 0" fill="#a3a3d1"/><g fill="#f2f2fc"><path d="m176.21875 118.441406h17.730469v17.730469h-17.730469zm0 0"/><path d="m211.679688 118.441406h17.726562v17.730469h-17.726562zm0 0"/><path d="m247.136719 118.441406h17.726562v17.730469h-17.726562zm0 0"/></g></svg>